<svg width="84" height="84" viewBox="0 0 84 84" fill="none" xmlns="http://www.w3.org/2000/svg" xmlns:xlink="http://www.w3.org/1999/xlink">
<path d="M73.5,37.5C74.881,37.5 76,36.381 76,35C76,33.619 74.881,32.5 73.5,32.5L73.5,37.5ZM10.5,32.5C9.119,32.5 8,33.619 8,35C8,36.381 9.119,37.5 10.5,37.5L10.5,32.5ZM71,43.75C71,45.131 72.119,46.25 73.5,46.25C74.881,46.25 76,45.131 76,43.75L71,43.75ZM42,79.5C43.381,79.5 44.5,78.381 44.5,77C44.5,75.619 43.381,74.5 42,74.5L42,79.5ZM11.644,71.267L13.872,70.132L13.872,70.132L11.644,71.267ZM16.233,75.856L15.098,78.083L15.098,78.083L16.233,75.856ZM67.767,15.144L66.632,17.372L66.632,17.372L67.767,15.144ZM72.356,19.733L74.583,18.598L74.583,18.598L72.356,19.733ZM16.233,15.144L17.368,17.372L17.368,17.372L16.233,15.144ZM11.644,19.733L13.872,20.868L13.872,20.868L11.644,19.733ZM58.5,7C58.5,5.619 57.381,4.5 56,4.5C54.619,4.5 53.5,5.619 53.5,7L58.5,7ZM53.5,21C53.5,22.381 54.619,23.5 56,23.5C57.381,23.5 58.5,22.381 58.5,21L53.5,21ZM30.5,7C30.5,5.619 29.381,4.5 28,4.5C26.619,4.5 25.5,5.619 25.5,7L30.5,7ZM25.5,21C25.5,22.381 26.619,23.5 28,23.5C29.381,23.5 30.5,22.381 30.5,21L25.5,21ZM73.5,32.5L10.5,32.5L10.5,37.5L73.5,37.5L73.5,32.5ZM27.3,16.5L56.7,16.5L56.7,11.5L27.3,11.5L27.3,16.5ZM13,60.2L13,30.8L8,30.8L8,60.2L13,60.2ZM71,30.8L71,43.75L76,43.75L76,30.8L71,30.8ZM27.3,79.5L42,79.5L42,74.5L27.3,74.5L27.3,79.5ZM8,60.2C8,63.099 7.998,65.424 8.151,67.3C8.307,69.205 8.635,70.868 9.417,72.402L13.872,70.132C13.509,69.42 13.265,68.489 13.135,66.893C13.002,65.267 13,63.182 13,60.2L8,60.2ZM27.3,74.5C24.318,74.5 22.233,74.498 20.607,74.365C19.011,74.235 18.08,73.991 17.368,73.628L15.098,78.083C16.632,78.865 18.295,79.193 20.2,79.349C22.076,79.502 24.401,79.5 27.3,79.5L27.3,74.5ZM9.417,72.402C10.663,74.848 12.652,76.837 15.098,78.083L17.368,73.628C15.863,72.861 14.639,71.637 13.872,70.132L9.417,72.402ZM56.7,16.5C59.682,16.5 61.767,16.502 63.393,16.635C64.989,16.765 65.92,17.009 66.632,17.372L68.902,12.917C67.368,12.135 65.705,11.807 63.8,11.651C61.924,11.498 59.599,11.5 56.7,11.5L56.7,16.5ZM76,30.8C76,27.901 76.002,25.576 75.849,23.7C75.693,21.795 75.365,20.132 74.583,18.598L70.128,20.868C70.491,21.58 70.735,22.511 70.865,24.107C70.998,25.733 71,27.818 71,30.8L76,30.8ZM66.632,17.372C68.137,18.139 69.361,19.363 70.128,20.868L74.583,18.598C73.337,16.152 71.348,14.163 68.902,12.917L66.632,17.372ZM27.3,11.5C24.401,11.5 22.076,11.498 20.2,11.651C18.295,11.807 16.632,12.135 15.098,12.917L17.368,17.372C18.08,17.009 19.011,16.765 20.607,16.635C22.233,16.502 24.318,16.5 27.3,16.5L27.3,11.5ZM13,30.8C13,27.818 13.002,25.733 13.135,24.107C13.265,22.511 13.509,21.58 13.872,20.868L9.417,18.598C8.635,20.132 8.307,21.795 8.151,23.7C7.998,25.576 8,27.901 8,30.8L13,30.8ZM15.098,12.917C12.652,14.163 10.663,16.152 9.417,18.598L13.872,20.868C14.639,19.363 15.863,18.139 17.368,17.372L15.098,12.917ZM53.5,7L53.5,21L58.5,21L58.5,7L53.5,7ZM25.5,7L25.5,21L30.5,21L30.5,7L25.5,7Z" fill="#03254C"/>
<path d="M52.518,64.732C51.541,63.756 49.959,63.756 48.982,64.732C48.006,65.709 48.006,67.291 48.982,68.268L52.518,64.732ZM57.75,73.5L55.982,75.268C56.451,75.737 57.087,76 57.75,76C58.413,76 59.049,75.737 59.518,75.268L57.75,73.5ZM75.268,59.518C76.244,58.541 76.244,56.959 75.268,55.982C74.291,55.006 72.709,55.006 71.732,55.982L75.268,59.518ZM48.982,68.268L55.982,75.268L59.518,71.732L52.518,64.732L48.982,68.268ZM59.518,75.268L75.268,59.518L71.732,55.982L55.982,71.732L59.518,75.268Z" fill="#2B9DF5"/>
</svg>
