<svg width="84" height="84" viewBox="0 0 84 84" fill="none" xmlns="http://www.w3.org/2000/svg" xmlns:xlink="http://www.w3.org/1999/xlink">
<path d="M31.822,76.237L32.957,74.01L31.822,76.237ZM28.763,73.178L30.99,72.043L28.763,73.178ZM76.237,73.178L74.01,72.043L76.237,73.178ZM73.178,76.237L72.043,74.01L73.178,76.237ZM73.178,28.763L72.043,30.99L73.178,28.763ZM76.237,31.822L74.01,32.957L76.237,31.822ZM31.822,28.763L32.957,30.99L31.822,28.763ZM28.763,31.822L30.99,32.957L28.763,31.822ZM53.5,28C53.5,29.381 54.619,30.5 56,30.5C57.381,30.5 58.5,29.381 58.5,28L53.5,28ZM28,58.5C29.381,58.5 30.5,57.381 30.5,56C30.5,54.619 29.381,53.5 28,53.5L28,58.5ZM10.822,55.237L11.957,53.01L11.957,53.01L10.822,55.237ZM7.763,52.178L9.99,51.043L9.99,51.043L7.763,52.178ZM10.822,7.763L9.687,5.535L9.687,5.535L10.822,7.763ZM7.763,10.822L5.535,9.687L5.535,9.687L7.763,10.822ZM52.178,7.763L51.043,9.99L51.043,9.99L52.178,7.763ZM55.237,10.822L53.01,11.957L53.01,11.957L55.237,10.822ZM39.2,30.5L65.8,30.5L65.8,25.5L39.2,25.5L39.2,30.5ZM74.5,39.2L74.5,65.8L79.5,65.8L79.5,39.2L74.5,39.2ZM65.8,74.5L39.2,74.5L39.2,79.5L65.8,79.5L65.8,74.5ZM30.5,65.8L30.5,39.2L25.5,39.2L25.5,65.8L30.5,65.8ZM39.2,74.5C37.199,74.5 35.848,74.498 34.806,74.413C33.793,74.33 33.295,74.182 32.957,74.01L30.687,78.465C31.847,79.056 33.077,79.288 34.399,79.396C35.692,79.502 37.281,79.5 39.2,79.5L39.2,74.5ZM25.5,65.8C25.5,67.719 25.498,69.308 25.604,70.601C25.712,71.923 25.944,73.153 26.535,74.313L30.99,72.043C30.818,71.705 30.67,71.207 30.587,70.194C30.502,69.152 30.5,67.801 30.5,65.8L25.5,65.8ZM32.957,74.01C32.11,73.578 31.422,72.89 30.99,72.043L26.535,74.313C27.446,76.1 28.9,77.554 30.687,78.465L32.957,74.01ZM74.5,65.8C74.5,67.801 74.498,69.152 74.413,70.194C74.33,71.207 74.182,71.705 74.01,72.043L78.465,74.313C79.056,73.153 79.288,71.923 79.396,70.601C79.502,69.308 79.5,67.719 79.5,65.8L74.5,65.8ZM65.8,79.5C67.719,79.5 69.308,79.502 70.601,79.396C71.923,79.288 73.153,79.056 74.313,78.465L72.043,74.01C71.705,74.182 71.207,74.33 70.194,74.413C69.152,74.498 67.801,74.5 65.8,74.5L65.8,79.5ZM74.01,72.043C73.578,72.89 72.89,73.578 72.043,74.01L74.313,78.465C76.1,77.554 77.554,76.1 78.465,74.313L74.01,72.043ZM65.8,30.5C67.801,30.5 69.152,30.502 70.194,30.587C71.207,30.67 71.705,30.818 72.043,30.99L74.313,26.535C73.153,25.944 71.923,25.712 70.601,25.604C69.308,25.498 67.719,25.5 65.8,25.5L65.8,30.5ZM79.5,39.2C79.5,37.281 79.502,35.692 79.396,34.399C79.288,33.077 79.056,31.847 78.465,30.687L74.01,32.957C74.182,33.295 74.33,33.793 74.413,34.806C74.498,35.848 74.5,37.199 74.5,39.2L79.5,39.2ZM72.043,30.99C72.89,31.422 73.578,32.11 74.01,32.957L78.465,30.687C77.554,28.9 76.1,27.446 74.313,26.535L72.043,30.99ZM39.2,25.5C37.281,25.5 35.692,25.498 34.399,25.604C33.077,25.712 31.847,25.944 30.687,26.535L32.957,30.99C33.295,30.818 33.793,30.67 34.806,30.587C35.848,30.502 37.199,30.5 39.2,30.5L39.2,25.5ZM30.5,39.2C30.5,37.199 30.502,35.848 30.587,34.806C30.67,33.793 30.818,33.295 30.99,32.957L26.535,30.687C25.944,31.847 25.712,33.077 25.604,34.399C25.498,35.692 25.5,37.281 25.5,39.2L30.5,39.2ZM30.687,26.535C28.9,27.446 27.446,28.9 26.535,30.687L30.99,32.957C31.422,32.11 32.11,31.422 32.957,30.99L30.687,26.535ZM44.8,4.5L18.2,4.5L18.2,9.5L44.8,9.5L44.8,4.5ZM58.5,28L58.5,18.2L53.5,18.2L53.5,28L58.5,28ZM18.2,58.5L28,58.5L28,53.5L18.2,53.5L18.2,58.5ZM4.5,18.2L4.5,44.8L9.5,44.8L9.5,18.2L4.5,18.2ZM18.2,53.5C16.199,53.5 14.848,53.498 13.806,53.413C12.793,53.33 12.295,53.182 11.957,53.01L9.687,57.465C10.847,58.056 12.077,58.288 13.399,58.396C14.692,58.502 16.281,58.5 18.2,58.5L18.2,53.5ZM4.5,44.8C4.5,46.719 4.498,48.308 4.604,49.601C4.712,50.923 4.944,52.153 5.535,53.313L9.99,51.043C9.819,50.705 9.67,50.207 9.587,49.194C9.502,48.152 9.5,46.801 9.5,44.8L4.5,44.8ZM11.957,53.01C11.11,52.578 10.422,51.89 9.99,51.043L5.535,53.313C6.446,55.1 7.9,56.554 9.687,57.465L11.957,53.01ZM18.2,4.5C16.281,4.5 14.692,4.498 13.399,4.604C12.077,4.712 10.847,4.944 9.687,5.535L11.957,9.99C12.295,9.818 12.793,9.67 13.806,9.587C14.848,9.502 16.199,9.5 18.2,9.5L18.2,4.5ZM9.5,18.2C9.5,16.199 9.502,14.848 9.587,13.806C9.67,12.793 9.819,12.295 9.99,11.957L5.535,9.687C4.944,10.847 4.712,12.077 4.604,13.399C4.498,14.692 4.5,16.281 4.5,18.2L9.5,18.2ZM9.687,5.535C7.9,6.446 6.446,7.9 5.535,9.687L9.99,11.957C10.422,11.11 11.11,10.422 11.957,9.99L9.687,5.535ZM44.8,9.5C46.801,9.5 48.152,9.502 49.194,9.587C50.207,9.67 50.705,9.818 51.043,9.99L53.313,5.535C52.153,4.944 50.923,4.712 49.601,4.604C48.308,4.498 46.719,4.5 44.8,4.5L44.8,9.5ZM58.5,18.2C58.5,16.281 58.502,14.692 58.396,13.399C58.288,12.077 58.056,10.847 57.465,9.687L53.01,11.957C53.182,12.295 53.33,12.793 53.413,13.806C53.498,14.848 53.5,16.199 53.5,18.2L58.5,18.2ZM51.043,9.99C51.89,10.422 52.578,11.11 53.01,11.957L57.465,9.687C56.554,7.9 55.1,6.446 53.313,5.535L51.043,9.99Z" fill="#03254C"/>
<path d="M43.768,50.732C42.791,49.756 41.209,49.756 40.232,50.732C39.256,51.709 39.256,53.291 40.232,54.268L43.768,50.732ZM49,59.5L47.232,61.268C47.701,61.737 48.337,62 49,62C49.663,62 50.299,61.737 50.768,61.268L49,59.5ZM66.518,45.518C67.494,44.541 67.494,42.959 66.518,41.982C65.541,41.006 63.959,41.006 62.982,41.982L66.518,45.518ZM40.232,54.268L47.232,61.268L50.768,57.732L43.768,50.732L40.232,54.268ZM50.768,61.268L66.518,45.518L62.982,41.982L47.232,57.732L50.768,61.268Z" fill="#2B9DF5"/>
</svg>
