<svg width="72" height="88" viewBox="0 0 72 88" fill="none" xmlns="http://www.w3.org/2000/svg" xmlns:xlink="http://www.w3.org/1999/xlink">
<path d="M49.172,66.42L44.454,74.921L42.441,78.565L37.191,88L32.612,80.27L30.808,77.234L25.858,68.873L23.383,64.692L4.996,33.677L0,25.27L10.824,25.27L15.82,33.677L28.61,55.257L31.085,59.414L36.058,67.798L37.839,70.811L39.874,67.191L44.569,58.69L49.172,66.42Z" fill="#2B9DF5"/>
<path d="M72,25.27L67.328,33.677L51.415,62.38L46.812,54.65L58.446,33.677L54.977,33.677L45.031,51.614L42.788,55.654L38.07,64.155L33.097,55.794L30.622,51.614L19.983,33.677L15.01,25.27L45.24,25.27L40.568,33.677L37.676,38.909L37.584,39.072L34.392,33.677L29.743,33.677L35.34,43.113L37.815,47.293L40.059,43.253L45.378,33.677L50.05,25.27L72,25.27Z" fill="#03254C"/>
<path d="M61.06,3.62L57.729,9.622L55.069,14.433L17.369,14.433L14.501,9.622L10.939,3.62L15.588,3.62L19.15,9.622L23.198,9.622L22.828,9.015L19.983,4.204L19.613,3.62L24.146,3.62L26.991,8.431L27.708,9.622L33.374,9.622L33.236,3.62L33.166,0L38.532,0L38.578,2.826L38.578,2.989L38.578,3.62L38.601,3.62L38.74,9.622L44.384,9.622L45.101,8.431L47.969,3.62L52.479,3.62L52.132,4.204L49.287,9.015L48.917,9.622L52.941,9.622L56.272,3.62L61.06,3.62Z" fill="#2B9DF5"/>
<path d="M54.191,17.142L51.531,21.953L20.678,21.953L20.307,21.346L17.81,17.142L54.191,17.142Z" fill="#03254C"/>
</svg>
