<svg width="592" height="648" viewBox="0 0 592 648" fill="none" xmlns="http://www.w3.org/2000/svg" xmlns:xlink="http://www.w3.org/1999/xlink">
<path d="M203.401,457.791C199.581,444.081 191.367,437.227 181.896,429.379C179.542,427.443 177.083,425.403 174.624,423.205C158.927,409.235 159.973,395.003 161.334,376.953C161.491,374.861 161.648,372.663 161.805,370.413C162.432,360.629 163.584,350.583 164.787,339.961C168.606,306.527 172.531,271.995 160.13,242.957C149.143,217.267 150.294,187.234 151.445,158.195C151.759,149.981 152.073,142.185 152.125,134.493C152.23,107.234 156.782,90.7 170.124,69.039C173.316,63.859 176.664,58.783 179.96,53.813C191.524,36.337 202.407,19.856 206.749,-0.707L209.104,-0.183C204.656,20.798 193.146,38.273 181.949,55.121C178.705,60.039 175.304,65.167 172.164,70.294C159.084,91.485 154.637,107.704 154.532,134.441C154.48,142.185 154.166,149.981 153.852,158.195C152.753,186.972 151.55,216.691 162.328,241.909C174.99,271.577 171.013,306.423 167.194,340.171C165.99,350.739 164.839,360.733 164.211,370.465C164.054,372.715 163.898,374.913 163.741,377.005C162.38,395.057 161.386,408.085 176.193,421.269C178.652,423.467 181.059,425.455 183.414,427.391C193.25,435.553 201.726,442.565 205.703,457.057L203.401,457.791Z" transform="rotate(77.479 179.92 228.542)" fill="#2B9DF5"/>
<path d="M207.127,465.823C204.354,452.009 197.813,442.853 190.174,432.283C188.709,430.243 187.14,428.099 185.622,425.849C174.844,410.361 175.001,396.601 175.263,379.229C175.315,376.979 175.315,374.677 175.315,372.323C175.315,363.481 175.472,354.429 175.629,345.639C176.152,313.147 176.675,279.609 171.234,247.483C166.629,220.485 164.589,192.283 162.653,165.023C162.13,157.646 161.554,150.059 160.979,142.63C159.095,118.561 163.176,101.923 176.728,79.058C179.71,73.983 182.902,68.96 185.988,64.147C196.976,46.828 207.388,30.451 211.417,10.255L213.771,10.726C209.69,31.393 198.65,48.712 188.029,65.455C184.942,70.268 181.803,75.291 178.82,80.314C165.583,102.656 161.502,118.928 163.385,142.473C163.961,149.902 164.537,157.489 165.06,164.866C166.996,192.074 169.036,220.223 173.641,247.065C179.134,279.399 178.611,313.095 178.088,345.639C177.931,354.377 177.826,363.429 177.774,372.271C177.774,374.625 177.722,376.927 177.722,379.177C177.512,396.129 177.303,409.523 187.663,424.383C189.18,426.581 190.697,428.725 192.215,430.767C199.958,441.545 206.708,450.911 209.586,465.247L207.127,465.823Z" transform="rotate(77.479 187.159 238.039)" fill="#2B9DF5"/>
<path d="M210.298,473.756C208.885,459.368 204.438,446.862 199.729,433.626C198.996,431.584 198.264,429.544 197.584,427.504C192.718,413.482 191.933,400.034 191.096,385.804C190.834,381.67 190.625,377.432 190.258,373.142C189.631,365.816 189.003,358.438 188.375,351.27C185.34,317.314 182.515,285.24 183.457,251.44C183.561,248.196 183.666,244.952 183.823,241.708C184.294,229.152 184.817,216.123 183.457,203.618C182.306,192.945 179.219,182.48 176.289,172.382C174.248,165.371 172.103,158.098 170.638,150.825C164.516,120.845 178.905,96.777 192.822,73.546C202.502,57.378 212.495,40.688 215.896,21.904L218.251,22.323C214.797,41.525 204.699,58.425 194.915,74.749C180.579,98.661 167.08,121.264 172.992,150.302C174.457,157.523 176.55,164.691 178.591,171.65C181.573,181.852 184.712,192.474 185.864,203.357C187.224,216.019 186.701,229.152 186.23,241.76C186.125,245.004 185.968,248.248 185.864,251.492C184.869,285.188 187.747,317.156 190.729,351.062C191.357,358.23 192.037,365.606 192.613,372.932C192.979,377.222 193.241,381.512 193.45,385.646C194.287,399.72 195.072,413.01 199.833,426.666C200.566,428.708 201.298,430.748 201.979,432.788C206.74,446.182 211.187,458.792 212.652,473.494L210.298,473.756Z" transform="rotate(77.479 193.72 247.83)" fill="#2B9DF5"/>
<path d="M213.183,481.436C213.078,443.606 211.037,410.382 207.113,382.704C205.387,370.67 202.352,358.688 199.37,347.072C196.858,337.132 194.242,326.824 192.463,316.516C188.958,296.164 191.835,276.804 194.87,260.27C195.498,256.87 196.178,253.468 196.911,249.858C199.841,235.47 202.823,220.663 200.887,206.641C199.37,195.863 194.137,186.235 189.115,176.87C186.341,171.742 183.464,166.405 181.214,160.912C169.546,132.553 184.51,106.549 199.003,81.435C208.003,65.843 217.264,49.728 219.984,33.298L222.391,33.665C219.618,50.512 210.253,66.837 201.149,82.638C186.289,108.38 172.319,132.71 183.516,159.97C185.714,165.359 188.591,170.591 191.312,175.666C196.44,185.189 201.776,194.973 203.346,206.222C205.387,220.611 202.3,235.68 199.37,250.278C198.637,253.888 197.957,257.288 197.329,260.636C194.347,276.962 191.469,296.112 194.922,316.046C196.701,326.248 199.317,336.504 201.829,346.392C204.811,358.06 207.846,370.146 209.625,382.286C213.601,410.12 215.642,443.45 215.746,481.384L213.183,481.436Z" transform="rotate(77.479 199.712 257.367)" fill="#2B9DF5"/>
<path d="M217.129,487.937L214.722,487.727C216.03,471.037 217.599,454.555 219.117,439.277C219.535,435.039 220.111,430.645 220.634,426.407C222.622,411.129 224.663,395.275 221.157,380.835C218.541,370.003 214.094,359.591 209.751,349.545C206.036,340.861 202.164,331.913 199.496,322.653C193.531,302.089 198.868,283.411 204.519,263.633L204.571,263.477C205.67,259.709 206.926,255.733 208.338,251.547C213.309,236.321 218.96,219.055 215.821,204.614C213.623,194.62 206.717,187.086 200.019,179.813C196.304,175.784 192.485,171.599 189.45,167.047C177.05,148.368 184.218,130.369 194.107,110.539C196.723,105.254 199.548,100.022 202.269,94.999C211.321,78.204 219.849,62.35 222.622,43.253L225.029,43.619C222.204,63.135 213.571,79.198 204.414,96.203C201.694,101.226 198.92,106.458 196.304,111.69C186.782,130.892 179.823,148.158 191.491,165.791C194.421,170.186 198.188,174.319 201.851,178.296C208.757,185.83 215.925,193.626 218.227,204.247C221.524,219.368 215.768,236.949 210.693,252.437C209.333,256.621 208.025,260.547 206.978,264.261L206.926,264.417C201.38,283.829 196.147,302.195 201.903,322.077C204.571,331.181 208.391,340.075 212.053,348.709C216.396,358.859 220.948,369.375 223.564,380.415C227.174,395.275 225.082,411.337 223.093,426.877C222.518,431.325 221.995,435.511 221.576,439.697C220.006,454.817 218.437,471.247 217.129,487.937Z" transform="rotate(77.479 204.199 265.595)" fill="#2B9DF5"/>
<path d="M217.886,496.817L215.48,496.503C217.782,478.243 221.758,460.505 225.63,443.971C226.467,440.413 227.409,436.803 228.455,432.983C232.798,416.711 237.664,398.241 232.484,382.755C229.136,372.865 223.485,363.867 217.939,355.181C213.177,347.647 208.207,339.851 204.806,331.427C196.853,312.015 203.76,292.917 210.457,274.449C211.032,272.879 211.608,271.309 212.183,269.739C213.544,265.919 215.323,261.629 217.154,257.129C223.746,241.172 231.909,221.342 227.88,206.378C225.264,196.803 216.892,191.204 208.782,185.763C204.23,182.676 199.469,179.536 195.859,175.665C180.162,159.026 189.58,138.935 197.899,121.25C200.359,116.07 202.922,110.942 205.434,106.024C213.91,89.386 221.915,73.637 224.374,54.853L226.781,55.167C224.27,74.369 216.16,90.275 207.579,107.123C205.068,112.041 202.451,117.169 200.045,122.296C192.039,139.301 182.988,158.608 197.533,174.043C200.986,177.705 205.382,180.635 210.038,183.774C218.514,189.425 227.252,195.338 230.13,205.75C234.42,221.499 226.049,241.747 219.351,258.071C217.52,262.571 215.741,266.757 214.433,270.577C213.858,272.147 213.282,273.715 212.706,275.337C206.166,293.337 199.469,311.963 207.056,330.537C210.404,338.805 215.323,346.495 220.032,353.925C225.63,362.715 231.385,371.871 234.786,382.023C240.228,398.189 235.205,417.025 230.81,433.663C229.816,437.483 228.822,441.093 228.037,444.599C224.165,461.029 220.189,478.661 217.886,496.817Z" transform="rotate(77.479 212.279 275.835)" fill="#2B9DF5"/>
<path d="M223.529,506.789L221.122,506.475C223.686,487.901 228.761,471.157 235.092,451.223C236.138,447.979 237.29,444.577 238.598,441.019C244.719,423.649 251.626,404.029 245.242,387.913C241.528,378.495 234.883,370.647 228.499,363.007C222.901,356.363 217.146,349.509 213.169,341.503C203.751,322.563 212.175,302.209 219.605,284.211C220.442,282.119 221.331,280.077 222.116,278.037C223.633,274.217 225.674,269.823 227.819,265.218C235.772,248.109 245.713,226.761 240.9,211.536C237.865,201.908 228.447,197.775 219.395,193.746C214.216,191.444 208.931,189.09 204.85,185.793C187.741,171.719 197.577,149.9 204.798,133.942L205.426,132.53C207.728,127.454 210.134,122.431 212.541,117.565C220.599,100.979 228.185,85.335 230.592,66.761L232.999,67.075C230.592,86.015 222.901,101.869 214.739,118.612C212.384,123.478 209.978,128.448 207.675,133.524L207.047,134.936C199.775,151.051 190.775,171.038 206.42,183.91C210.239,187.049 215.157,189.247 220.39,191.549C229.964,195.787 239.906,200.182 243.254,210.855C248.329,227.023 238.179,248.789 230.069,266.317C227.924,270.921 225.883,275.265 224.418,279.031C223.581,281.071 222.744,283.113 221.907,285.205C214.634,302.681 206.472,322.511 215.367,340.457C219.186,348.149 224.889,354.897 230.383,361.439C236.923,369.181 243.62,377.239 247.492,387.023C254.19,403.975 247.126,424.067 240.9,441.805C239.644,445.363 238.441,448.711 237.446,451.955C231.116,471.785 226.093,488.423 223.529,506.789Z" transform="rotate(77.479 222.78 286.775)" fill="#2B9DF5"/>
<path d="M233.428,516.342L231.021,516.08C233.167,496.354 239.445,478.774 246.09,460.2L246.142,459.99C247.189,457.06 248.34,454.026 249.596,450.834C256.136,433.882 264.246,412.744 257.496,395.844C253.781,386.53 246.718,379.152 239.916,372.038C233.951,365.758 227.777,359.322 223.644,351.474C213.755,332.534 222.755,311.658 230.707,293.24C231.597,291.2 232.434,289.212 233.271,287.276C234.841,283.508 236.986,279.114 239.236,274.457C247.712,256.981 258.281,235.215 253.258,219.571C250.119,209.682 240.335,206.177 230.917,202.776C225.475,200.788 219.877,198.799 215.586,195.555C198.32,182.527 208.052,160.604 215.116,144.594L216.11,142.292C218.307,137.269 220.662,132.298 222.912,127.537C230.76,110.898 238.137,95.15 240.701,76.732L243.108,77.046C240.492,95.83 233.01,111.736 225.109,128.583C222.859,133.345 220.505,138.315 218.36,143.286L217.365,145.588C210.616,160.866 201.355,181.795 217.052,193.619C221.028,196.602 226.26,198.485 231.754,200.526C241.747,204.136 252.055,207.903 255.56,218.891C260.845,235.477 250.067,257.714 241.381,275.556C239.131,280.16 237.038,284.502 235.469,288.218C234.632,290.154 233.794,292.194 232.905,294.182C225.161,312.076 216.424,332.378 225.789,350.324C229.713,357.858 235.783,364.242 241.643,370.362C248.602,377.636 255.822,385.17 259.746,394.954C266.862,412.744 258.543,434.352 251.898,451.724C250.694,454.916 249.491,457.95 248.497,460.828L248.445,461.036C241.747,479.454 235.521,496.878 233.428,516.342Z" transform="rotate(77.479 234.195 296.537)" fill="#2B9DF5"/>
<path d="M244.016,525.618L241.609,525.356C243.702,505.37 250.4,487.58 256.835,470.366C257.829,467.75 258.876,465.03 260.027,462.204C267.038,444.572 274.939,424.638 268.189,407.37C264.474,397.796 257.568,390 250.923,382.414C245.115,375.768 239.098,368.966 235.069,360.856C225.442,341.602 234.337,320.934 242.133,302.674C242.918,300.792 243.702,298.96 244.487,297.18C246.057,293.414 248.15,289.124 250.347,284.572C258.614,267.462 268.869,246.219 264.108,230.523C261.126,220.634 251.341,215.977 241.871,211.53C236.534,209.019 230.988,206.402 226.855,202.845C210.53,188.875 219.163,168.521 226.07,152.145C226.489,151.203 226.855,150.261 227.273,149.319C229.366,144.296 231.564,139.326 233.761,134.564C241.296,117.717 248.411,101.811 251.08,83.498L253.487,83.864C250.766,102.543 243.598,118.606 236.011,135.611C233.866,140.424 231.668,145.343 229.576,150.313C229.209,151.255 228.791,152.197 228.372,153.139C221.413,169.568 213.513,188.194 228.477,201.066C232.349,204.414 237.528,206.821 242.97,209.385C252.911,214.094 263.166,218.907 266.515,229.843C271.538,246.429 261.021,268.142 252.597,285.618C250.4,290.118 248.359,294.408 246.789,298.122C246.057,299.954 245.22,301.786 244.435,303.668C236.796,321.406 228.163,341.55 237.319,359.81C241.191,367.606 247.103,374.304 252.806,380.844C259.608,388.588 266.619,396.592 270.491,406.534C277.555,424.69 269.445,445.148 262.329,463.146C261.23,465.972 260.131,468.64 259.19,471.256C252.702,488.312 246.057,505.946 244.016,525.618Z" transform="rotate(77.479 245.364 304.558)" fill="#2B9DF5"/>
<path d="M253.542,534.922L251.135,534.66C253.123,516.4 259.035,500.704 266.57,482.076C267.459,479.932 268.349,477.734 269.29,475.536C276.459,458.374 284.621,438.964 278.185,421.07C274.575,411.024 267.982,402.442 261.599,394.176C256.053,386.956 250.298,379.474 246.426,370.996C237.322,351.062 246.059,330.448 253.751,312.344C254.379,310.932 254.954,309.466 255.53,308.054C257.099,304.338 259.088,300.206 261.18,295.81C269.133,279.224 278.97,258.61 274.47,242.965C271.436,232.344 261.704,225.961 252.338,219.734C247.263,216.386 241.978,212.933 238.002,208.851C222.619,193.312 230.311,173.639 237.008,156.268L238.002,153.756C239.938,148.734 241.978,143.763 243.967,138.949C250.978,121.892 257.623,105.725 260.134,87.412L262.541,87.726C259.977,106.353 253.332,122.625 246.216,139.839C244.228,144.652 242.188,149.623 240.252,154.594L239.258,157.105C232.456,174.581 225.445,192.684 239.676,207.125C243.496,210.997 248.414,214.241 253.646,217.694C263.43,224.129 273.476,230.774 276.772,242.285C281.534,258.871 271.436,279.957 263.326,296.856C261.233,301.2 259.245,305.332 257.727,308.996C257.152,310.408 256.524,311.82 255.896,313.286C248.048,331.86 239.886,351.01 248.571,370.002C252.338,378.218 257.989,385.594 263.483,392.71C269.971,401.186 276.72,409.924 280.435,420.284C287.185,439.016 278.865,458.95 271.488,476.478C270.546,478.676 269.657,480.874 268.767,483.018C261.39,501.436 255.53,516.922 253.542,534.922Z" transform="rotate(77.479 255.984 311.167)" fill="#2B9DF5"/>
<path d="M265.059,546.021L262.652,545.759C264.326,531.003 270.867,516.249 277.198,501.965C288.081,477.425 298.336,454.247 287.086,430.075C283.685,422.801 279.081,415.791 274.634,409.041C267.937,398.943 261.03,388.479 257.838,376.497C252.868,357.871 261.344,338.669 268.826,321.769C269.977,319.205 271.024,316.745 272.07,314.339C273.169,311.723 274.424,308.949 275.785,306.019C283.005,290.218 291.952,270.545 285.935,254.692C282.064,244.541 273.692,237.007 265.53,229.734C259.931,224.711 254.124,219.531 249.833,213.514C237.538,196.248 244.182,177.412 250.566,159.204L251.56,156.379C253.077,151.984 254.699,147.589 256.269,143.298C262.652,125.927 268.669,109.498 270.814,91.133L273.221,91.395C271.024,110.021 264.954,126.555 258.519,144.083C256.949,148.321 255.327,152.768 253.81,157.111L252.816,159.937C246.589,177.569 240.154,195.777 251.769,211.997C255.903,217.805 261.606,222.932 267.099,227.85C275.419,235.333 284.052,243.024 288.133,253.75C294.516,270.545 285.307,290.741 277.93,306.961C276.622,309.891 275.366,312.611 274.268,315.227C273.221,317.687 272.175,320.093 271.024,322.709C263.699,339.297 255.379,358.079 260.141,375.869C263.228,387.485 270.029,397.791 276.622,407.733C281.122,414.535 285.778,421.599 289.232,429.081C300.952,454.247 289.964,478.995 279.395,502.959C273.169,517.033 266.681,531.631 265.059,546.021Z" transform="rotate(77.479 268.606 318.577)" fill="#2B9DF5"/>
<path d="M276.679,558.298L274.273,558.036C276.051,543.176 282.801,529.26 289.341,515.864C299.649,494.622 309.433,474.53 300.852,451.142C297.504,442.09 292.742,433.458 288.086,425.138C282.592,415.302 276.889,405.1 273.54,394.006C267.314,373.444 275.267,354.504 282.958,336.138L283.167,335.668C284.58,332.268 286.202,328.71 287.929,324.994C294.835,309.926 302.683,292.869 300.434,277.12C298.498,263.307 288.818,251.953 279.505,240.966C275.738,236.518 272.127,232.28 269.04,227.937C249.786,200.73 260.25,169.442 270.348,139.147C275.267,124.34 280.394,109.062 281.702,94.83L284.109,95.04C282.749,109.585 277.621,125.02 272.651,139.932C262.709,169.598 252.454,200.311 271.029,226.525C274.063,230.815 277.569,234.949 281.336,239.396C290.911,250.645 300.8,262.313 302.84,276.754C305.143,293.235 297.19,310.658 290.126,325.988C288.452,329.704 286.83,333.208 285.417,336.558L285.208,337.028C277.673,354.974 269.877,373.496 275.894,393.222C279.191,404.052 284.789,414.098 290.231,423.83C294.94,432.254 299.806,440.94 303.154,450.148C312.101,474.478 301.637,495.982 291.539,516.754C285.051,530.096 278.406,543.804 276.679,558.298Z" transform="rotate(77.479 282.408 326.564)" fill="#2B9DF5"/>
<path d="M285.158,567.722L282.751,567.408C284.687,552.286 291.593,539.362 298.29,526.858C308.284,508.126 317.754,490.39 310.324,466.844C307.237,457.112 302.738,447.642 298.395,438.538C293.267,427.76 287.931,416.616 284.844,404.79C279.559,384.594 285.838,366.962 293.948,347.654C295.256,344.568 296.668,341.428 298.133,338.132C304.935,322.958 311.999,307.262 310.167,291.409C308.388,276.131 299.075,262.475 290.076,249.237C286.361,243.796 282.855,238.668 279.873,233.436C262.659,203.508 271.345,172.324 279.664,142.187C283.902,126.961 288.245,111.212 289.343,95.62L291.75,95.777C290.651,111.578 286.256,127.484 281.966,142.815C273.385,173.842 265.223,203.089 281.914,232.181C284.896,237.36 288.349,242.436 292.012,247.825C301.168,261.272 310.691,275.189 312.522,291.043C314.458,307.576 306.923,324.32 300.279,339.074C298.814,342.37 297.401,345.458 296.093,348.544C287.878,368.112 282.018,384.646 287.093,404.11C290.128,415.726 295.413,426.766 300.488,437.44C304.883,446.648 309.383,456.17 312.574,466.06C320.318,490.546 310.638,508.702 300.383,527.956C293.843,540.304 287.041,553.018 285.158,567.722Z" transform="rotate(77.479 292.661 331.671)" fill="#2B9DF5"/>
<path d="M293.551,576.704L291.144,576.39C293.132,561.532 300.248,549.706 307.102,538.248C316.782,522.08 325.886,506.854 320.392,484.67C317.515,473.054 312.858,461.806 308.411,450.922C304.225,440.772 299.934,430.308 297.004,419.53C290.359,395.2 297.214,375.946 306.841,353.342C307.364,352.138 307.835,350.988 308.358,349.784C315.16,334.036 322.119,317.764 318.927,300.444C316.05,284.958 307.887,270.569 299.934,256.599C295.958,249.64 291.877,242.472 288.58,235.304C274.61,205.115 281.779,174.297 288.737,144.473C292.348,128.934 296.115,112.819 296.9,96.86L299.306,96.965C298.522,113.132 294.754,129.352 291.092,144.997C283.924,175.762 277.174,204.801 290.778,234.258C294.022,241.321 298.103,248.489 302.027,255.396C310.033,269.471 318.352,284.068 321.282,299.974C324.63,318.024 317.462,334.664 310.556,350.726C310.033,351.93 309.509,353.132 309.038,354.284C299.254,377.202 292.871,395.252 299.306,418.902C302.237,429.522 306.475,439.936 310.608,449.98C315.108,460.968 319.764,472.322 322.747,484.094C328.502,507.222 319.137,522.866 309.195,539.504C302.498,550.7 295.487,562.368 293.551,576.704Z" transform="rotate(77.479 302.545 336.783)" fill="#2B9DF5"/>
<path d="M301.732,585.083L299.325,585.029C299.587,571.321 307.435,561.067 315.022,551.125C316.539,549.137 318.109,547.043 319.626,545.003C330.509,529.935 333.282,518.005 329.829,500.843C327.16,487.553 322.451,474.525 317.847,461.969C314.498,452.759 311.045,443.237 308.377,433.663C301.366,408.287 305.708,389.451 314.341,368.941C315.388,366.533 316.487,364.021 317.533,361.615C323.498,348.063 329.619,334.093 328.939,319.287C328.05,299.875 318.527,281.144 309.371,263.04C304.767,253.988 300.424,245.408 297.075,236.775C285.564,207.056 291.686,176.552 297.598,147.042C300.738,131.398 303.982,115.231 304.557,99.325L306.964,99.429C306.389,115.545 303.092,131.817 299.953,147.566C294.093,176.709 288.076,206.899 299.325,235.937C302.621,244.518 306.964,252.994 311.516,261.994C320.829,280.306 330.404,299.299 331.346,319.235C332.079,334.617 325.8,348.901 319.731,362.661C318.684,365.069 317.585,367.527 316.591,369.987C307.906,390.601 303.929,408.339 310.731,433.139C313.347,442.609 316.8,452.079 320.149,461.235C324.753,473.897 329.567,486.979 332.235,500.477C335.741,518.163 332.759,531.085 321.614,546.521C320.097,548.613 318.527,550.655 317.01,552.695C309.632,562.165 301.993,572.107 301.732,585.083Z" transform="rotate(77.479 312.102 342.203)" fill="#2B9DF5"/>
<path d="M313.384,595.443L310.977,595.443C311.081,582.259 318.145,573.729 325.627,564.625C327.563,562.271 329.603,559.813 331.435,557.301C342.422,542.441 345.038,531.559 341.742,514.187C339.126,500.479 334.626,486.927 330.231,473.899C327.04,464.377 323.743,454.487 321.18,444.599C315.372,421.997 316.994,403.997 326.935,380.295C327.877,378.045 328.871,375.743 329.865,373.441C335.673,360.151 341.69,346.391 341.01,331.741C340.12,311.597 330.755,291.715 321.755,272.513C317.255,262.885 313.017,253.834 309.721,244.73C298.786,214.383 304.28,183.199 309.616,153.114C312.337,137.731 315.163,121.878 315.79,106.233L318.197,106.338C317.569,122.139 314.744,138.097 312.023,153.585C306.739,183.408 301.297,214.226 312.023,243.997C315.267,252.996 319.505,262.048 324.005,271.571C333.109,291.035 342.527,311.125 343.469,331.741C344.149,346.967 338.027,360.989 332.115,374.539C331.121,376.843 330.127,379.091 329.185,381.341C319.296,404.783 317.779,421.787 323.534,444.075C326.046,453.913 329.342,463.697 332.533,473.219C336.929,486.351 341.481,499.955 344.149,513.821C347.55,531.767 344.724,543.539 333.423,558.871C331.539,561.435 329.499,563.893 327.511,566.299C320.29,574.881 313.541,583.095 313.384,595.443Z" transform="rotate(77.479 324.454 350.839)" fill="#2B9DF5"/>
<path d="M323.99,603.756L321.583,603.704C321.897,590.57 328.804,582.042 336.129,572.99C338.013,570.688 339.948,568.282 341.78,565.77C352.61,550.962 355.122,540.132 351.773,522.656C349.157,509 344.919,495.502 340.89,482.422C337.908,472.898 334.873,463.01 332.414,453.12C326.816,430.466 328.281,413.042 337.803,388.87C338.797,386.358 339.896,383.742 340.943,381.178C346.384,367.994 352.035,354.39 351.355,340.368C350.413,320.432 341.413,300.288 332.676,280.772C328.333,271.093 324.252,261.989 321.113,252.885C310.282,221.701 315.619,189.261 320.799,157.92C323.153,143.584 325.612,128.777 326.449,114.284L328.856,114.441C327.967,129.039 325.56,143.95 323.153,158.339C318.026,189.418 312.741,221.544 323.362,252.152C326.449,261.152 330.53,270.203 334.873,279.83C343.716,299.504 352.82,319.91 353.761,340.314C354.442,354.86 348.686,368.726 343.14,382.172C342.041,384.788 340.995,387.3 340.053,389.812C330.74,413.46 329.327,430.466 334.769,452.546C337.175,462.33 340.262,472.166 343.192,481.688C347.274,494.822 351.512,508.426 354.128,522.186C357.633,540.394 355.017,551.748 343.716,567.182C341.884,569.694 339.896,572.154 338.013,574.508C331.001,583.194 324.304,591.46 323.99,603.756Z" transform="rotate(77.479 335.194 359.02)" fill="#2B9DF5"/>
<path d="M335.166,610.384L332.759,610.28C333.283,597.46 339.614,588.408 346.363,578.886C348.037,576.48 349.816,574.02 351.438,571.456C361.327,556.126 363.682,545.086 360.699,527.768C358.449,514.686 355.048,501.658 351.804,488.996C349.398,479.736 346.939,470.214 344.95,460.69C339.666,435.89 342.648,417.734 349.188,396.492C350.13,393.456 351.124,390.474 352.171,387.282C356.513,374.15 360.961,360.598 360.385,347.308C359.548,328.054 351.752,308.382 344.166,289.389C340.398,279.919 336.84,270.972 334.12,262.077C324.231,230.004 328.783,195.994 333.23,163.084C335.009,149.951 336.84,136.347 337.678,123.214L340.084,123.371C339.247,136.557 337.416,150.213 335.637,163.398C331.242,196.047 326.69,229.847 336.422,261.344C339.143,270.187 342.701,279.082 346.415,288.499C354.054,307.702 361.903,327.532 362.792,347.204C363.42,360.964 358.868,374.726 354.473,388.068C353.426,391.26 352.432,394.242 351.543,397.224C345.16,418.1 342.23,435.89 347.357,460.168C349.345,469.638 351.805,479.16 354.211,488.368C357.508,501.03 360.856,514.164 363.158,527.348C366.245,545.348 363.839,556.806 353.583,572.764C351.909,575.328 350.183,577.84 348.456,580.246C341.863,589.508 335.689,598.246 335.166,610.384Z" transform="rotate(77.479 346.313 366.799)" fill="#2B9DF5"/>
<path d="M348.858,617.283L346.451,616.969C348.23,603.419 353.358,593.949 359.27,583.013C360.474,580.763 361.782,578.409 363.037,576.001C371.043,560.619 372.979,548.533 370.467,529.645C368.95,518.343 366.909,506.937 364.921,495.897C363.09,485.693 361.206,475.073 359.741,464.609C356.602,442.005 359.793,421.965 363.979,400.043C364.45,397.637 364.921,395.229 365.392,392.823C368.322,378.121 371.357,362.895 369.368,348.035C367.223,331.972 362.514,316.014 357.91,300.527C355.608,292.731 353.201,284.673 351.213,276.772C342.37,241.978 345.562,205.039 348.597,169.355C349.591,157.845 350.585,145.968 351.16,134.509L353.567,134.614C352.992,146.177 351.997,158.054 351.003,169.565C347.969,205.091 344.829,241.821 353.567,276.197C355.555,284.097 357.962,292.103 360.264,299.899C364.869,315.438 369.63,331.501 371.775,347.773C373.816,363.103 370.729,378.487 367.746,393.399C367.276,395.805 366.805,398.211 366.334,400.619C362.2,422.333 359.009,442.163 362.096,464.399C363.561,474.811 365.444,485.381 367.276,495.583C369.264,506.623 371.304,518.081 372.822,529.435C375.385,548.847 373.397,561.351 365.13,577.205C363.875,579.665 362.567,582.019 361.363,584.269C355.608,594.889 350.585,604.151 348.858,617.283Z" transform="rotate(77.479 359.658 375.896)" fill="#2B9DF5"/>
<path d="M362.432,621.635L360.025,621.427C361.333,607.875 365.833,596.939 370.542,585.377C371.483,583.127 372.425,580.825 373.315,578.471C380.116,561.413 380.901,547.861 379.96,531.485C379.698,527.037 379.436,522.537 379.175,518.143C376.977,480.157 374.884,444.211 377.03,406.487C377.239,402.615 377.553,398.587 377.814,394.767C378.756,381.163 379.75,367.089 378.599,353.433C377.343,338.417 374.466,323.296 371.64,308.646C370.228,301.268 368.763,293.629 367.559,286.095C361.333,247.9 362.589,207.455 363.844,168.371C364.106,160.679 364.315,152.726 364.525,145.035L366.931,145.087C366.722,152.831 366.513,160.784 366.251,168.475C364.995,207.455 363.74,247.795 369.966,285.729C371.169,293.211 372.634,300.85 374.047,308.227C376.873,322.93 379.75,338.103 381.006,353.277C382.157,367.089 381.163,381.269 380.221,394.977C379.96,398.797 379.698,402.773 379.436,406.697C377.291,444.265 379.332,480.105 381.581,518.039C381.843,522.485 382.105,526.933 382.366,531.433C383.308,547.653 382.471,562.041 375.564,579.465C374.623,581.819 373.681,584.121 372.739,586.371C367.925,598.143 363.687,608.451 362.432,621.635Z" transform="rotate(77.479 371.355 383.335)" fill="#2B9DF5"/>
<path d="M374.428,625.121L372.021,624.963C372.911,610.157 376.73,597.181 380.759,583.473C381.23,581.955 381.649,580.437 382.12,578.867C386.358,564.323 386.933,550.247 387.509,535.335C387.561,533.453 387.666,531.517 387.718,529.581C387.98,523.929 388.241,518.331 388.503,512.733C390.02,480.397 391.433,449.841 389.026,417.977C387.195,393.387 386.096,368.377 384.997,344.204C384.317,329.188 383.637,313.648 382.8,298.422C382.224,288.01 381.596,277.441 380.968,267.134C378.771,230.718 376.521,192.994 376.207,156.211L378.614,156.211C378.928,192.941 381.178,230.613 383.375,267.029C384.003,277.284 384.631,287.906 385.207,298.318C386.044,313.596 386.724,329.135 387.404,344.152C388.451,368.325 389.549,393.335 391.433,417.873C393.84,449.895 392.427,480.503 390.91,512.943C390.648,518.541 390.386,524.139 390.125,529.789C390.02,531.725 389.968,533.661 389.916,535.545C389.34,550.561 388.764,564.793 384.422,579.653C383.951,581.223 383.532,582.739 383.061,584.257C379.085,597.809 375.318,610.627 374.428,625.121Z" transform="rotate(77.479 382.374 390.666)" fill="#2B9DF5"/>
<path d="M382.028,628.011L379.621,627.957C379.987,612.889 382.603,598.971 385.324,584.269C385.69,582.385 386.004,580.501 386.371,578.619C387.992,569.881 388.62,560.933 389.196,552.249C389.771,544.139 390.347,535.715 391.76,527.447C393.015,520.175 394.585,512.797 396.102,505.733C398.352,495.427 400.654,484.805 401.858,474.183C403.794,457.389 400.34,440.437 396.992,424.007C396.521,421.809 396.102,419.559 395.632,417.363L395.318,415.793C391.55,396.747 387.94,378.697 389.091,359.39C389.824,347.042 390.766,334.484 391.655,322.293C392.283,314.079 392.911,305.603 393.434,297.231C395.213,271.07 391.76,245.223 388.411,220.161C386.161,203.209 383.807,185.628 383.074,167.996L385.481,167.891C386.214,185.419 388.516,202.895 390.766,219.795C394.114,244.909 397.567,270.913 395.788,297.336C395.213,305.707 394.585,314.183 394.01,322.398C393.12,334.537 392.178,347.094 391.446,359.442C390.295,378.435 393.853,396.329 397.62,415.217L397.934,416.787C398.352,418.985 398.823,421.181 399.294,423.379C402.695,439.965 406.201,457.127 404.212,474.289C402.957,485.015 400.654,495.741 398.405,506.047C396.887,513.111 395.265,520.437 394.062,527.657C392.701,535.819 392.126,544.139 391.55,552.195C390.923,560.933 390.295,569.985 388.673,578.827C388.306,580.711 387.993,582.595 387.626,584.479C385.01,599.337 382.394,613.151 382.028,628.011Z" transform="rotate(77.479 392.206 397.951)" fill="#2B9DF5"/>
<path d="M388.451,632.525C388.399,617.247 389.916,601.969 391.434,587.213C391.643,585.225 391.852,583.237 392.009,581.249C392.585,575.651 392.794,569.947 393.003,564.453C393.474,553.099 393.945,541.327 397.346,529.869C399.334,523.067 401.95,516.421 404.462,509.933C408.124,500.621 411.839,490.993 413.827,480.999C417.019,464.571 411.735,447.775 406.555,431.555C405.718,428.939 404.933,426.375 404.148,423.811C403.572,421.875 402.997,419.993 402.369,418.057C397.084,400.999 391.643,383.367 394.154,365.002C395.776,353.282 398.34,341.614 400.852,330.26C402.526,322.569 404.305,314.668 405.717,306.82C410.479,280.502 405.037,255.911 399.282,229.959C395.881,214.629 392.375,198.775 391.224,182.66L393.631,182.503C394.782,198.409 398.235,214.21 401.636,229.436C407.183,254.498 412.938,280.45 408.072,307.291C406.659,315.191 404.88,323.144 403.206,330.836C400.695,342.085 398.131,353.753 396.561,365.368C394.102,383.263 399.491,400.581 404.671,417.377C405.247,419.313 405.874,421.249 406.45,423.131C407.235,425.695 408.02,428.259 408.857,430.875C414.089,447.409 419.478,464.467 416.182,481.523C414.194,491.725 410.374,501.457 406.712,510.875C404.2,517.311 401.636,523.903 399.648,530.601C396.352,541.745 395.881,552.837 395.41,564.611C395.201,570.157 394.939,575.859 394.416,581.563C394.207,583.551 393.997,585.539 393.84,587.527C392.271,602.909 390.806,617.403 390.91,632.577L388.451,632.525Z" transform="rotate(77.479 402.821 407.54)" fill="#2B9DF5"/>
<path d="M397.885,638.564C397.676,622.606 398.199,607.014 398.67,595.242C398.879,590.01 398.827,584.62 398.722,578.916C398.513,566.308 398.304,553.278 401.652,541.664C404.268,532.508 408.925,524.24 413.372,516.182C417.192,509.38 421.116,502.318 423.732,494.836C430.325,476.104 423.47,457.948 416.826,440.368L415.831,437.7C414.523,434.194 413.111,430.74 411.593,427.026C404.896,410.492 397.937,393.383 399.978,375.751C401.443,362.932 405.995,350.531 410.39,338.55C412.692,332.219 415.099,325.678 416.983,319.243C424.622,292.925 417.506,269.223 409.919,244.161C405.576,229.772 401.077,214.861 399.612,199.373L402.018,199.164C403.483,214.39 407.931,229.197 412.221,243.481C419.546,267.81 427.133,292.925 419.285,319.975C417.401,326.463 414.994,333.056 412.64,339.439C408.297,351.316 403.797,363.56 402.385,376.117C400.449,393.122 407.251,409.916 413.843,426.188C415.361,429.904 416.773,433.41 418.081,436.914L419.075,439.584C425.877,457.53 432.888,476.104 426.034,495.724C423.314,503.364 419.337,510.532 415.465,517.438C411.07,525.34 406.466,533.502 403.954,542.396C400.71,553.646 400.92,566.516 401.129,578.916C401.234,584.41 401.286,590.062 401.077,595.398C400.606,607.17 400.03,622.71 400.292,638.564L397.885,638.564Z" transform="rotate(77.479 413.34 418.864)" fill="#2B9DF5"/>
<path d="M407.407,646.707C407.354,631.325 407.407,615.681 407.407,600.507L407.407,592.763C407.407,589.833 407.354,586.851 407.354,583.973C407.145,567.597 406.936,552.109 414.784,536.727C417.296,531.809 420.54,527.151 423.627,522.705C428.44,515.797 433.411,508.629 435.765,500.363C440.945,482.311 433.411,464.783 426.086,447.831L424.935,445.163C423.627,442.181 422.266,439.041 420.906,436.059C414.994,422.927 408.872,409.322 407.616,395.091C406.256,378.923 412.953,363.907 419.441,349.414C420.644,346.745 421.848,343.972 422.999,341.304C431.213,321.997 435.347,304.888 428.911,284.43C426.452,276.634 423.365,269.099 420.435,261.827C414.941,248.38 409.29,234.515 407.616,218.87L410.023,218.609C411.645,233.939 417.034,247.02 422.685,260.885C425.667,268.21 428.754,275.744 431.266,283.697C437.91,304.888 433.672,322.416 425.249,342.246C424.098,344.966 422.842,347.739 421.638,350.408C415.307,364.639 408.715,379.342 410.023,394.881C411.226,408.747 417.243,422.141 423.103,435.065C424.464,438.099 425.876,441.187 427.185,444.221L428.336,446.889C435.451,463.423 443.561,482.155 438.12,501.043C435.661,509.677 430.533,517.001 425.615,524.117C422.58,528.511 419.389,533.117 416.929,537.877C409.343,552.685 409.552,567.911 409.761,583.973C409.814,586.851 409.814,589.833 409.814,592.763L409.814,600.507C409.761,615.629 409.761,631.273 409.814,646.655L407.407,646.707Z" transform="rotate(77.479 423.594 432.658)" fill="#2B9DF5"/>
</svg>
