<svg width="374" height="412" viewBox="0 0 374 412" fill="none" xmlns="http://www.w3.org/2000/svg" xmlns:xlink="http://www.w3.org/1999/xlink">
<path d="M127.652,290.12C125.227,281.418 120.011,277.066 113.998,272.082C112.503,270.854 110.942,269.558 109.381,268.162C99.415,259.292 100.079,250.256 100.943,238.796C101.042,237.466 101.142,236.072 101.242,234.644C101.64,228.43 102.371,222.052 103.135,215.308C105.56,194.081 108.052,172.156 100.179,153.718C93.202,137.407 93.933,118.339 94.664,99.901C94.863,94.686 95.063,89.736 95.096,84.853C95.162,67.545 98.053,57.047 106.524,43.294C108.55,40.005 110.676,36.783 112.769,33.627C120.111,22.532 127.021,12.067 129.778,-0.988L131.273,-0.656C128.449,12.665 121.141,23.761 114.032,34.458C111.972,37.58 109.813,40.836 107.819,44.091C99.514,57.546 96.691,67.844 96.624,84.819C96.591,89.736 96.392,94.686 96.192,99.901C95.495,118.173 94.731,137.042 101.574,153.054C109.613,171.89 107.089,194.014 104.663,215.442C103.899,222.152 103.169,228.498 102.77,234.676C102.67,236.104 102.571,237.5 102.471,238.828C101.607,250.29 100.976,258.562 110.377,266.934C111.939,268.328 113.467,269.59 114.962,270.82C121.207,276.002 126.589,280.454 129.113,289.656L127.652,290.12Z" transform="rotate(77.479 112.743 144.566)" fill="#2B9DF5"/>
<path d="M130.017,295.219C128.256,286.449 124.104,280.635 119.254,273.925C118.324,272.629 117.327,271.267 116.364,269.839C109.52,260.007 109.62,251.269 109.786,240.241C109.819,238.811 109.819,237.349 109.819,235.855C109.819,230.241 109.919,224.493 110.019,218.913C110.351,198.283 110.683,176.989 107.228,156.592C104.305,139.45 103.009,121.544 101.78,104.237C101.448,99.553 101.082,94.736 100.717,90.018C99.521,74.737 102.112,64.173 110.716,49.656C112.61,46.433 114.636,43.244 116.596,40.188C123.572,29.192 130.183,18.794 132.741,5.971L134.236,6.27C131.645,19.392 124.635,30.388 117.892,41.019C115.932,44.075 113.939,47.264 112.045,50.453C103.64,64.638 101.049,74.97 102.245,89.919C102.61,94.636 102.976,99.453 103.308,104.137C104.537,121.412 105.833,139.284 108.756,156.326C112.244,176.856 111.912,198.25 111.58,218.913C111.48,224.461 111.414,230.207 111.381,235.821C111.381,237.317 111.347,238.779 111.347,240.207C111.215,250.971 111.082,259.475 117.659,268.909C118.623,270.305 119.586,271.667 120.549,272.963C125.466,279.805 129.751,285.751 131.578,294.855L130.017,295.219Z" transform="rotate(77.479 117.339 150.595)" fill="#2B9DF5"/>
<path d="M132.031,300.257C131.134,291.121 128.31,283.181 125.32,274.777C124.855,273.481 124.39,272.185 123.958,270.891C120.869,261.987 120.371,253.449 119.839,244.413C119.673,241.789 119.54,239.099 119.308,236.375C118.909,231.723 118.51,227.039 118.112,222.489C116.185,200.929 114.391,180.565 114.989,159.104C115.055,157.045 115.122,154.985 115.221,152.925C115.52,144.953 115.853,136.681 114.989,128.741C114.258,121.964 112.298,115.32 110.438,108.909C109.142,104.457 107.78,99.839 106.85,95.222C102.963,76.187 112.099,60.905 120.935,46.156C127.081,35.891 133.426,25.293 135.585,13.367L137.08,13.633C134.888,25.825 128.476,36.555 122.264,46.92C113.162,62.101 104.591,76.452 108.345,94.89C109.275,99.474 110.604,104.025 111.899,108.444C113.793,114.921 115.786,121.665 116.517,128.575C117.381,136.614 117.049,144.953 116.75,152.959C116.683,155.018 116.584,157.078 116.517,159.138C115.886,180.531 117.713,200.829 119.607,222.355C120.005,226.907 120.437,231.591 120.802,236.241C121.035,238.965 121.201,241.689 121.334,244.315C121.866,253.251 122.364,261.689 125.387,270.359C125.852,271.655 126.317,272.949 126.749,274.245C129.772,282.749 132.596,290.757 133.526,300.091L132.031,300.257Z" transform="rotate(77.479 121.505 156.812)" fill="#2B9DF5"/>
<path d="M133.862,305.134C133.796,281.116 132.5,260.02 130.009,242.446C128.913,234.806 126.986,227.198 125.092,219.824C123.498,213.512 121.837,206.967 120.707,200.423C118.481,187.5 120.308,175.209 122.235,164.711C122.634,162.552 123.066,160.393 123.531,158.1C125.391,148.965 127.285,139.563 126.056,130.66C125.092,123.817 121.77,117.705 118.581,111.758C116.82,108.503 114.993,105.114 113.565,101.626C106.157,83.621 115.658,67.11 124.86,51.164C130.574,41.265 136.454,31.033 138.181,20.602L139.709,20.834C137.948,31.531 132.002,41.896 126.222,51.928C116.787,68.273 107.917,83.72 115.026,101.028C116.422,104.45 118.249,107.772 119.976,110.994C123.232,117.04 126.62,123.252 127.617,130.395C128.913,139.53 126.953,149.098 125.092,158.366C124.627,160.658 124.195,162.818 123.797,164.944C121.903,175.308 120.076,187.467 122.268,200.124C123.398,206.602 125.059,213.113 126.654,219.392C128.547,226.8 130.474,234.474 131.603,242.18C134.128,259.854 135.424,281.016 135.49,305.1L133.862,305.134Z" transform="rotate(77.479 125.31 162.867)" fill="#2B9DF5"/>
<path d="M136.368,309.26L134.84,309.128C135.67,298.53 136.667,288.066 137.63,278.366C137.896,275.676 138.261,272.884 138.593,270.194C139.856,260.494 141.151,250.428 138.926,241.258C137.265,234.382 134.441,227.772 131.684,221.393C129.325,215.879 126.867,210.198 125.172,204.318C121.385,191.263 124.774,179.403 128.362,166.846L128.395,166.746C129.092,164.354 129.89,161.829 130.787,159.172C133.943,149.505 137.53,138.542 135.537,129.373C134.142,123.028 129.757,118.244 125.505,113.627C123.146,111.069 120.721,108.411 118.794,105.521C110.921,93.661 115.472,82.234 121.751,69.643C123.412,66.288 125.206,62.966 126.933,59.777C132.68,49.113 138.095,39.047 139.856,26.922L141.384,27.155C139.59,39.546 134.109,49.744 128.295,60.541C126.568,63.73 124.807,67.052 123.146,70.374C117.1,82.566 112.682,93.529 120.09,104.724C121.95,107.514 124.342,110.139 126.667,112.663C131.052,117.447 135.604,122.397 137.065,129.141C139.158,138.741 135.504,149.903 132.282,159.736C131.418,162.394 130.587,164.886 129.923,167.244L129.89,167.344C126.368,179.669 123.046,191.329 126.701,203.953C128.395,209.733 130.82,215.38 133.145,220.862C135.903,227.306 138.793,233.984 140.454,240.994C142.746,250.428 141.417,260.626 140.155,270.492C139.789,273.316 139.457,275.974 139.191,278.632C138.195,288.232 137.198,298.664 136.368,309.26Z" transform="rotate(77.479 128.158 168.091)" fill="#2B9DF5"/>
<path d="M136.849,314.9L135.321,314.7C136.782,303.106 139.307,291.844 141.765,281.346C142.297,279.088 142.895,276.796 143.559,274.37C146.317,264.04 149.406,252.312 146.117,242.48C143.991,236.2 140.403,230.487 136.882,224.972C133.859,220.188 130.703,215.238 128.544,209.89C123.494,197.565 127.879,185.44 132.132,173.713C132.497,172.717 132.862,171.72 133.228,170.723C134.092,168.298 135.221,165.574 136.384,162.717C140.569,152.585 145.752,139.995 143.194,130.494C141.533,124.414 136.218,120.86 131.068,117.405C128.178,115.445 125.155,113.452 122.863,110.993C112.897,100.429 118.877,87.673 124.159,76.444C125.72,73.155 127.348,69.9 128.942,66.777C134.324,56.213 139.407,46.214 140.968,34.288L142.496,34.487C140.902,46.679 135.753,56.778 130.304,67.475C128.71,70.598 127.049,73.853 125.521,77.109C120.438,87.905 114.691,100.164 123.926,109.964C126.119,112.289 128.909,114.149 131.866,116.142C137.247,119.73 142.795,123.484 144.622,130.095C147.346,140.094 142.031,152.95 137.779,163.315C136.616,166.172 135.487,168.83 134.656,171.255C134.291,172.251 133.925,173.248 133.56,174.278C129.407,185.706 125.155,197.532 129.972,209.325C132.098,214.574 135.221,219.457 138.211,224.175C141.765,229.756 145.42,235.57 147.579,242.014C151.034,252.28 147.845,264.238 145.054,274.802C144.423,277.228 143.792,279.52 143.293,281.746C140.835,292.176 138.31,303.372 136.849,314.9Z" transform="rotate(77.479 133.289 174.593)" fill="#2B9DF5"/>
<path d="M140.431,321.23L138.903,321.03C140.531,309.238 143.753,298.608 147.773,285.95C148.437,283.89 149.168,281.732 149.999,279.472C153.885,268.444 158.27,255.986 154.218,245.754C151.859,239.774 147.64,234.791 143.587,229.941C140.033,225.722 136.378,221.37 133.854,216.287C127.874,204.262 133.222,191.339 137.94,179.911C138.471,178.582 139.036,177.287 139.534,175.991C140.498,173.566 141.793,170.776 143.155,167.852C148.205,156.989 154.517,143.435 151.46,133.768C149.534,127.656 143.554,125.031 137.807,122.474C134.518,121.012 131.163,119.517 128.572,117.424C117.709,108.488 123.954,94.635 128.538,84.503L128.937,83.606C130.399,80.383 131.927,77.194 133.455,74.105C138.571,63.574 143.388,53.641 144.916,41.848L146.444,42.047C144.916,54.073 140.033,64.139 134.85,74.769C133.355,77.859 131.827,81.015 130.365,84.237L129.967,85.134C125.349,95.366 119.635,108.056 129.568,116.228C131.993,118.221 135.116,119.617 138.438,121.078C144.517,123.769 150.829,126.56 152.955,133.337C156.178,143.602 149.733,157.421 144.584,168.55C143.222,171.473 141.926,174.231 140.996,176.623C140.464,177.918 139.933,179.214 139.401,180.542C134.784,191.638 129.601,204.229 135.249,215.623C137.674,220.506 141.295,224.792 144.783,228.944C148.936,233.861 153.188,238.977 155.646,245.19C159.898,255.952 155.414,268.708 151.46,279.97C150.663,282.23 149.899,284.356 149.268,286.416C145.248,299.006 142.059,309.57 140.431,321.23Z" transform="rotate(77.479 139.956 181.539)" fill="#2B9DF5"/>
<path d="M146.717,327.295L145.189,327.129C146.551,314.605 150.537,303.443 154.756,291.651L154.789,291.517C155.454,289.657 156.184,287.731 156.982,285.703C161.134,274.941 166.283,261.519 161.998,250.789C159.639,244.876 155.155,240.192 150.836,235.674C147.049,231.688 143.129,227.602 140.504,222.618C134.226,210.593 139.94,197.338 144.989,185.644C145.554,184.349 146.086,183.086 146.617,181.857C147.614,179.465 148.976,176.675 150.404,173.718C155.786,162.623 162.496,148.803 159.307,138.87C157.314,132.592 151.102,130.366 145.122,128.207C141.667,126.944 138.113,125.682 135.389,123.622C124.426,115.35 130.605,101.431 135.09,91.266L135.721,89.804C137.116,86.615 138.611,83.459 140.039,80.436C145.022,69.872 149.706,59.873 151.334,48.179L152.862,48.378C151.201,60.304 146.451,70.403 141.435,81.1C140.006,84.123 138.511,87.279 137.149,90.435L136.518,91.897C132.233,101.597 126.353,114.885 136.319,122.393C138.843,124.287 142.166,125.482 145.654,126.778C151.999,129.07 158.543,131.462 160.769,138.438C164.124,148.969 157.281,163.088 151.766,174.416C150.338,177.339 149.009,180.097 148.012,182.455C147.481,183.684 146.949,184.98 146.384,186.242C141.468,197.604 135.92,210.493 141.867,221.888C144.358,226.671 148.212,230.724 151.932,234.611C156.351,239.229 160.935,244.012 163.426,250.225C167.944,261.519 162.662,275.239 158.443,286.269C157.679,288.295 156.915,290.221 156.284,292.049L156.251,292.181C151.999,303.875 148.045,314.937 146.717,327.295Z" transform="rotate(77.479 147.204 187.737)" fill="#2B9DF5"/>
<path d="M153.439,333.185L151.911,333.019C153.24,320.329 157.492,309.035 161.578,298.105C162.209,296.445 162.874,294.717 163.604,292.923C168.056,281.727 173.072,269.071 168.787,258.109C166.428,252.029 162.043,247.079 157.824,242.262C154.137,238.043 150.316,233.725 147.758,228.576C141.646,216.351 147.293,203.229 152.243,191.635C152.741,190.439 153.24,189.276 153.738,188.147C154.735,185.755 156.063,183.031 157.459,180.141C162.707,169.278 169.219,155.79 166.196,145.824C164.302,139.545 158.09,136.589 152.077,133.765C148.688,132.171 145.167,130.51 142.543,128.251C132.178,119.381 137.659,106.458 142.044,96.06C142.31,95.462 142.543,94.864 142.808,94.266C144.137,91.077 145.533,87.921 146.928,84.898C151.712,74.201 156.229,64.102 157.924,52.475L159.452,52.708C157.724,64.567 153.173,74.766 148.356,85.563C146.994,88.619 145.599,91.742 144.27,94.897C144.038,95.495 143.772,96.093 143.506,96.691C139.088,107.122 134.072,118.949 143.573,127.121C146.031,129.247 149.32,130.775 152.775,132.403C159.086,135.393 165.598,138.449 167.724,145.392C170.913,155.923 164.236,169.709 158.887,180.805C157.492,183.662 156.196,186.386 155.2,188.745C154.735,189.907 154.203,191.07 153.705,192.266C148.855,203.528 143.373,216.317 149.187,227.911C151.645,232.861 155.399,237.113 159.02,241.266C163.339,246.182 167.79,251.265 170.248,257.577C174.733,269.105 169.584,282.093 165.066,293.521C164.368,295.315 163.671,297.009 163.073,298.671C158.954,309.499 154.735,320.695 153.439,333.185Z" transform="rotate(77.479 154.295 192.831)" fill="#2B9DF5"/>
<path d="M159.487,339.092L157.959,338.926C159.221,327.332 162.975,317.366 167.759,305.54C168.323,304.178 168.888,302.782 169.486,301.388C174.037,290.492 179.22,278.166 175.134,266.806C172.841,260.428 168.656,254.98 164.603,249.73C161.081,245.146 157.427,240.395 154.969,235.014C149.189,222.357 154.736,209.268 159.62,197.774C160.018,196.877 160.384,195.947 160.749,195.05C161.746,192.691 163.008,190.067 164.337,187.276C169.386,176.745 175.632,163.657 172.775,153.724C170.848,146.98 164.669,142.927 158.723,138.974C155.501,136.848 152.145,134.655 149.621,132.064C139.854,122.198 144.737,109.707 148.989,98.678L149.621,97.083C150.85,93.894 152.145,90.738 153.408,87.682C157.859,76.852 162.078,66.587 163.673,54.96L165.201,55.159C163.573,66.986 159.354,77.317 154.836,88.247C153.574,91.303 152.278,94.459 151.049,97.615L150.418,99.209C146.099,110.305 141.648,121.799 150.684,130.968C153.109,133.426 156.231,135.486 159.553,137.678C165.766,141.764 172.144,145.983 174.237,153.292C177.26,163.823 170.848,177.21 165.699,187.941C164.37,190.698 163.108,193.322 162.145,195.648C161.779,196.545 161.38,197.442 160.982,198.372C155.999,210.165 150.816,222.324 156.331,234.383C158.723,239.598 162.311,244.282 165.799,248.8C169.918,254.182 174.203,259.73 176.562,266.308C180.847,278.2 175.565,290.856 170.881,301.986C170.283,303.38 169.719,304.776 169.154,306.138C164.47,317.832 160.749,327.664 159.487,339.092Z" transform="rotate(77.479 161.038 197.026)" fill="#2B9DF5"/>
<path d="M166.799,346.138L165.271,345.972C166.334,336.604 170.487,327.236 174.507,318.168C181.416,302.588 187.928,287.87 180.785,272.522C178.626,267.906 175.703,263.454 172.879,259.168C168.627,252.757 164.241,246.113 162.215,238.505C159.059,226.679 164.441,214.487 169.191,203.757C169.922,202.129 170.587,200.568 171.251,199.04C171.949,197.379 172.746,195.618 173.61,193.758C178.194,183.725 183.875,171.234 180.054,161.168C177.596,154.724 172.281,149.94 167.098,145.322C163.544,142.133 159.856,138.844 157.132,135.024C149.326,124.061 153.545,112.102 157.597,100.542L158.229,98.748C159.192,95.957 160.222,93.167 161.218,90.443C165.271,79.413 169.092,68.982 170.454,57.322L171.982,57.488C170.587,69.314 166.733,79.812 162.647,90.941C161.65,93.632 160.62,96.455 159.657,99.213L159.026,101.007C155.073,112.202 150.987,123.762 158.362,134.061C160.986,137.748 164.607,141.004 168.095,144.126C173.377,148.877 178.858,153.76 181.45,160.571C185.503,171.234 179.656,184.057 174.972,194.355C174.141,196.216 173.344,197.943 172.646,199.604C171.982,201.166 171.317,202.694 170.587,204.355C165.936,214.886 160.654,226.812 163.677,238.107C165.637,245.481 169.955,252.026 174.141,258.338C176.998,262.656 179.955,267.142 182.147,271.892C189.589,287.87 182.612,303.584 175.902,318.798C171.949,327.734 167.829,337.004 166.799,346.138Z" transform="rotate(77.479 169.052 201.73)" fill="#2B9DF5"/>
<path d="M174.178,353.934L172.65,353.768C173.779,344.334 178.065,335.498 182.217,326.994C188.762,313.506 194.974,300.75 189.526,285.9C187.4,280.152 184.376,274.672 181.42,269.39C177.932,263.144 174.311,256.666 172.185,249.623C168.232,236.568 173.281,224.542 178.164,212.882L178.297,212.583C179.194,210.423 180.224,208.164 181.32,205.806C185.705,196.238 190.688,185.409 189.26,175.409C188.031,166.639 181.885,159.43 175.972,152.454C173.58,149.63 171.288,146.94 169.328,144.182C157.103,126.908 163.747,107.042 170.158,87.808C173.281,78.406 176.537,68.706 177.367,59.67L178.895,59.803C178.032,69.038 174.776,78.838 171.62,88.306C165.308,107.142 158.797,126.642 170.59,143.285C172.517,146.009 174.743,148.634 177.135,151.458C183.214,158.6 189.492,166.008 190.788,175.177C192.25,185.641 187.2,196.703 182.715,206.437C181.653,208.796 180.623,211.021 179.726,213.147L179.593,213.446C174.809,224.841 169.859,236.601 173.68,249.125C175.773,256.002 179.327,262.38 182.782,268.558C185.772,273.908 188.861,279.422 190.987,285.268C196.668,300.716 190.024,314.37 183.612,327.558C179.493,336.03 175.274,344.732 174.178,353.934Z" transform="rotate(77.479 177.815 206.803)" fill="#2B9DF5"/>
<path d="M179.561,359.917L178.032,359.717C179.262,350.117 183.647,341.911 187.899,333.973C194.244,322.079 200.257,310.817 195.54,295.869C193.58,289.689 190.723,283.677 187.965,277.897C184.71,271.053 181.321,263.977 179.361,256.469C176.006,243.646 179.992,232.451 185.142,220.193C185.972,218.233 186.869,216.24 187.799,214.147C192.118,204.513 196.603,194.547 195.44,184.481C194.31,174.781 188.397,166.11 182.683,157.706C180.325,154.251 178.099,150.995 176.205,147.673C165.276,128.671 170.79,108.872 176.072,89.737C178.763,80.07 181.521,70.071 182.218,60.171L183.746,60.271C183.049,70.303 180.258,80.402 177.534,90.136C172.086,109.835 166.904,128.405 177.501,146.876C179.394,150.165 181.587,153.387 183.912,156.809C189.726,165.346 195.772,174.183 196.935,184.249C198.164,194.746 193.38,205.377 189.161,214.745C188.231,216.838 187.334,218.798 186.504,220.758C181.288,233.182 177.567,243.68 180.79,256.038C182.716,263.413 186.072,270.421 189.294,277.199C192.085,283.045 194.942,289.091 196.968,295.371C201.885,310.917 195.739,322.445 189.228,334.669C185.075,342.509 180.756,350.583 179.561,359.917Z" transform="rotate(77.479 184.325 210.044)" fill="#2B9DF5"/>
<path d="M184.889,365.621L183.361,365.423C184.624,355.987 189.142,348.481 193.494,341.205C199.639,330.939 205.42,321.273 201.931,307.187C200.104,299.813 197.148,292.671 194.324,285.761C191.666,279.315 188.942,272.671 187.082,265.829C182.863,250.381 187.215,238.156 193.327,223.804C193.66,223.04 193.959,222.309 194.291,221.545C198.609,211.546 203.028,201.215 201.001,190.219C199.174,180.386 193.992,171.25 188.942,162.38C186.418,157.962 183.826,153.411 181.734,148.86C172.864,129.691 177.415,110.125 181.833,91.189C184.125,81.323 186.517,71.091 187.016,60.959L188.544,61.025C188.045,71.29 185.654,81.589 183.328,91.521C178.777,111.055 174.492,129.492 183.129,148.195C185.188,152.68 187.78,157.231 190.271,161.616C195.354,170.552 200.636,179.821 202.496,189.92C204.622,201.381 200.071,211.945 195.686,222.143C195.354,222.907 195.022,223.672 194.723,224.402C188.51,238.953 184.458,250.414 188.544,265.429C190.404,272.173 193.095,278.785 195.719,285.163C198.576,292.139 201.533,299.347 203.426,306.821C207.081,321.505 201.134,331.439 194.822,342.003C190.57,349.111 186.119,356.519 184.889,365.621Z" transform="rotate(77.479 190.6 213.29)" fill="#2B9DF5"/>
<path d="M190.084,370.94L188.556,370.908C188.722,362.204 193.705,355.692 198.522,349.38C199.485,348.118 200.482,346.79 201.445,345.494C208.355,335.926 210.116,328.352 207.923,317.456C206.229,309.018 203.239,300.746 200.315,292.774C198.189,286.926 195.997,280.88 194.303,274.802C189.851,258.689 192.608,246.73 198.09,233.708C198.754,232.18 199.452,230.585 200.116,229.057C203.903,220.453 207.79,211.583 207.358,202.182C206.794,189.857 200.747,177.964 194.934,166.47C192.01,160.723 189.253,155.275 187.127,149.793C179.819,130.924 183.705,111.557 187.459,92.821C189.452,82.888 191.512,72.623 191.878,62.524L193.406,62.59C193.04,72.822 190.947,83.154 188.954,93.153C185.233,111.657 181.413,130.825 188.556,149.262C190.648,154.71 193.406,160.092 196.296,165.806C202.209,177.433 208.288,189.492 208.886,202.148C209.351,211.915 205.365,220.984 201.511,229.721C200.847,231.249 200.149,232.811 199.518,234.372C194.004,247.461 191.479,258.723 195.798,274.47C197.459,280.482 199.651,286.494 201.777,292.308C204.701,300.348 207.757,308.652 209.451,317.224C211.677,328.452 209.783,336.658 202.707,346.458C201.744,347.786 200.747,349.082 199.784,350.378C195.1,356.39 190.25,362.702 190.084,370.94Z" transform="rotate(77.479 196.668 216.732)" fill="#2B9DF5"/>
<path d="M197.482,377.519L195.954,377.519C196.02,369.147 200.505,363.731 205.256,357.951C206.485,356.457 207.78,354.895 208.943,353.301C215.919,343.867 217.58,336.957 215.487,325.927C213.826,317.223 210.97,308.619 208.179,300.347C206.153,294.301 204.06,288.023 202.432,281.745C198.744,267.393 199.774,255.966 206.086,240.917C206.684,239.489 207.315,238.027 207.947,236.565C211.634,228.127 215.454,219.39 215.022,210.089C214.458,197.299 208.511,184.675 202.797,172.483C199.94,166.371 197.25,160.624 195.157,154.843C188.214,135.576 191.702,115.776 195.09,96.675C196.818,86.908 198.612,76.842 199.01,66.909L200.538,66.976C200.14,77.008 198.346,87.141 196.618,96.974C193.263,115.909 189.808,135.476 196.618,154.378C198.678,160.092 201.369,165.839 204.226,171.885C210.006,184.243 215.986,197 216.584,210.089C217.016,219.756 213.129,228.659 209.375,237.263C208.744,238.724 208.113,240.153 207.515,241.581C201.236,256.464 200.273,267.261 203.927,281.413C205.521,287.657 207.614,293.869 209.641,299.915C212.431,308.255 215.321,316.891 217.016,325.695C219.175,337.089 217.381,344.563 210.205,354.297C209.01,355.925 207.714,357.487 206.452,359.015C201.867,364.463 197.582,369.679 197.482,377.519Z" transform="rotate(77.479 204.511 222.214)" fill="#2B9DF5"/>
<path d="M204.217,382.798L202.688,382.764C202.888,374.426 207.273,369.01 211.924,363.264C213.12,361.802 214.349,360.274 215.512,358.68C222.388,349.278 223.983,342.402 221.857,331.306C220.196,322.636 217.505,314.064 214.947,305.76C213.053,299.714 211.126,293.434 209.565,287.156C206.011,272.772 206.941,261.709 212.987,246.361C213.618,244.767 214.316,243.106 214.98,241.478C218.435,233.107 222.023,224.469 221.591,215.566C220.993,202.909 215.279,190.12 209.731,177.728C206.974,171.583 204.383,165.802 202.39,160.022C195.513,140.223 198.901,119.626 202.19,99.727C203.685,90.625 205.246,81.224 205.778,72.022L207.306,72.121C206.741,81.39 205.213,90.857 203.685,99.993C200.43,119.726 197.074,140.123 203.818,159.557C205.778,165.271 208.369,171.018 211.126,177.13C216.741,189.621 222.521,202.577 223.119,215.533C223.551,224.768 219.897,233.572 216.375,242.109C215.678,243.77 215.013,245.365 214.415,246.959C208.502,261.975 207.605,272.772 211.06,286.79C212.588,293.004 214.548,299.248 216.408,305.294C219,313.632 221.691,322.27 223.352,331.006C225.577,342.568 223.916,349.776 216.741,359.576C215.578,361.17 214.316,362.732 213.12,364.228C208.668,369.742 204.416,374.99 204.217,382.798Z" transform="rotate(77.479 211.33 227.409)" fill="#2B9DF5"/>
<path d="M211.312,387.005L209.784,386.939C210.116,378.799 214.136,373.053 218.421,367.007C219.484,365.477 220.614,363.917 221.644,362.289C227.922,352.555 229.417,345.545 227.524,334.549C226.095,326.245 223.936,317.973 221.876,309.933C220.348,304.053 218.787,298.007 217.524,291.961C214.169,276.216 216.063,264.688 220.215,251.201C220.813,249.274 221.444,247.38 222.109,245.354C224.866,237.016 227.69,228.412 227.324,219.974C226.793,207.749 221.843,195.258 217.026,183.199C214.634,177.186 212.375,171.505 210.648,165.858C204.369,145.494 207.259,123.901 210.083,103.005C211.212,94.667 212.375,86.03 212.907,77.691L214.435,77.791C213.903,86.163 212.741,94.833 211.611,103.205C208.821,123.934 205.93,145.394 212.109,165.393C213.837,171.007 216.096,176.654 218.454,182.634C223.305,194.826 228.288,207.416 228.852,219.907C229.251,228.644 226.361,237.381 223.57,245.852C222.906,247.879 222.275,249.772 221.71,251.666C217.657,264.921 215.797,276.216 219.052,291.629C220.315,297.643 221.876,303.689 223.404,309.535C225.497,317.575 227.623,325.913 229.085,334.285C231.045,345.711 229.517,352.987 223.006,363.119C221.943,364.747 220.846,366.341 219.75,367.869C215.564,373.749 211.644,379.297 211.312,387.005Z" transform="rotate(77.479 218.389 232.348)" fill="#2B9DF5"/>
<path d="M220.006,391.387L218.478,391.187C219.607,382.583 222.863,376.569 226.617,369.627C227.381,368.199 228.211,366.703 229.008,365.175C234.091,355.409 235.32,347.735 233.726,335.743C232.762,328.567 231.467,321.325 230.204,314.315C229.042,307.837 227.846,301.093 226.915,294.449C224.922,280.098 226.949,267.375 229.606,253.456C229.905,251.927 230.204,250.399 230.503,248.871C232.364,239.536 234.29,229.869 233.028,220.435C231.666,210.236 228.676,200.104 225.753,190.271C224.291,185.321 222.763,180.205 221.501,175.189C215.886,153.097 217.913,129.644 219.84,106.987C220.471,99.679 221.102,92.138 221.467,84.863L222.995,84.929C222.63,92.271 221.999,99.812 221.368,107.12C219.441,129.677 217.448,152.998 222.995,174.823C224.258,179.839 225.786,184.922 227.248,189.872C230.171,199.738 233.194,209.937 234.556,220.268C235.852,230.002 233.892,239.769 231.998,249.237C231.699,250.765 231.4,252.293 231.101,253.821C228.477,267.607 226.45,280.198 228.41,294.317C229.341,300.927 230.536,307.637 231.699,314.115C232.962,321.125 234.257,328.401 235.221,335.609C236.848,347.935 235.586,355.873 230.337,365.939C229.54,367.501 228.709,368.995 227.945,370.425C224.291,377.167 221.102,383.047 220.006,391.387Z" transform="rotate(77.479 226.863 238.124)" fill="#2B9DF5"/>
<path d="M228.624,394.15L227.095,394.016C227.926,385.412 230.783,378.47 233.773,371.128C234.371,369.7 234.969,368.238 235.533,366.742C239.852,355.912 240.35,347.308 239.752,336.91C239.586,334.086 239.42,331.23 239.254,328.44C237.859,304.322 236.53,281.499 237.892,257.548C238.025,255.089 238.224,252.531 238.39,250.106C238.988,241.469 239.619,232.533 238.889,223.862C238.091,214.328 236.264,204.727 234.47,195.426C233.573,190.742 232.643,185.891 231.879,181.108C227.926,156.857 228.723,131.178 229.52,106.362C229.687,101.479 229.819,96.429 229.952,91.546L231.48,91.579C231.348,96.496 231.215,101.545 231.049,106.429C230.251,131.178 229.454,156.791 233.407,180.875C234.171,185.626 235.101,190.476 235.998,195.16C237.792,204.495 239.619,214.129 240.417,223.763C241.148,232.533 240.516,241.535 239.918,250.239C239.752,252.664 239.586,255.189 239.42,257.68C238.058,281.533 239.354,304.288 240.782,328.374C240.948,331.196 241.114,334.02 241.28,336.878C241.878,347.176 241.347,356.312 236.962,367.374C236.364,368.868 235.766,370.33 235.168,371.758C232.112,379.234 229.421,385.778 228.624,394.15Z" transform="rotate(77.479 234.289 242.848)" fill="#2B9DF5"/>
<path d="M236.24,396.362L234.712,396.262C235.277,386.86 237.702,378.622 240.26,369.918C240.559,368.956 240.825,367.992 241.124,366.996C243.814,357.76 244.18,348.824 244.545,339.356C244.578,338.16 244.645,336.93 244.678,335.702C244.844,332.114 245.01,328.56 245.176,325.004C246.14,304.474 247.037,285.074 245.509,264.843C244.346,249.229 243.648,233.35 242.951,218.002C242.519,208.468 242.087,198.602 241.555,188.935C241.19,182.324 240.791,175.613 240.393,169.069C238.997,145.948 237.569,121.996 237.37,98.642L238.898,98.642C239.097,121.963 240.526,145.881 241.921,169.002C242.319,175.514 242.718,182.257 243.084,188.868C243.615,198.568 244.047,208.435 244.479,217.969C245.143,233.317 245.841,249.196 247.037,264.776C248.565,285.107 247.668,304.542 246.705,325.138C246.538,328.692 246.372,332.246 246.206,335.834C246.14,337.064 246.107,338.292 246.073,339.488C245.708,349.022 245.343,358.058 242.585,367.494C242.286,368.49 242.02,369.454 241.722,370.416C239.197,379.02 236.805,387.16 236.24,396.362Z" transform="rotate(77.479 241.285 247.502)" fill="#2B9DF5"/>
<path d="M241.066,398.196L239.538,398.164C239.77,388.596 241.431,379.76 243.159,370.424C243.391,369.228 243.59,368.032 243.823,366.836C244.853,361.29 245.251,355.608 245.617,350.094C245.982,344.944 246.348,339.596 247.245,334.348C248.042,329.73 249.039,325.046 250.002,320.562C251.43,314.016 252.892,307.274 253.656,300.529C254.885,289.866 252.693,279.102 250.567,268.671C250.268,267.276 250.002,265.847 249.703,264.452L249.504,263.456C247.112,251.363 244.82,239.902 245.55,227.644C246.016,219.804 246.613,211.831 247.178,204.091C247.577,198.875 247.976,193.494 248.308,188.178C249.437,171.568 247.245,155.158 245.119,139.245C243.69,128.482 242.195,117.32 241.73,106.124L243.258,106.058C243.723,117.187 245.185,128.282 246.613,139.012C248.74,154.958 250.932,171.469 249.803,188.245C249.437,193.56 249.039,198.942 248.673,204.157C248.108,211.864 247.51,219.837 247.045,227.677C246.315,239.736 248.573,251.098 250.965,263.09L251.165,264.087C251.43,265.482 251.729,266.877 252.028,268.272C254.188,278.803 256.413,289.699 255.151,300.596C254.354,307.406 252.892,314.216 251.464,320.76C250.5,325.246 249.47,329.896 248.706,334.48C247.843,339.662 247.477,344.944 247.112,350.06C246.713,355.608 246.315,361.356 245.285,366.97C245.052,368.166 244.853,369.362 244.62,370.558C242.959,379.992 241.298,388.762 241.066,398.196Z" transform="rotate(77.479 247.528 252.127)" fill="#2B9DF5"/>
<path d="M245.144,401.062C245.11,391.36 246.074,381.66 247.037,372.292C247.17,371.03 247.303,369.768 247.403,368.506C247.768,364.95 247.901,361.33 248.034,357.842C248.333,350.632 248.632,343.158 250.791,335.884C252.053,331.564 253.714,327.346 255.309,323.226C257.634,317.314 259.993,311.201 261.255,304.856C263.282,294.425 259.927,283.761 256.638,273.463C256.106,271.802 255.608,270.174 255.11,268.546C254.744,267.317 254.379,266.121 253.98,264.892C250.625,254.062 247.17,242.867 248.765,231.207C249.794,223.765 251.422,216.357 253.017,209.148C254.08,204.265 255.209,199.249 256.106,194.266C259.129,177.556 255.674,161.942 252.02,145.465C249.861,135.732 247.635,125.666 246.904,115.434L248.432,115.334C249.163,125.433 251.356,135.466 253.515,145.133C257.036,161.045 260.691,177.523 257.601,194.565C256.704,199.581 255.575,204.63 254.512,209.514C252.917,216.656 251.289,224.064 250.293,231.439C248.731,242.8 252.153,253.796 255.442,264.46C255.807,265.689 256.206,266.918 256.571,268.114C257.07,269.742 257.568,271.37 258.099,273.031C261.421,283.528 264.843,294.358 262.75,305.188C261.488,311.666 259.063,317.844 256.737,323.824C255.143,327.91 253.515,332.096 252.253,336.348C250.16,343.424 249.861,350.466 249.562,357.942C249.429,361.462 249.263,365.084 248.931,368.704C248.798,369.968 248.665,371.23 248.565,372.492C247.569,382.258 246.638,391.46 246.705,401.094L245.144,401.062Z" transform="rotate(77.479 254.267 258.215)" fill="#2B9DF5"/>
<path d="M251.134,404.897C251.001,394.765 251.333,384.865 251.632,377.391C251.765,374.069 251.732,370.647 251.665,367.025C251.532,359.019 251.4,350.747 253.526,343.373C255.187,337.559 258.143,332.311 260.967,327.195C263.392,322.876 265.884,318.391 267.545,313.641C271.73,301.748 267.378,290.221 263.159,279.059L262.528,277.364C261.698,275.139 260.801,272.946 259.837,270.588C255.585,260.09 251.167,249.227 252.463,238.032C253.393,229.893 256.283,222.02 259.073,214.412C260.535,210.392 262.063,206.24 263.259,202.154C268.109,185.444 263.591,170.395 258.774,154.483C256.017,145.347 253.16,135.879 252.23,126.046L253.758,125.913C254.688,135.58 257.512,144.982 260.236,154.051C264.887,169.498 269.704,185.444 264.721,202.619C263.525,206.738 261.997,210.924 260.502,214.977C257.745,222.518 254.888,230.291 253.991,238.264C252.762,249.061 257.08,259.725 261.266,270.056C262.229,272.415 263.126,274.64 263.957,276.866L264.588,278.56C268.907,289.955 273.358,301.748 269.006,314.206C267.279,319.056 264.754,323.607 262.296,327.991C259.505,333.007 256.582,338.191 254.987,343.837C252.928,350.981 253.061,359.153 253.193,367.025C253.26,370.513 253.293,374.101 253.16,377.489C252.861,384.965 252.496,394.831 252.662,404.897L251.134,404.897Z" transform="rotate(77.479 260.946 265.405)" fill="#2B9DF5"/>
<path d="M257.179,410.068C257.146,400.302 257.179,390.368 257.179,380.734L257.179,375.818C257.179,373.958 257.146,372.064 257.146,370.236C257.013,359.84 256.88,350.006 261.863,340.24C263.458,337.116 265.517,334.159 267.477,331.336C270.534,326.951 273.69,322.399 275.185,317.151C278.473,305.69 273.69,294.561 269.039,283.797L268.308,282.103C267.477,280.21 266.614,278.216 265.75,276.323C261.996,267.985 258.109,259.347 257.312,250.311C256.448,240.046 260.7,230.512 264.82,221.31C265.584,219.616 266.348,217.855 267.079,216.161C272.294,203.903 274.919,193.04 270.833,180.051C269.271,175.101 267.311,170.317 265.451,165.7C261.963,157.162 258.375,148.359 257.312,138.426L258.84,138.26C259.87,147.993 263.292,156.298 266.879,165.102C268.773,169.752 270.733,174.536 272.328,179.586C276.547,193.04 273.856,204.169 268.507,216.759C267.776,218.486 266.979,220.247 266.215,221.941C262.195,230.977 258.01,240.312 258.84,250.179C259.604,258.982 263.425,267.486 267.145,275.692C268.009,277.619 268.906,279.578 269.736,281.505L270.467,283.2C274.985,293.697 280.134,305.59 276.679,317.582C275.118,323.064 271.863,327.715 268.74,332.233C266.813,335.023 264.787,337.946 263.225,340.97C258.408,350.372 258.541,360.038 258.674,370.236C258.707,372.064 258.707,373.958 258.707,375.818L258.707,380.734C258.674,390.336 258.674,400.268 258.707,410.034L257.179,410.068Z" transform="rotate(77.479 267.457 274.164)" fill="#2B9DF5"/>
</svg>
