<svg width="622" height="728" viewBox="0 0 622 728" fill="none" xmlns="http://www.w3.org/2000/svg" xmlns:xlink="http://www.w3.org/1999/xlink">
<path d="M158.072,591.094C153.245,573.766 142.862,565.104 130.892,555.184C127.916,552.736 124.808,550.158 121.7,547.38C101.86,529.722 103.183,511.734 104.902,488.918C105.101,486.274 105.299,483.496 105.497,480.652C106.291,468.286 107.746,455.588 109.267,442.164C114.094,399.904 119.054,356.258 103.381,319.554C89.493,287.084 90.948,249.124 92.403,212.42C92.8,202.037 93.197,192.183 93.263,182.462C93.395,148.007 99.149,127.109 116.012,99.731C120.046,93.183 124.279,86.769 128.445,80.486C143.06,58.398 156.816,37.566 162.305,11.576L165.281,12.237C159.66,38.757 145.11,60.845 130.958,82.139C126.858,88.356 122.559,94.837 118.591,101.318C102.058,128.101 96.437,148.602 96.305,182.396C96.239,192.183 95.842,202.037 95.445,212.42C94.056,248.792 92.535,286.356 106.159,318.232C122.163,355.728 117.137,399.772 112.309,442.428C110.788,455.786 109.333,468.418 108.539,480.718C108.341,483.562 108.143,486.34 107.944,488.984C106.225,511.8 104.968,528.268 123.684,544.932C126.792,547.71 129.834,550.224 132.81,552.67C145.243,562.986 155.956,571.848 160.982,590.168L158.072,591.094Z" transform="rotate(34.537 128.394 301.335)" fill="#2B9DF5"/>
<path d="M166.541,597.064C163.036,579.604 154.769,568.032 145.114,554.672C143.262,552.094 141.278,549.382 139.36,546.538C125.737,526.964 125.936,509.57 126.266,487.614C126.332,484.772 126.332,481.862 126.332,478.886C126.332,467.708 126.531,456.268 126.729,445.158C127.391,404.09 128.052,361.698 121.174,321.094C115.354,286.97 112.775,251.324 110.328,216.869C109.667,207.544 108.94,197.955 108.212,188.564C105.831,158.143 110.99,137.113 128.118,108.214C131.887,101.799 135.922,95.45 139.823,89.366C153.711,67.476 166.871,46.777 171.964,21.25L174.94,21.845C169.781,47.967 155.827,69.857 142.403,91.019C138.501,97.103 134.533,103.452 130.763,109.801C114.032,138.039 108.874,158.606 111.254,188.366C111.982,197.757 112.709,207.346 113.371,216.67C115.817,251.06 118.397,286.638 124.216,320.564C131.16,361.434 130.499,404.024 129.837,445.158C129.639,456.202 129.507,467.642 129.441,478.82C129.441,481.796 129.374,484.704 129.374,487.548C129.11,508.976 128.845,525.906 141.94,544.686C143.857,547.464 145.775,550.176 147.693,552.756C157.481,566.378 166.012,578.216 169.649,596.336L166.541,597.064Z" transform="rotate(34.537 141.302 309.156)" fill="#2B9DF5"/>
<path d="M174.504,603.197C172.718,585.011 167.097,569.205 161.145,552.473C160.219,549.895 159.293,547.315 158.433,544.737C152.283,527.013 151.291,510.017 150.233,492.029C149.902,486.805 149.638,481.447 149.175,476.025C148.381,466.767 147.588,457.441 146.794,448.381C142.959,405.461 139.387,364.923 140.578,322.201C140.71,318.101 140.842,314.001 141.041,309.901C141.636,294.029 142.297,277.561 140.578,261.757C139.123,248.265 135.221,235.039 131.518,222.276C128.938,213.414 126.227,204.222 124.375,195.029C116.638,157.136 134.824,126.715 152.415,97.352C164.65,76.917 177.281,55.821 181.58,32.079L184.556,32.608C180.191,56.879 167.427,78.24 155.061,98.873C136.94,129.095 119.878,157.665 127.351,194.368C129.203,203.494 131.848,212.554 134.427,221.35C138.197,234.245 142.165,247.671 143.62,261.425C145.339,277.429 144.678,294.029 144.083,309.967C143.951,314.067 143.752,318.167 143.62,322.267C142.363,364.857 146.001,405.263 149.77,448.117C150.564,457.177 151.423,466.501 152.151,475.761C152.614,481.183 152.945,486.607 153.209,491.831C154.267,509.621 155.259,526.417 161.277,543.679C162.203,546.257 163.129,548.837 163.989,551.415C170.007,568.345 175.628,584.283 177.48,602.867L174.504,603.197Z" transform="rotate(34.537 153.549 317.638)" fill="#2B9DF5"/>
<path d="M182.036,609.293C181.904,561.481 179.324,519.487 174.365,484.503C172.182,469.291 168.347,454.147 164.577,439.467C161.403,426.901 158.096,413.873 155.848,400.845C151.417,375.119 155.054,350.651 158.89,329.753C159.683,325.455 160.543,321.155 161.469,316.593C165.172,298.407 168.942,279.691 166.495,261.967C164.577,248.343 157.964,236.176 151.615,224.338C148.11,217.857 144.473,211.111 141.629,204.168C126.882,168.324 145.795,135.456 164.114,103.713C175.489,84.005 187.194,63.637 190.633,42.871L193.675,43.334C190.17,64.629 178.332,85.262 166.825,105.234C148.044,137.771 130.387,168.522 144.539,202.977C147.316,209.789 150.954,216.402 154.393,222.817C160.874,234.853 167.619,247.219 169.603,261.439C172.182,279.625 168.28,298.671 164.577,317.121C163.651,321.685 162.791,325.983 161.998,330.215C158.228,350.849 154.591,375.053 158.956,400.249C161.204,413.145 164.511,426.107 167.685,438.607C171.455,453.353 175.29,468.631 177.539,483.973C182.565,519.155 185.144,561.281 185.276,609.227L182.036,609.293Z" transform="rotate(34.537 165.01 326.082)" fill="#2B9DF5"/>
<path d="M190.436,614.714L187.394,614.45C189.048,593.354 191.032,572.522 192.949,553.212C193.479,547.854 194.206,542.3 194.867,536.942C197.38,517.632 199.959,497.594 195.529,479.342C192.222,465.652 186.601,452.492 181.112,439.794C176.416,428.816 171.523,417.508 168.15,405.802C160.611,379.812 167.356,356.204 174.499,331.206L174.565,331.006C175.953,326.246 177.541,321.22 179.326,315.928C185.609,296.684 192.751,274.86 188.783,256.608C186.006,243.977 177.276,234.454 168.811,225.262C164.116,220.169 159.288,214.879 155.452,209.125C139.779,185.516 148.839,162.767 161.338,137.702C164.645,131.023 168.216,124.41 171.655,118.061C183.096,96.833 193.875,76.795 197.38,52.656L200.422,53.119C196.851,77.787 185.939,98.089 174.366,119.582C170.927,125.931 167.422,132.544 164.116,139.157C152.08,163.428 143.284,185.252 158.032,207.538C161.735,213.093 166.496,218.318 171.126,223.344C179.855,232.867 188.915,242.721 191.825,256.144C195.992,275.258 188.717,297.478 182.302,317.052C180.583,322.344 178.929,327.304 177.607,331.998L177.541,332.198C170.531,356.732 163.917,379.944 171.192,405.074C174.565,416.582 179.392,427.824 184.022,438.736C189.511,451.566 195.264,464.858 198.571,478.812C203.134,497.594 200.489,517.896 197.975,537.538C197.248,543.158 196.587,548.45 196.058,553.74C194.074,572.852 192.09,593.618 190.436,614.714Z" transform="rotate(34.537 174.094 333.685)" fill="#2B9DF5"/>
<path d="M195.423,621.302L192.381,620.904C195.291,597.824 200.317,575.406 205.211,554.508C206.269,550.01 207.459,545.448 208.782,540.62C214.271,520.052 220.421,496.708 213.874,477.132C209.642,464.634 202.499,453.26 195.489,442.282C189.471,432.758 183.189,422.904 178.89,412.258C168.838,387.722 177.567,363.584 186.032,340.24C186.76,338.256 187.487,336.272 188.215,334.288C189.934,329.46 192.183,324.036 194.497,318.35C202.83,298.178 213.147,273.114 208.054,254.201C204.748,242.099 194.167,235.022 183.916,228.145C178.163,224.243 172.145,220.275 167.582,215.381C147.742,194.351 159.646,168.956 170.161,146.604C173.269,140.057 176.509,133.576 179.684,127.359C190.397,106.329 200.515,86.423 203.623,62.682L206.666,63.079C203.491,87.349 193.241,107.453 182.395,128.748C179.221,134.964 175.914,141.445 172.872,147.926C162.754,169.419 151.313,193.822 169.698,213.331C174.062,217.96 179.617,221.664 185.503,225.632C196.217,232.774 207.261,240.247 210.898,253.407C216.321,273.314 205.74,298.906 197.275,319.54C194.96,325.228 192.712,330.518 191.058,335.346C190.331,337.33 189.603,339.314 188.876,341.364C180.609,364.112 172.145,387.656 181.734,411.132C185.966,421.582 192.183,431.304 198.135,440.694C205.211,451.804 212.485,463.378 216.784,476.208C223.662,496.642 217.313,520.45 211.758,541.48C210.501,546.308 209.245,550.87 208.253,555.302C203.359,576.066 198.333,598.354 195.423,621.302Z" transform="rotate(34.537 188.336 341.991)" fill="#2B9DF5"/>
<path d="M206.695,628.086L203.653,627.69C206.893,604.212 213.308,583.05 221.31,557.854C222.633,553.754 224.088,549.456 225.741,544.958C233.478,523.002 242.208,498.202 234.14,477.834C229.444,465.93 221.045,456.01 212.977,446.354C205.901,437.956 198.627,429.292 193.601,419.174C181.697,395.234 192.344,369.51 201.735,346.76C202.793,344.114 203.917,341.536 204.909,338.956C206.827,334.128 209.406,328.574 212.118,322.754C222.17,301.128 234.735,274.146 228.651,254.902C224.815,242.734 212.911,237.51 201.47,232.417C194.923,229.508 188.244,226.532 183.086,222.365C161.46,204.576 173.893,176.999 183.019,156.828L183.813,155.043C186.723,148.628 189.765,142.279 192.807,136.129C202.991,115.165 212.581,95.391 215.623,71.914L218.665,72.311C215.623,96.251 205.901,116.289 195.585,137.451C192.609,143.602 189.566,149.884 186.657,156.299L185.863,158.085C176.671,178.453 165.296,203.716 185.07,219.985C189.897,223.952 196.114,226.73 202.727,229.64C214.829,234.997 227.394,240.552 231.627,254.043C238.041,274.478 225.212,301.988 214.961,324.142C212.25,329.962 209.671,335.452 207.819,340.212C206.761,342.792 205.703,345.37 204.645,348.016C195.452,370.104 185.136,395.168 196.378,417.852C201.206,427.574 208.414,436.104 215.358,444.37C223.625,454.158 232.09,464.342 236.983,476.71C245.448,498.136 236.52,523.532 228.651,545.95C227.064,550.448 225.543,554.68 224.286,558.78C216.284,583.844 209.935,604.874 206.695,628.086Z" transform="rotate(34.537 205.748 350.001)" fill="#2B9DF5"/>
<path d="M222.723,634.025L219.681,633.693C222.392,608.761 230.328,586.541 238.727,563.065L238.793,562.799C240.115,559.097 241.57,555.261 243.158,551.227C251.424,529.799 261.675,503.083 253.144,481.721C248.448,469.951 239.52,460.625 230.923,451.631C223.384,443.695 215.58,435.561 210.356,425.641C197.857,401.701 209.232,375.315 219.284,352.037C220.408,349.457 221.466,346.945 222.524,344.497C224.508,339.735 227.22,334.181 230.063,328.295C240.777,306.207 254.136,278.695 247.787,258.922C243.819,246.423 231.452,241.992 219.548,237.694C212.671,235.181 205.594,232.668 200.172,228.567C178.348,212.1 190.648,184.391 199.576,164.155L200.833,161.245C203.61,154.896 206.586,148.613 209.43,142.595C219.35,121.565 228.675,101.66 231.915,78.381L234.957,78.778C231.651,102.519 222.194,122.623 212.208,143.918C209.364,149.936 206.388,156.219 203.677,162.501L202.42,165.411C193.889,184.722 182.184,211.175 202.023,226.12C207.049,229.89 213.663,232.271 220.606,234.85C233.238,239.413 246.266,244.175 250.697,258.062C257.376,279.027 243.753,307.133 232.775,329.683C229.931,335.503 227.286,340.993 225.302,345.687C224.244,348.135 223.186,350.713 222.061,353.227C212.274,375.843 201.23,401.503 213.067,424.187C218.027,433.709 225.699,441.777 233.105,449.515C241.901,458.707 251.027,468.231 255.987,480.597C264.981,503.083 254.466,530.395 246.067,552.351C244.546,556.385 243.025,560.221 241.769,563.857L241.703,564.123C233.238,587.401 225.368,609.423 222.723,634.025Z" transform="rotate(34.537 223.692 356.203)" fill="#2B9DF5"/>
<path d="M238.837,639.879L235.794,639.547C238.44,614.285 246.905,591.801 255.039,570.043C256.295,566.737 257.618,563.297 259.073,559.727C267.935,537.439 277.921,512.243 269.39,490.419C264.694,478.317 255.965,468.463 247.566,458.875C240.225,450.475 232.62,441.879 227.528,431.629C215.36,407.291 226.602,381.169 236.456,358.089C237.448,355.709 238.44,353.393 239.432,351.145C241.416,346.383 244.061,340.961 246.839,335.207C257.287,313.583 270.249,286.733 264.231,266.893C260.462,254.394 248.095,248.508 236.125,242.887C229.38,239.712 222.37,236.406 217.145,231.909C196.512,214.251 207.424,188.526 216.153,167.827C216.682,166.636 217.145,165.446 217.674,164.255C220.319,157.907 223.097,151.624 225.875,145.606C235.398,124.311 244.392,104.207 247.764,81.061L250.807,81.524C247.368,105.133 238.307,125.436 228.718,146.929C226.007,153.013 223.229,159.229 220.584,165.512C220.121,166.702 219.592,167.893 219.063,169.083C210.267,189.849 200.281,213.392 219.195,229.66C224.089,233.893 230.636,236.935 237.514,240.175C250.079,246.127 263.041,252.211 267.273,266.033C273.622,286.997 260.33,314.441 249.682,336.529C246.905,342.217 244.326,347.641 242.342,352.335C241.416,354.651 240.358,356.965 239.366,359.345C229.71,381.765 218.798,407.225 230.372,430.305C235.265,440.159 242.738,448.625 249.947,456.891C258.544,466.679 267.406,476.797 272.299,489.361C281.227,512.309 270.977,538.167 261.983,560.917C260.594,564.487 259.205,567.861 258.015,571.167C249.814,592.727 241.416,615.013 238.837,639.879Z" transform="rotate(34.537 240.54 360.47)" fill="#2B9DF5"/>
<path d="M253.002,646.145L249.96,645.813C252.473,622.733 259.946,602.893 269.469,579.351C270.593,576.639 271.717,573.861 272.908,571.085C281.968,549.393 292.285,524.857 284.15,502.241C279.587,489.543 271.255,478.697 263.186,468.249C256.176,459.123 248.902,449.665 244.008,438.951C232.501,413.755 243.545,387.699 253.267,364.817C254.06,363.033 254.788,361.181 255.515,359.395C257.499,354.699 260.012,349.475 262.657,343.919C272.709,322.955 285.142,296.899 279.455,277.126C275.619,263.702 263.319,255.633 251.481,247.764C245.066,243.531 238.387,239.167 233.361,234.008C213.918,214.367 223.639,189.501 232.104,167.545L233.361,164.371C235.808,158.022 238.387,151.74 240.9,145.655C249.762,124.096 258.16,103.661 261.335,80.515L264.377,80.912C261.136,104.455 252.738,125.022 243.744,146.78C241.231,152.864 238.651,159.146 236.204,165.429L234.948,168.603C226.351,190.692 217.489,213.573 235.477,231.826C240.305,236.72 246.521,240.82 253.134,245.185C265.501,253.319 278.198,261.718 282.365,276.267C288.383,297.231 275.619,323.881 265.369,345.243C262.723,350.731 260.21,355.955 258.293,360.585C257.565,362.371 256.772,364.157 255.978,366.009C246.058,389.485 235.742,413.689 246.719,437.695C251.481,448.079 258.623,457.403 265.567,466.397C273.768,477.111 282.299,488.155 286.994,501.249C295.525,524.923 285.01,550.121 275.685,572.275C274.495,575.053 273.371,577.829 272.247,580.541C262.922,603.819 255.515,623.395 253.002,646.145Z" transform="rotate(34.537 256.09 363.33)" fill="#2B9DF5"/>
<path d="M269.88,653.683L266.838,653.353C268.954,634.703 277.221,616.053 285.223,597.999C298.978,566.983 311.94,537.687 297.722,507.133C293.423,497.941 287.604,489.079 281.982,480.549C273.517,467.785 264.788,454.559 260.754,439.415C254.471,415.871 265.185,391.601 274.642,370.241C276.097,366.999 277.419,363.891 278.742,360.849C280.131,357.543 281.718,354.037 283.437,350.335C292.563,330.363 303.872,305.497 296.267,285.459C291.373,272.629 280.792,263.106 270.475,253.913C263.399,247.565 256.059,241.018 250.636,233.412C235.095,211.589 243.493,187.781 251.562,164.767L252.818,161.196C254.736,155.641 256.786,150.086 258.77,144.663C266.838,122.707 274.443,101.941 277.155,78.729L280.197,79.06C277.419,102.603 269.748,123.501 261.614,145.655C259.63,151.012 257.58,156.633 255.662,162.122L254.405,165.693C246.536,187.98 238.401,210.994 253.083,231.495C258.307,238.835 265.515,245.316 272.459,251.533C282.974,260.99 293.886,270.711 299.044,284.269C307.113,305.497 295.473,331.023 286.149,351.525C284.495,355.227 282.908,358.667 281.519,361.973C280.197,365.081 278.874,368.123 277.419,371.431C268.161,392.395 257.646,416.135 263.664,438.621C267.565,453.303 276.163,466.331 284.495,478.895C290.183,487.493 296.068,496.421 300.433,505.877C315.247,537.687 301.359,568.967 288,599.257C280.131,617.045 271.93,635.497 269.88,653.683Z" transform="rotate(34.537 274.364 366.206)" fill="#2B9DF5"/>
<path d="M287.053,662.116L284.011,661.784C286.259,643.004 294.79,625.412 303.057,608.482C316.085,581.632 328.452,556.238 317.606,526.676C313.374,515.236 307.355,504.324 301.47,493.808C294.526,481.376 287.317,468.48 283.085,454.46C275.215,428.47 285.267,404.53 294.989,381.318L295.253,380.722C297.039,376.424 299.089,371.928 301.271,367.232C310.001,348.186 319.921,326.626 317.077,306.72C314.63,289.262 302.396,274.912 290.624,261.024C285.863,255.403 281.299,250.046 277.398,244.557C253.061,210.168 266.287,170.621 279.051,132.33C285.267,113.615 291.748,94.304 293.402,76.316L296.444,76.581C294.724,94.966 288.243,114.475 281.961,133.322C269.396,170.819 256.434,209.639 279.911,242.771C283.746,248.194 288.177,253.419 292.939,259.04C305.041,273.258 317.54,288.006 320.119,306.258C323.029,327.09 312.977,349.112 304.049,368.488C301.933,373.184 299.883,377.614 298.097,381.848L297.832,382.442C288.309,405.126 278.456,428.536 286.061,453.468C290.227,467.158 297.303,479.856 304.181,492.156C310.133,502.802 316.283,513.78 320.516,525.42C331.824,556.172 318.598,583.352 305.834,609.606C297.634,626.47 289.235,643.796 287.053,662.116Z" transform="rotate(34.537 294.294 369.216)" fill="#2B9DF5"/>
<path d="M299.232,668.836L296.19,668.438C298.637,649.326 307.366,632.992 315.831,617.186C328.462,593.51 340.432,571.092 331.041,541.332C327.14,529.032 321.452,517.062 315.963,505.554C309.482,491.932 302.737,477.846 298.835,462.9C292.156,437.372 300.091,415.086 310.342,390.684C311.995,386.782 313.781,382.814 315.633,378.648C324.23,359.468 333.158,339.628 330.843,319.59C328.594,300.28 316.823,283.02 305.448,266.288C300.753,259.41 296.322,252.929 292.552,246.316C270.795,208.489 281.773,169.074 292.288,130.982C297.645,111.737 303.134,91.831 304.522,72.124L307.564,72.322C306.176,92.294 300.621,112.398 295.198,131.775C284.352,170.992 274.035,207.959 295.131,244.729C298.901,251.276 303.266,257.691 307.895,264.503C319.468,281.498 331.504,299.09 333.819,319.128C336.266,340.026 326.743,361.188 318.344,379.838C316.492,384.004 314.707,387.906 313.053,391.808C302.671,416.54 295.264,437.438 301.679,462.04C305.514,476.722 312.194,490.676 318.608,504.166C324.164,515.806 329.851,527.842 333.885,540.34C343.673,571.29 331.438,594.238 318.476,618.574C310.21,634.182 301.613,650.252 299.232,668.836Z" transform="rotate(34.537 308.716 370.48)" fill="#2B9DF5"/>
<path d="M311.339,675.168L308.297,674.772C310.81,655.99 319.804,641.044 328.467,626.562C340.701,606.126 352.208,586.882 345.264,558.842C341.627,544.16 335.741,529.942 330.12,516.186C324.83,503.358 319.407,490.13 315.703,476.508C307.305,445.756 315.968,421.42 328.136,392.85C328.798,391.33 329.393,389.874 330.054,388.354C338.651,368.448 347.447,347.88 343.413,325.99C339.775,306.416 329.459,288.23 319.407,270.572C314.381,261.777 309.222,252.716 305.056,243.656C287.399,205.498 296.459,166.546 305.254,128.851C309.818,109.209 314.579,88.841 315.571,68.67L318.613,68.803C317.621,89.238 312.86,109.739 308.23,129.512C299.17,168.398 290.639,205.101 307.834,242.334C311.934,251.262 317.092,260.322 322.052,269.05C332.17,286.84 342.685,305.292 346.389,325.396C350.621,348.212 341.561,369.242 332.832,389.544C332.17,391.064 331.509,392.586 330.914,394.04C318.547,423.006 310.479,445.822 318.613,475.714C322.317,489.138 327.673,502.3 332.898,514.996C338.585,528.884 344.471,543.236 348.24,558.114C355.515,587.346 343.677,607.118 331.112,628.148C322.647,642.302 313.786,657.048 311.339,675.168Z" transform="rotate(34.537 322.706 371.92)" fill="#2B9DF5"/>
<path d="M323.348,680.86L320.306,680.794C320.637,663.468 330.557,650.506 340.146,637.94C342.064,635.428 344.048,632.782 345.965,630.202C359.721,611.156 363.226,596.078 358.861,574.386C355.488,557.59 349.537,541.122 343.717,525.25C339.484,513.612 335.12,501.576 331.747,489.474C322.885,457.398 328.374,433.592 339.286,407.668C340.609,404.626 341.997,401.452 343.32,398.408C350.859,381.28 358.597,363.624 357.737,344.908C356.613,320.372 344.577,296.698 333.003,273.816C327.184,262.375 321.695,251.529 317.462,240.617C302.913,203.054 310.651,164.499 318.124,127.201C322.092,107.427 326.192,86.992 326.919,66.888L329.961,67.02C329.234,87.389 325.068,107.956 321.1,127.862C313.693,164.698 306.088,202.856 320.306,239.559C324.472,250.405 329.961,261.118 335.715,272.494C347.486,295.64 359.589,319.646 360.779,344.842C361.705,364.284 353.769,382.338 346.098,399.732C344.775,402.774 343.386,405.882 342.13,408.99C331.152,435.046 326.126,457.466 334.723,488.812C338.029,500.782 342.394,512.752 346.627,524.324C352.446,540.328 358.531,556.862 361.903,573.924C366.334,596.276 362.565,612.612 348.478,632.12C346.561,634.766 344.577,637.344 342.659,639.924C333.334,651.894 323.679,664.46 323.348,680.86Z" transform="rotate(34.537 336.455 373.874)" fill="#2B9DF5"/>
<path d="M340.988,687.484L337.945,687.484C338.078,670.82 347.006,660.04 356.462,648.532C358.909,645.556 361.489,642.448 363.803,639.274C377.691,620.492 380.998,606.738 376.831,584.782C373.525,567.454 367.837,550.326 362.282,533.86C358.248,521.824 354.082,509.324 350.841,496.826C343.501,468.256 345.551,445.506 358.116,415.548C359.306,412.706 360.563,409.796 361.819,406.886C369.16,390.088 376.765,372.696 375.905,354.178C374.781,328.718 362.943,303.586 351.569,279.316C345.881,267.148 340.525,255.707 336.358,244.2C322.537,205.843 329.481,166.428 336.226,128.402C339.665,108.959 343.236,88.921 344.03,69.148L347.072,69.28C346.278,89.252 342.707,109.422 339.268,128.997C332.589,166.693 325.711,205.645 339.268,243.274C343.368,254.649 348.725,266.09 354.412,278.126C365.919,302.728 377.823,328.122 379.014,354.178C379.873,373.422 372.136,391.146 364.663,408.274C363.406,411.184 362.15,414.028 360.96,416.872C348.461,446.498 346.543,467.992 353.817,496.164C356.992,508.596 361.158,520.964 365.192,533C370.747,549.598 376.501,566.794 379.873,584.318C384.172,607.002 380.601,621.882 366.316,641.258C363.935,644.498 361.356,647.606 358.843,650.648C349.717,661.494 341.186,671.878 340.988,687.484Z" transform="rotate(34.537 354.979 378.316)" fill="#2B9DF5"/>
<path d="M357.236,692.305L354.194,692.239C354.591,675.639 363.321,664.859 372.579,653.419C374.96,650.509 377.407,647.467 379.722,644.293C393.411,625.577 396.585,611.887 392.353,589.799C389.046,572.539 383.689,555.477 378.597,538.943C374.828,526.907 370.992,514.409 367.884,501.909C360.808,473.275 362.659,451.253 374.695,420.699C375.952,417.525 377.341,414.219 378.663,410.977C385.541,394.313 392.683,377.117 391.824,359.395C390.633,334.199 379.259,308.737 368.215,284.069C362.725,271.835 357.567,260.328 353.599,248.821C339.91,209.407 346.655,168.405 353.202,128.791C356.178,110.671 359.287,91.956 360.345,73.637L363.387,73.835C362.263,92.286 359.22,111.134 356.178,129.32C349.697,168.603 343.018,209.208 356.443,247.895C360.345,259.27 365.503,270.711 370.992,282.879C382.168,307.745 393.675,333.537 394.866,359.329C395.726,377.713 388.451,395.239 381.441,412.235C380.052,415.541 378.73,418.715 377.539,421.889C365.768,451.781 363.982,473.275 370.86,501.183C373.902,513.549 377.804,525.981 381.507,538.017C386.665,554.617 392.022,571.811 395.329,589.205C399.76,612.219 396.453,626.569 382.168,646.077C379.854,649.253 377.341,652.361 374.96,655.337C366.098,666.315 357.633,676.763 357.236,692.305Z" transform="rotate(34.537 371.398 382.971)" fill="#2B9DF5"/>
<path d="M373.986,694.856L370.944,694.724C371.605,678.52 379.607,667.08 388.138,655.044C390.255,652.002 392.503,648.894 394.553,645.654C407.052,626.276 410.028,612.322 406.259,590.432C403.415,573.9 399.116,557.432 395.016,541.428C391.974,529.724 388.866,517.688 386.353,505.652C379.674,474.304 383.443,451.356 391.71,424.506C392.9,420.672 394.157,416.902 395.479,412.868C400.968,396.268 406.589,379.14 405.862,362.342C404.804,338.006 394.95,313.14 385.361,289.134C380.599,277.164 376.102,265.856 372.664,254.613C360.165,214.074 365.918,171.088 371.539,129.491C373.788,112.892 376.102,95.697 377.161,79.098L380.203,79.296C379.145,95.962 376.83,113.222 374.581,129.888C369.026,171.154 363.273,213.876 375.573,253.687C379.012,264.864 383.509,276.106 388.205,288.01C397.86,312.28 407.78,337.344 408.904,362.21C409.698,379.604 403.944,396.996 398.389,413.86C397.066,417.894 395.81,421.664 394.686,425.432C386.617,451.82 382.914,474.304 389.395,504.99C391.908,516.96 395.016,528.996 398.058,540.636C402.225,556.64 406.457,573.238 409.367,589.904C413.269,612.654 410.227,627.136 397.265,647.306C395.148,650.546 392.966,653.722 390.784,656.764C382.451,668.468 374.647,679.512 373.986,694.856Z" transform="rotate(34.537 388.075 386.977)" fill="#2B9DF5"/>
<path d="M394.33,696.604L391.288,696.208C393.537,679.08 400.018,667.11 407.491,653.288C409.012,650.444 410.665,647.468 412.252,644.426C422.37,624.984 424.817,609.706 421.643,585.832C419.725,571.548 417.146,557.132 414.633,543.178C412.318,530.282 409.938,516.856 408.086,503.63C404.118,475.062 408.152,449.732 413.443,422.024C414.038,418.982 414.633,415.94 415.228,412.896C418.932,394.314 422.767,375.07 420.254,356.288C417.543,335.986 411.591,315.814 405.771,296.24C402.861,286.386 399.819,276.202 397.306,266.216C386.13,222.238 390.164,175.548 394,130.446C395.256,115.897 396.513,100.885 397.24,86.402L400.282,86.534C399.555,101.15 398.298,116.162 397.042,130.711C393.206,175.615 389.238,222.039 400.282,265.488C402.795,275.474 405.837,285.593 408.747,295.446C414.567,315.088 420.585,335.39 423.296,355.958C425.875,375.334 421.974,394.776 418.204,413.624C417.609,416.666 417.014,419.708 416.419,422.75C411.194,450.196 407.16,475.26 411.062,503.366C412.913,516.526 415.294,529.884 417.609,542.78C420.122,556.734 422.701,571.218 424.619,585.568C427.859,610.104 425.346,625.908 414.897,645.948C413.31,649.056 411.657,652.032 410.136,654.874C402.861,668.3 396.513,680.006 394.33,696.604Z" transform="rotate(34.537 407.981 391.503)" fill="#2B9DF5"/>
<path d="M413.902,696.041L410.86,695.777C412.514,678.649 418.201,664.827 424.153,650.213C425.343,647.369 426.534,644.459 427.658,641.483C436.255,619.923 437.247,602.795 436.057,582.095C435.726,576.475 435.395,570.787 435.065,565.233C432.287,517.221 429.642,471.787 432.353,424.105C432.618,419.213 433.015,414.119 433.345,409.293C434.536,392.097 435.792,374.309 434.337,357.047C432.75,338.067 429.113,318.955 425.542,300.439C423.756,291.114 421.904,281.458 420.383,271.935C412.514,223.659 414.101,172.539 415.688,123.138C416.019,113.416 416.283,103.364 416.548,93.643L419.59,93.709C419.325,103.496 419.061,113.549 418.73,123.27C417.143,172.539 415.556,223.527 423.425,271.472C424.946,280.929 426.798,290.585 428.584,299.909C432.155,318.493 435.792,337.671 437.379,356.849C438.834,374.309 437.578,392.231 436.387,409.557C436.057,414.385 435.726,419.411 435.395,424.371C432.684,471.853 435.263,517.153 438.107,565.099C438.437,570.721 438.768,576.343 439.099,582.029C440.289,602.531 439.231,620.717 430.502,642.739C429.311,645.715 428.121,648.625 426.93,651.469C420.846,666.349 415.489,679.377 413.902,696.041Z" transform="rotate(34.537 425.181 394.842)" fill="#2B9DF5"/>
<path d="M431.49,694.706L428.448,694.508C429.572,675.792 434.4,659.39 439.492,642.064C440.087,640.146 440.616,638.228 441.212,636.244C446.568,617.86 447.296,600.07 448.023,581.222C448.089,578.842 448.222,576.394 448.288,573.948C448.619,566.806 448.949,559.73 449.28,552.654C451.198,511.784 452.983,473.162 449.941,432.888C447.627,401.806 446.238,370.194 444.849,339.642C443.989,320.662 443.13,301.02 442.071,281.776C441.344,268.616 440.55,255.257 439.757,242.229C436.979,196.201 434.136,148.519 433.739,102.028L436.781,102.028C437.178,148.453 440.021,196.068 442.799,242.097C443.592,255.058 444.386,268.483 445.113,281.644C446.172,300.954 447.031,320.596 447.891,339.576C449.214,370.128 450.602,401.74 452.983,432.756C456.025,473.228 454.24,511.916 452.322,552.918C451.991,559.994 451.661,567.07 451.33,574.212C451.198,576.66 451.132,579.106 451.065,581.486C450.338,600.466 449.61,618.454 444.121,637.236C443.526,639.22 442.997,641.138 442.402,643.056C437.376,660.184 432.614,676.386 431.49,694.706Z" transform="rotate(34.537 441.533 398.367)" fill="#2B9DF5"/>
<path d="M443.603,693.171L440.561,693.103C441.024,674.057 444.331,656.467 447.77,637.883C448.233,635.503 448.629,633.123 449.092,630.741C451.143,619.697 451.936,608.389 452.664,597.411C453.391,587.161 454.118,576.513 455.904,566.063C457.491,556.871 459.475,547.547 461.393,538.619C464.237,525.591 467.147,512.167 468.668,498.741C471.115,477.513 466.75,456.085 462.517,435.321C461.922,432.543 461.393,429.699 460.798,426.921L460.401,424.937C455.639,400.865 451.076,378.049 452.531,353.647C453.457,338.039 454.648,322.169 455.772,306.759C456.565,296.376 457.359,285.663 458.02,275.082C460.269,242.015 455.904,209.346 451.672,177.669C448.828,156.242 445.852,134.021 444.926,111.735L447.968,111.603C448.894,133.757 451.804,155.845 454.648,177.206C458.88,208.949 463.245,241.817 460.996,275.214C460.269,285.795 459.475,296.508 458.748,306.891C457.623,322.235 456.433,338.107 455.507,353.713C454.052,377.719 458.549,400.337 463.311,424.211L463.708,426.195C464.237,428.971 464.832,431.749 465.427,434.527C469.726,455.491 474.157,477.183 471.644,498.873C470.056,512.431 467.147,525.987 464.303,539.015C462.385,547.943 460.335,557.203 458.814,566.329C457.094,576.645 456.367,587.161 455.64,597.345C454.846,608.389 454.052,619.829 452.002,631.005C451.539,633.387 451.143,635.767 450.68,638.149C447.373,656.929 444.066,674.389 443.603,693.171Z" transform="rotate(34.537 456.468 402.386)" fill="#2B9DF5"/>
<path d="M455.227,693.124C455.161,673.812 457.079,654.502 458.997,635.854C459.261,633.34 459.526,630.828 459.724,628.314C460.452,621.238 460.716,614.03 460.981,607.086C461.576,592.734 462.171,577.856 466.47,563.372C468.983,554.774 472.289,546.376 475.464,538.176C480.093,526.404 484.788,514.236 487.301,501.604C491.335,480.84 484.656,459.61 478.109,439.11C477.051,435.802 476.059,432.562 475.067,429.322C474.339,426.876 473.612,424.494 472.818,422.048C466.139,400.488 459.261,378.202 462.436,354.99C464.486,340.176 467.726,325.428 470.901,311.077C473.017,301.356 475.265,291.37 477.051,281.45C483.069,248.185 476.191,217.103 468.917,184.302C464.618,164.925 460.187,144.887 458.732,124.518L461.774,124.32C463.229,144.424 467.594,164.396 471.893,183.64C478.903,215.318 486.177,248.119 480.027,282.045C478.241,292.031 475.993,302.083 473.877,311.805C470.702,326.024 467.462,340.77 465.478,355.452C462.37,378.07 469.181,399.96 475.728,421.188C476.456,423.634 477.249,426.082 477.977,428.462C478.969,431.702 479.961,434.944 481.019,438.25C487.632,459.148 494.444,480.706 490.277,502.266C487.764,515.162 482.937,527.462 478.307,539.366C475.133,547.5 471.893,555.834 469.38,564.298C465.213,578.384 464.618,592.404 464.023,607.284C463.758,614.294 463.428,621.502 462.766,628.71C462.502,631.224 462.237,633.736 462.039,636.25C460.055,655.692 458.203,674.012 458.335,693.19L455.227,693.124Z" transform="rotate(34.537 473.39 408.755)" fill="#2B9DF5"/>
<path d="M471.468,694.896C471.203,674.726 471.864,655.02 472.46,640.14C472.724,633.526 472.658,626.714 472.526,619.506C472.261,603.568 471.997,587.102 476.229,572.42C479.536,560.846 485.422,550.398 491.043,540.214C495.87,531.616 500.83,522.688 504.137,513.232C512.47,489.556 503.806,466.608 495.407,444.388L494.151,441.016C492.498,436.584 490.712,432.22 488.794,427.524C480.329,406.626 471.534,385 474.113,362.714C475.965,346.512 481.718,330.839 487.273,315.694C490.183,307.692 493.225,299.426 495.606,291.292C505.261,258.027 496.267,228.069 486.678,196.392C481.189,178.205 475.502,159.358 473.65,139.783L476.692,139.518C478.544,158.763 484.165,177.478 489.588,195.532C498.846,226.284 508.436,258.027 498.516,292.217C496.135,300.418 493.093,308.75 490.117,316.819C484.628,331.831 478.941,347.306 477.155,363.178C474.708,384.67 483.305,405.898 491.638,426.466C493.556,431.162 495.341,435.592 496.995,440.024L498.251,443.396C506.848,466.08 515.71,489.556 507.047,514.356C503.608,524.012 498.582,533.072 493.688,541.8C488.133,551.786 482.313,562.104 479.139,573.346C475.039,587.564 475.303,603.832 475.568,619.506C475.7,626.45 475.766,633.592 475.502,640.338C474.906,655.218 474.179,674.858 474.51,694.896L471.468,694.896Z" transform="rotate(34.537 491.002 417.207)" fill="#2B9DF5"/>
<path d="M488.985,699.236C488.919,679.794 488.985,660.02 488.985,640.842L488.985,631.054C488.985,627.35 488.919,623.58 488.919,619.944C488.654,599.244 488.39,579.67 498.31,560.226C501.484,554.01 505.584,548.124 509.486,542.502C515.57,533.774 521.853,524.714 524.829,514.264C531.376,491.448 521.853,469.294 512.594,447.868L511.139,444.494C509.486,440.726 507.767,436.758 506.047,432.988C498.574,416.388 490.837,399.194 489.249,381.206C487.53,360.772 495.995,341.791 504.195,323.472C505.716,320.1 507.237,316.595 508.692,313.222C519.075,288.819 524.3,267.194 516.165,241.336C513.057,231.482 509.155,221.959 505.452,212.767C498.508,195.771 491.366,178.246 489.249,158.473L492.292,158.142C494.342,177.519 501.153,194.052 508.296,211.577C512.065,220.835 515.967,230.358 519.141,240.41C527.54,267.194 522.183,289.348 511.536,314.412C510.081,317.851 508.494,321.356 506.973,324.729C498.971,342.717 490.638,361.3 492.292,380.942C493.813,398.466 501.418,415.396 508.825,431.732C510.544,435.566 512.33,439.468 513.983,443.304L515.438,446.678C524.432,467.574 534.682,491.25 527.805,515.124C524.696,526.036 518.215,535.294 511.999,544.288C508.163,549.844 504.129,555.664 501.021,561.682C491.432,580.396 491.696,599.642 491.961,619.944C492.027,623.58 492.027,627.35 492.027,631.054L492.027,640.842C491.961,659.954 491.961,679.728 492.027,699.17L488.985,699.236Z" transform="rotate(34.537 509.445 428.689)" fill="#2B9DF5"/>
</svg>
