<svg width="458" height="504" viewBox="0 0 458 504" fill="none" xmlns="http://www.w3.org/2000/svg" xmlns:xlink="http://www.w3.org/1999/xlink">
<path d="M156.209,356.27C153.247,345.638 146.875,340.32 139.528,334.232C137.702,332.73 135.794,331.148 133.887,329.444C121.711,318.606 122.523,307.566 123.578,293.564C123.7,291.942 123.821,290.236 123.943,288.492C124.43,280.902 125.323,273.108 126.256,264.87C129.219,238.934 132.263,212.148 122.644,189.622C114.121,169.694 115.014,146.397 115.907,123.872C116.15,117.499 116.394,111.452 116.435,105.486C116.516,84.34 120.047,71.515 130.396,54.712C132.872,50.694 135.47,46.757 138.027,42.901C146.996,29.345 155.438,16.56 158.807,0.61L160.633,1.016C157.184,17.291 148.254,30.847 139.569,43.916C137.053,47.731 134.414,51.708 131.979,55.686C121.833,72.124 118.383,84.705 118.302,105.445C118.261,111.452 118.017,117.499 117.774,123.872C116.922,146.194 115.988,169.247 124.349,188.81C134.171,211.824 131.086,238.854 128.123,265.032C127.19,273.23 126.297,280.982 125.81,288.532C125.688,290.278 125.567,291.982 125.445,293.606C124.39,307.608 123.618,317.714 135.104,327.942C137.012,329.646 138.879,331.188 140.705,332.69C148.336,339.022 154.911,344.46 157.995,355.702L156.209,356.27Z" transform="rotate(77.479 137.995 178.44)" fill="#2B9DF5"/>
<path d="M159.1,362.501C156.949,351.787 151.875,344.683 145.95,336.485C144.813,334.903 143.596,333.239 142.419,331.493C134.058,319.479 134.18,308.805 134.383,295.331C134.423,293.585 134.423,291.799 134.423,289.973C134.423,283.113 134.545,276.093 134.667,269.273C135.073,244.069 135.478,218.053 131.257,193.133C127.686,172.19 126.103,150.314 124.601,129.168C124.195,123.446 123.749,117.561 123.302,111.797C121.841,93.127 125.007,80.221 135.519,62.484C137.832,58.548 140.308,54.651 142.703,50.917C151.226,37.483 159.303,24.779 162.428,9.113L164.254,9.478C161.089,25.51 152.525,38.944 144.286,51.932C141.891,55.666 139.456,59.562 137.142,63.459C126.874,80.789 123.708,93.412 125.169,111.675C125.616,117.439 126.062,123.324 126.468,129.047C127.97,150.152 129.553,171.987 133.124,192.808C137.386,217.891 136.98,244.029 136.574,269.273C136.452,276.051 136.371,283.073 136.331,289.933C136.331,291.759 136.29,293.545 136.29,295.289C136.128,308.439 135.965,318.829 144.002,330.357C145.179,332.061 146.356,333.725 147.533,335.309C153.54,343.669 158.775,350.933 161.007,362.055L159.1,362.501Z" transform="rotate(77.479 143.61 185.807)" fill="#2B9DF5"/>
<path d="M161.559,368.656C160.463,357.496 157.013,347.794 153.361,337.526C152.792,335.944 152.224,334.36 151.697,332.778C147.922,321.9 147.313,311.47 146.664,300.43C146.461,297.224 146.299,293.936 146.014,290.608C145.527,284.926 145.04,279.204 144.553,273.644C142.199,247.302 140.008,222.422 140.738,196.203C140.819,193.687 140.901,191.171 141.022,188.654C141.388,178.914 141.793,168.807 140.738,159.107C139.845,150.828 137.451,142.71 135.178,134.877C133.595,129.438 131.931,123.797 130.794,118.155C126.046,94.899 137.207,76.229 148.003,58.209C155.512,45.668 163.264,32.72 165.902,18.15L167.728,18.475C165.05,33.37 157.216,46.479 149.627,59.142C138.506,77.69 128.035,95.224 132.621,117.749C133.757,123.35 135.381,128.911 136.964,134.309C139.277,142.223 141.712,150.462 142.605,158.904C143.66,168.726 143.255,178.914 142.889,188.695C142.808,191.211 142.686,193.728 142.605,196.244C141.834,222.382 144.066,247.18 146.38,273.48C146.867,279.042 147.394,284.764 147.841,290.446C148.125,293.774 148.328,297.102 148.49,300.308C149.14,311.226 149.748,321.536 153.442,332.128C154.01,333.712 154.578,335.294 155.106,336.878C158.799,347.268 162.249,357.048 163.386,368.454L161.559,368.656Z" transform="rotate(77.479 148.699 193.403)" fill="#2B9DF5"/>
<path d="M163.797,374.612C163.716,345.268 162.133,319.496 159.089,298.026C157.75,288.69 155.396,279.396 153.082,270.386C151.134,262.674 149.105,254.68 147.725,246.684C145.005,230.896 147.238,215.878 149.592,203.053C150.079,200.415 150.606,197.776 151.175,194.976C153.447,183.815 155.761,172.329 154.259,161.451C153.082,153.091 149.024,145.623 145.127,138.358C142.976,134.38 140.744,130.24 138.999,125.979C129.948,103.981 141.556,83.809 152.798,64.328C159.779,52.233 166.963,39.732 169.073,26.988L170.94,27.272C168.789,40.341 161.524,53.004 154.462,65.261C142.936,85.23 132.099,104.102 140.784,125.248C142.489,129.429 144.721,133.487 146.832,137.424C150.809,144.811 154.949,152.401 156.167,161.127C157.75,172.288 155.355,183.977 153.082,195.301C152.514,198.101 151.986,200.739 151.499,203.337C149.186,216 146.954,230.854 149.632,246.318C151.012,254.232 153.042,262.188 154.99,269.858C157.303,278.91 159.657,288.284 161.037,297.702C164.122,319.294 165.705,345.146 165.786,374.572L163.797,374.612Z" transform="rotate(77.479 153.348 200.8)" fill="#2B9DF5"/>
<path d="M166.858,379.656L164.991,379.494C166.006,366.546 167.223,353.762 168.4,341.91C168.725,338.622 169.171,335.214 169.577,331.926C171.12,320.074 172.702,307.778 169.983,296.576C167.954,288.174 164.504,280.096 161.135,272.304C158.254,265.566 155.25,258.626 153.18,251.442C148.553,235.492 152.693,221.002 157.077,205.661L157.117,205.539C157.97,202.617 158.944,199.532 160.039,196.285C163.895,184.474 168.278,171.081 165.843,159.879C164.139,152.127 158.781,146.282 153.586,140.641C150.705,137.516 147.742,134.269 145.388,130.738C135.769,116.248 141.329,102.286 149,86.904C151.029,82.805 153.221,78.746 155.331,74.85C162.353,61.821 168.968,49.524 171.12,34.71L172.986,34.994C170.795,50.133 164.098,62.593 156.995,75.783C154.885,79.68 152.734,83.738 150.705,87.797C143.318,102.692 137.92,116.086 146.971,129.764C149.243,133.173 152.166,136.379 155.007,139.464C160.364,145.308 165.924,151.356 167.71,159.595C170.267,171.324 165.803,184.961 161.866,196.975C160.81,200.222 159.796,203.266 158.984,206.148L158.944,206.269C154.641,221.327 150.583,235.574 155.047,250.996C157.117,258.058 160.08,264.958 162.921,271.654C166.29,279.528 169.821,287.686 171.85,296.25C174.651,307.778 173.027,320.238 171.485,332.292C171.038,335.742 170.632,338.988 170.308,342.236C169.09,353.964 167.873,366.708 166.858,379.656Z" transform="rotate(77.479 156.828 207.183)" fill="#2B9DF5"/>
<path d="M167.446,386.544L165.579,386.3C167.364,372.136 170.449,358.376 173.452,345.552C174.102,342.792 174.832,339.99 175.644,337.028C179.013,324.406 182.787,310.078 178.769,298.064C176.172,290.394 171.788,283.412 167.486,276.676C163.793,270.83 159.937,264.784 157.299,258.25C151.13,243.192 156.487,228.378 161.682,214.051C162.129,212.833 162.575,211.615 163.022,210.398C164.077,207.435 165.457,204.107 166.877,200.616C171.991,188.237 178.323,172.855 175.198,161.247C173.168,153.82 166.674,149.477 160.384,145.256C156.852,142.862 153.159,140.426 150.359,137.423C138.183,124.516 145.488,108.931 151.942,95.213C153.849,91.195 155.838,87.217 157.786,83.402C164.361,70.496 170.571,58.279 172.478,43.708L174.345,43.952C172.397,58.847 166.106,71.186 159.45,84.254C157.502,88.07 155.473,92.047 153.606,96.025C147.396,109.215 140.374,124.192 151.657,136.165C154.336,139.006 157.745,141.279 161.358,143.714C167.933,148.097 174.711,152.684 176.943,160.76C180.271,172.977 173.777,188.684 168.582,201.347C167.161,204.837 165.782,208.084 164.767,211.047C164.32,212.265 163.874,213.482 163.428,214.741C158.354,228.702 153.159,243.151 159.044,257.56C161.642,263.972 165.457,269.938 169.11,275.702C173.452,282.52 177.917,289.622 180.555,297.496C184.776,310.038 180.88,324.648 177.471,337.556C176.699,340.518 175.928,343.318 175.319,346.038C172.316,358.782 169.231,372.46 167.446,386.544Z" transform="rotate(77.479 163.096 215.126)" fill="#2B9DF5"/>
<path d="M171.823,394.279L169.956,394.035C171.944,379.627 175.881,366.639 180.792,351.175C181.604,348.659 182.497,346.021 183.512,343.261C188.26,329.787 193.618,314.567 188.666,302.065C185.785,294.761 180.63,288.673 175.678,282.747C171.336,277.593 166.871,272.275 163.787,266.065C156.481,251.373 163.015,235.585 168.779,221.623C169.428,219.999 170.118,218.416 170.727,216.834C171.904,213.871 173.487,210.461 175.151,206.89C181.32,193.618 189.031,177.059 185.297,165.248C182.943,157.78 175.638,154.574 168.616,151.448C164.598,149.663 160.499,147.836 157.333,145.279C144.061,134.361 151.692,117.437 157.293,105.058L157.78,103.962C159.566,100.025 161.433,96.129 163.3,92.354C169.55,79.488 175.435,67.353 177.302,52.945L179.169,53.188C177.302,67.88 171.336,80.178 165.004,93.166C163.178,96.941 161.311,100.796 159.525,104.733L159.038,105.829C153.396,118.33 146.415,133.834 158.551,143.818C161.514,146.253 165.329,147.958 169.387,149.744C176.815,153.031 184.526,156.441 187.124,164.72C191.061,177.262 183.187,194.146 176.896,207.742C175.232,211.314 173.649,214.682 172.513,217.605C171.863,219.188 171.214,220.77 170.565,222.394C164.923,235.95 158.591,251.332 165.491,265.253C168.454,271.221 172.878,276.455 177.14,281.529C182.213,287.535 187.408,293.787 190.411,301.375C195.607,314.527 190.127,330.111 185.297,343.871C184.323,346.631 183.39,349.227 182.619,351.743C177.708,367.127 173.811,380.033 171.823,394.279Z" transform="rotate(77.479 171.242 223.611)" fill="#2B9DF5"/>
<path d="M179.502,401.689L177.635,401.485C179.299,386.185 184.17,372.547 189.324,358.139L189.365,357.977C190.176,355.703 191.069,353.349 192.043,350.873C197.117,337.723 203.408,321.327 198.172,308.217C195.29,300.993 189.811,295.269 184.535,289.751C179.908,284.879 175.119,279.887 171.912,273.799C164.241,259.108 171.222,242.914 177.392,228.627C178.082,227.044 178.731,225.502 179.38,224C180.598,221.078 182.262,217.669 184.007,214.056C190.582,200.5 198.781,183.616 194.884,171.481C192.449,163.81 184.86,161.091 177.554,158.453C173.333,156.91 168.99,155.368 165.662,152.852C152.268,142.746 159.818,125.74 165.297,113.32L166.068,111.534C167.772,107.638 169.599,103.782 171.344,100.089C177.432,87.182 183.155,74.966 185.144,60.679L187.011,60.923C184.981,75.494 179.177,87.832 173.049,100.901C171.304,104.594 169.477,108.45 167.813,112.306L167.042,114.091C161.806,125.943 154.622,142.177 166.798,151.35C169.883,153.663 173.942,155.125 178.203,156.707C185.955,159.508 193.951,162.43 196.67,170.953C200.77,183.819 192.409,201.069 185.671,214.909C183.926,218.48 182.303,221.849 181.085,224.731C180.436,226.232 179.786,227.815 179.096,229.358C173.089,243.238 166.311,258.986 173.576,272.907C176.62,278.751 181.329,283.703 185.874,288.451C191.272,294.093 196.873,299.937 199.917,307.527C205.437,321.327 198.984,338.089 193.829,351.563C192.896,354.039 191.962,356.393 191.191,358.625L191.151,358.789C185.955,373.075 181.126,386.589 179.502,401.689Z" transform="rotate(77.479 180.097 231.184)" fill="#2B9DF5"/>
<path d="M187.715,408.886L185.848,408.682C187.471,393.178 192.666,379.378 197.659,366.026C198.43,363.996 199.241,361.886 200.134,359.694C205.573,346.016 211.702,330.554 206.466,317.16C203.584,309.732 198.227,303.684 193.072,297.8C188.567,292.646 183.9,287.368 180.774,281.078C173.307,266.142 180.206,250.11 186.254,235.946C186.862,234.485 187.471,233.064 188.08,231.684C189.298,228.762 190.921,225.434 192.626,221.903C199.038,208.631 206.993,192.153 203.3,179.977C200.987,172.306 193.397,168.694 186.051,165.244C181.911,163.296 177.609,161.266 174.402,158.506C161.739,147.67 168.436,131.882 173.794,119.178C174.118,118.447 174.402,117.717 174.727,116.986C176.351,113.09 178.055,109.234 179.76,105.541C185.604,92.472 191.124,80.134 193.194,65.928L195.061,66.212C192.95,80.702 187.39,93.162 181.505,106.353C179.841,110.086 178.136,113.902 176.513,117.757C176.229,118.488 175.904,119.218 175.579,119.949C170.181,132.693 164.053,147.142 175.661,157.126C178.664,159.724 182.682,161.591 186.903,163.58C194.615,167.233 202.57,170.966 205.167,179.449C209.063,192.315 200.905,209.159 194.371,222.714C192.666,226.205 191.083,229.533 189.866,232.415C189.298,233.835 188.648,235.256 188.039,236.717C182.114,250.476 175.417,266.102 182.52,280.266C185.523,286.314 190.109,291.508 194.533,296.582C199.81,302.588 205.248,308.798 208.252,316.51C213.731,330.594 207.44,346.462 201.92,360.424C201.068,362.616 200.215,364.686 199.485,366.716C194.452,379.946 189.298,393.624 187.715,408.886Z" transform="rotate(77.479 188.761 237.407)" fill="#2B9DF5"/>
<path d="M195.104,416.102L193.237,415.898C194.779,401.734 199.366,389.558 205.21,375.11C205.9,373.446 206.59,371.74 207.321,370.036C212.881,356.724 219.213,341.666 214.22,327.786C211.42,319.992 206.306,313.336 201.354,306.924C197.052,301.322 192.588,295.518 189.584,288.944C182.522,273.48 189.3,257.489 195.266,243.446C195.753,242.351 196.2,241.214 196.646,240.118C197.864,237.237 199.406,234.03 201.03,230.621C207.199,217.755 214.829,201.764 211.339,189.629C208.985,181.389 201.436,176.438 194.171,171.608C190.234,169.011 186.134,166.332 183.05,163.166C171.117,151.112 177.084,135.851 182.279,122.376L183.05,120.428C184.552,116.532 186.134,112.676 187.677,108.942C193.115,95.711 198.27,83.17 200.218,68.964L202.085,69.208C200.096,83.657 194.942,96.279 189.422,109.632C187.88,113.366 186.297,117.222 184.795,121.078L184.024,123.026C178.748,136.582 173.309,150.625 184.349,161.827C187.311,164.83 191.127,167.346 195.185,170.025C202.775,175.017 210.568,180.172 213.125,189.101C216.818,201.967 208.985,218.323 202.694,231.433C201.07,234.802 199.528,238.008 198.351,240.849C197.905,241.945 197.418,243.041 196.931,244.177C190.843,258.585 184.511,273.44 191.248,288.172C194.171,294.544 198.554,300.268 202.816,305.788C207.848,312.362 213.084,319.14 215.966,327.176C221.201,341.706 214.748,357.17 209.025,370.766C208.295,372.472 207.605,374.176 206.915,375.84C201.192,390.126 196.646,402.14 195.104,416.102Z" transform="rotate(77.479 196.999 242.533)" fill="#2B9DF5"/>
<path d="M204.038,424.711L202.171,424.509C203.47,413.063 208.543,401.617 213.454,390.537C221.896,371.503 229.851,353.523 221.125,334.771C218.487,329.129 214.915,323.691 211.465,318.455C206.27,310.623 200.913,302.505 198.437,293.211C194.581,278.761 201.156,263.867 206.96,250.757C207.853,248.768 208.665,246.861 209.477,244.994C210.329,242.964 211.303,240.813 212.358,238.54C217.959,226.283 224.9,211.023 220.232,198.725C217.229,190.851 210.735,185.007 204.403,179.365C200.061,175.469 195.555,171.451 192.227,166.783C182.69,153.39 187.844,138.778 192.796,124.654L193.567,122.463C194.744,119.053 196.002,115.644 197.22,112.316C202.171,98.841 206.839,86.097 208.503,71.851L210.37,72.054C208.665,86.503 203.957,99.328 198.965,112.925C197.747,116.212 196.489,119.662 195.312,123.031L194.541,125.222C189.711,138.9 184.719,153.024 193.729,165.606C196.935,170.111 201.359,174.089 205.621,177.904C212.074,183.708 218.771,189.674 221.937,197.994C226.888,211.023 219.745,226.689 214.022,239.271C213.008,241.544 212.034,243.654 211.181,245.684C210.37,247.591 209.558,249.458 208.665,251.488C202.983,264.354 196.53,278.925 200.223,292.723C202.618,301.733 207.894,309.729 213.008,317.441C216.498,322.717 220.11,328.197 222.789,334.001C231.881,353.523 223.357,372.719 215.159,391.309C210.329,402.227 205.296,413.551 204.038,424.711Z" transform="rotate(77.479 206.79 248.281)" fill="#2B9DF5"/>
<path d="M213.052,434.235L211.185,434.033C212.565,422.507 217.801,411.711 222.874,401.319C230.87,384.841 238.459,369.257 231.803,351.115C229.206,344.093 225.512,337.395 221.9,330.943C217.638,323.313 213.214,315.397 210.617,306.793C205.787,290.843 211.956,276.151 217.923,261.904L218.085,261.539C219.181,258.901 220.439,256.141 221.778,253.259C227.136,241.57 233.224,228.339 231.479,216.123C229.977,205.408 222.468,196.6 215.244,188.077C212.322,184.627 209.521,181.34 207.126,177.971C192.191,156.866 200.308,132.595 208.141,109.096C211.956,97.609 215.934,85.758 216.948,74.719L218.816,74.881C217.76,86.164 213.783,98.137 209.927,109.704C202.215,132.717 194.26,156.541 208.669,176.875C211.023,180.203 213.742,183.41 216.664,186.86C224.092,195.586 231.763,204.637 233.346,215.838C235.131,228.623 228.962,242.139 223.483,254.03C222.184,256.912 220.926,259.631 219.83,262.229L219.668,262.594C213.823,276.515 207.776,290.883 212.443,306.185C215,314.587 219.343,322.379 223.564,329.927C227.217,336.463 230.992,343.199 233.589,350.343C240.529,369.215 232.412,385.897 224.579,402.009C219.546,412.359 214.391,422.993 213.052,434.235Z" transform="rotate(77.479 217.496 254.477)" fill="#2B9DF5"/>
<path d="M219.629,441.546L217.762,441.302C219.263,429.572 224.621,419.548 229.816,409.848C237.568,395.318 244.914,381.558 239.151,363.294C236.756,355.746 233.266,348.4 229.897,341.338C225.92,332.976 221.78,324.332 219.385,315.158C215.286,299.492 220.156,285.814 226.447,270.838C227.462,268.443 228.558,266.008 229.694,263.451C234.97,251.681 240.45,239.505 239.029,227.207C237.649,215.356 230.425,204.763 223.444,194.494C220.562,190.273 217.843,186.296 215.529,182.237C202.176,159.021 208.914,134.832 215.367,111.454C218.655,99.643 222.023,87.427 222.876,75.332L224.743,75.454C223.89,87.711 220.481,100.049 217.153,111.941C210.497,136.009 204.165,158.697 217.112,181.263C219.426,185.281 222.104,189.218 224.946,193.398C232.048,203.829 239.435,214.625 240.855,226.923C242.357,239.748 236.513,252.736 231.358,264.182C230.222,266.738 229.126,269.133 228.111,271.528C221.739,286.708 217.193,299.532 221.13,314.63C223.484,323.642 227.584,332.206 231.521,340.484C234.93,347.628 238.42,355.014 240.896,362.686C246.903,381.68 239.394,395.764 231.439,410.7C226.366,420.278 221.09,430.14 219.629,441.546Z" transform="rotate(77.479 225.449 258.439)" fill="#2B9DF5"/>
<path d="M226.14,448.513L224.273,448.269C225.815,436.743 231.335,427.571 236.651,418.683C244.16,406.141 251.222,394.331 246.96,377.121C244.728,368.111 241.116,359.385 237.666,350.943C234.419,343.069 231.091,334.951 228.818,326.591C223.664,307.719 228.981,292.783 236.448,275.249C236.854,274.316 237.22,273.423 237.625,272.489C242.902,260.273 248.3,247.65 245.824,234.216C243.592,222.202 237.26,211.041 231.091,200.204C228.007,194.806 224.841,189.246 222.284,183.686C211.447,160.267 217.008,136.362 222.406,113.227C225.206,101.173 228.128,88.672 228.737,76.293L230.604,76.375C229.995,88.916 227.073,101.498 224.232,113.633C218.672,137.498 213.436,160.024 223.988,182.874C226.505,188.353 229.671,193.914 232.715,199.271C238.924,210.189 245.378,221.512 247.65,233.851C250.248,247.853 244.688,260.76 239.33,273.22C238.924,274.153 238.518,275.087 238.153,275.98C230.564,293.757 225.612,307.759 230.604,326.103C232.877,334.343 236.164,342.419 239.371,350.213C242.861,358.735 246.473,367.543 248.787,376.675C253.251,394.615 245.986,406.749 238.275,419.657C233.08,428.341 227.641,437.393 226.14,448.513Z" transform="rotate(77.479 233.116 262.404)" fill="#2B9DF5"/>
<path d="M232.486,455.011L230.619,454.971C230.822,444.337 236.91,436.383 242.795,428.671C243.972,427.129 245.189,425.505 246.366,423.923C254.808,412.233 256.959,402.979 254.281,389.667C252.211,379.359 248.558,369.251 244.986,359.511C242.389,352.367 239.71,344.981 237.64,337.553C232.201,317.869 235.57,303.259 242.267,287.349C243.079,285.481 243.931,283.533 244.743,281.665C249.37,271.154 254.118,260.317 253.591,248.831C252.901,233.773 245.514,219.243 238.411,205.2C234.84,198.179 231.471,191.523 228.873,184.826C219.944,161.773 224.693,138.111 229.279,115.22C231.714,103.084 234.231,90.543 234.677,78.205L236.544,78.286C236.098,90.787 233.541,103.409 231.106,115.626C226.56,138.232 221.892,161.651 230.619,184.176C233.176,190.833 236.544,197.408 240.075,204.389C247.3,218.594 254.727,233.327 255.458,248.79C256.026,260.723 251.155,271.803 246.447,282.477C245.636,284.345 244.783,286.253 244.012,288.159C237.275,304.151 234.19,317.909 239.466,337.147C241.496,344.495 244.174,351.841 246.772,358.943C250.344,368.765 254.078,378.911 256.148,389.383C258.867,403.101 256.553,413.127 247.908,425.099C246.731,426.723 245.514,428.305 244.337,429.889C238.614,437.235 232.689,444.947 232.486,455.011Z" transform="rotate(77.479 240.53 266.608)" fill="#2B9DF5"/>
<path d="M241.524,463.05L239.657,463.05C239.738,452.822 245.217,446.206 251.021,439.144C252.523,437.318 254.106,435.41 255.526,433.462C264.05,421.936 266.079,413.492 263.522,400.018C261.493,389.384 258.002,378.872 254.593,368.766C252.117,361.38 249.56,353.708 247.571,346.038C243.066,328.504 244.324,314.542 252.036,296.156C252.766,294.412 253.538,292.626 254.309,290.84C258.814,280.531 263.481,269.857 262.954,258.493C262.264,242.867 254.999,227.444 248.018,212.549C244.527,205.081 241.24,198.059 238.683,190.997C230.2,167.457 234.462,143.267 238.602,119.93C240.712,107.997 242.904,95.7 243.391,83.564L245.258,83.645C244.771,95.903 242.579,108.281 240.469,120.295C236.369,143.43 232.148,167.335 240.469,190.429C242.985,197.41 246.273,204.431 249.763,211.818C256.825,226.916 264.131,242.502 264.861,258.493C265.389,270.303 260.64,281.181 256.054,291.692C255.283,293.478 254.512,295.224 253.781,296.968C246.11,315.152 244.933,328.342 249.398,345.632C251.346,353.262 253.903,360.852 256.379,368.238C259.788,378.426 263.319,388.978 265.389,399.734C268.027,413.656 265.835,422.788 257.069,434.68C255.608,436.668 254.025,438.576 252.482,440.442C246.881,447.098 241.646,453.47 241.524,463.05Z" transform="rotate(77.479 250.111 273.307)" fill="#2B9DF5"/>
<path d="M249.752,469.497L247.885,469.457C248.128,459.269 253.486,452.653 259.168,445.633C260.629,443.847 262.131,441.979 263.551,440.031C271.953,428.545 273.901,420.143 271.303,406.587C269.274,395.995 265.987,385.523 262.861,375.377C260.548,367.989 258.194,360.319 256.286,352.649C251.944,335.075 253.08,321.559 260.467,302.807C261.238,300.859 262.09,298.831 262.902,296.841C267.123,286.614 271.506,276.061 270.979,265.184C270.248,249.721 263.267,234.095 256.489,218.956C253.121,211.447 249.955,204.385 247.52,197.323C239.118,173.134 243.258,147.97 247.276,123.658C249.103,112.538 251.01,101.052 251.659,89.809L253.526,89.931C252.836,101.255 250.969,112.822 249.103,123.983C245.125,148.092 241.026,173.012 249.265,196.755C251.659,203.736 254.825,210.757 258.194,218.225C265.053,233.486 272.115,249.315 272.846,265.144C273.373,276.427 268.909,287.182 264.607,297.613C263.754,299.643 262.943,301.591 262.212,303.539C254.988,321.883 253.892,335.075 258.113,352.201C259.98,359.791 262.374,367.421 264.647,374.809C267.813,384.995 271.1,395.549 273.13,406.223C275.849,420.347 273.82,429.155 265.053,441.127C263.633,443.075 262.09,444.983 260.629,446.809C255.191,453.547 249.995,459.959 249.752,469.497Z" transform="rotate(77.479 258.443 279.653)" fill="#2B9DF5"/>
<path d="M258.421,474.638L256.554,474.558C256.96,464.614 261.871,457.592 267.106,450.206C268.405,448.338 269.785,446.43 271.043,444.442C278.714,432.55 280.54,423.986 278.227,410.552C276.482,400.406 273.844,390.3 271.327,380.478C269.46,373.294 267.553,365.906 266.01,358.52C261.911,339.282 264.225,325.198 269.298,308.72C270.029,306.366 270.8,304.052 271.611,301.576C274.98,291.39 278.43,280.878 277.984,270.569C277.334,255.633 271.287,240.372 265.402,225.639C262.479,218.293 259.72,211.353 257.609,204.453C249.938,179.574 253.469,153.192 256.919,127.663C258.299,117.476 259.72,106.923 260.369,96.736L262.236,96.858C261.587,107.086 260.166,117.679 258.786,127.907C255.377,153.233 251.846,179.452 259.395,203.885C261.505,210.744 264.265,217.644 267.147,224.949C273.073,239.845 279.161,255.227 279.851,270.488C280.338,281.162 276.807,291.836 273.397,302.186C272.586,304.662 271.814,306.974 271.124,309.288C266.173,325.482 263.9,339.282 267.877,358.114C269.42,365.46 271.327,372.848 273.194,379.99C275.751,389.812 278.349,400 280.135,410.228C282.529,424.19 280.662,433.078 272.707,445.456C271.409,447.446 270.069,449.394 268.73,451.26C263.616,458.444 258.827,465.222 258.421,474.638Z" transform="rotate(77.479 267.067 285.687)" fill="#2B9DF5"/>
<path d="M269.042,479.992L267.175,479.748C268.555,469.236 272.533,461.89 277.119,453.406C278.052,451.662 279.067,449.836 280.041,447.968C286.251,436.036 287.752,426.66 285.804,412.008C284.627,403.242 283.044,394.394 281.502,385.83C280.082,377.916 278.621,369.676 277.484,361.56C275.049,344.026 277.525,328.482 280.772,311.476C281.137,309.608 281.502,307.742 281.867,305.874C284.14,294.47 286.494,282.659 284.952,271.133C283.288,258.672 279.635,246.294 276.064,234.28C274.278,228.232 272.411,221.982 270.868,215.854C264.009,188.863 266.485,160.209 268.839,132.529C269.61,123.6 270.381,114.387 270.828,105.498L272.695,105.58C272.248,114.549 271.477,123.762 270.706,132.691C268.352,160.25 265.917,188.742 272.695,215.407C274.237,221.536 276.104,227.745 277.89,233.793C281.462,245.847 285.155,258.307 286.819,270.93C288.402,282.822 286.007,294.754 283.694,306.32C283.329,308.188 282.963,310.054 282.598,311.922C279.392,328.766 276.916,344.148 279.31,361.396C280.447,369.474 281.908,377.672 283.329,385.586C284.871,394.15 286.454,403.038 287.631,411.846C289.619,426.904 288.077,436.604 281.665,448.902C280.69,450.81 279.676,452.636 278.742,454.38C274.278,462.62 270.381,469.804 269.042,479.992Z" transform="rotate(77.479 277.42 292.745)" fill="#2B9DF5"/>
<path d="M279.571,483.367L277.704,483.205C278.719,472.693 282.209,464.211 285.862,455.241C286.593,453.495 287.323,451.709 288.013,449.883C293.29,436.651 293.898,426.139 293.168,413.437C292.965,409.987 292.762,406.495 292.559,403.087C290.854,373.621 289.231,345.737 290.895,316.475C291.057,313.471 291.301,310.346 291.504,307.383C292.234,296.831 293.006,285.913 292.113,275.32C291.139,263.671 288.906,251.942 286.715,240.577C285.619,234.855 284.482,228.929 283.549,223.085C278.719,193.456 279.693,162.083 280.667,131.765C280.87,125.798 281.032,119.629 281.195,113.663L283.062,113.704C282.899,119.71 282.737,125.88 282.534,131.846C281.56,162.083 280.586,193.375 285.416,222.801C286.349,228.604 287.486,234.53 288.582,240.253C290.773,251.658 293.005,263.428 293.98,275.198C294.872,285.913 294.101,296.912 293.371,307.545C293.168,310.508 292.965,313.593 292.762,316.637C291.098,345.779 292.681,373.579 294.426,403.005C294.629,406.455 294.832,409.905 295.035,413.395C295.765,425.977 295.116,437.139 289.759,450.655C289.028,452.481 288.297,454.267 287.567,456.011C283.833,465.143 280.545,473.139 279.571,483.367Z" transform="rotate(77.479 286.493 298.515)" fill="#2B9DF5"/>
<path d="M288.877,486.071L287.01,485.949C287.7,474.463 290.663,464.397 293.788,453.763C294.154,452.587 294.478,451.409 294.844,450.193C298.131,438.909 298.578,427.991 299.024,416.425C299.065,414.963 299.146,413.461 299.186,411.959C299.389,407.577 299.592,403.233 299.795,398.891C300.972,373.807 302.068,350.105 300.201,325.389C298.781,306.313 297.928,286.912 297.076,268.161C296.548,256.513 296.021,244.458 295.371,232.648C294.925,224.571 294.438,216.373 293.951,208.377C292.246,180.129 290.501,150.866 290.257,122.333L292.124,122.333C292.368,150.825 294.113,180.047 295.818,208.296C296.305,216.251 296.792,224.49 297.238,232.567C297.888,244.418 298.415,256.472 298.943,268.121C299.755,286.872 300.607,306.272 302.068,325.307C303.935,350.145 302.839,373.889 301.662,399.053C301.459,403.395 301.256,407.739 301.053,412.121C300.972,413.623 300.932,415.125 300.891,416.587C300.445,428.235 299.998,439.275 296.629,450.801C296.264,452.019 295.939,453.195 295.574,454.373C292.49,464.885 289.567,474.829 288.877,486.071Z" transform="rotate(77.479 295.041 304.202)" fill="#2B9DF5"/>
<path d="M294.772,488.312L292.905,488.27C293.19,476.582 295.219,465.786 297.329,454.38C297.613,452.92 297.857,451.458 298.141,449.998C299.399,443.22 299.886,436.28 300.333,429.542C300.779,423.25 301.226,416.716 302.322,410.304C303.296,404.662 304.513,398.94 305.69,393.46C307.435,385.464 309.221,377.226 310.155,368.986C311.656,355.958 308.978,342.808 306.38,330.064C306.015,328.36 305.69,326.614 305.325,324.91L305.081,323.692C302.159,308.918 299.359,294.916 300.252,279.94C300.82,270.361 301.55,260.62 302.24,251.164C302.727,244.792 303.214,238.217 303.62,231.723C305,211.429 302.322,191.379 299.724,171.938C297.979,158.788 296.152,145.151 295.584,131.474L297.451,131.392C298.019,144.989 299.805,158.545 301.55,171.654C304.148,191.136 306.827,211.308 305.447,231.804C305,238.298 304.513,244.873 304.067,251.245C303.377,260.661 302.646,270.402 302.078,279.98C301.185,294.713 303.945,308.594 306.867,323.246L307.111,324.463C307.435,326.168 307.801,327.872 308.166,329.577C310.804,342.442 313.523,355.756 311.981,369.068C311.007,377.388 309.221,385.708 307.476,393.704C306.299,399.182 305.041,404.864 304.107,410.466C303.052,416.798 302.606,423.25 302.159,429.502C301.672,436.28 301.185,443.3 299.927,450.16C299.643,451.62 299.399,453.082 299.115,454.544C297.086,466.07 295.057,476.784 294.772,488.312Z" transform="rotate(77.479 302.668 309.852)" fill="#2B9DF5"/>
<path d="M299.755,491.813C299.714,479.961 300.891,468.111 302.068,456.665C302.231,455.123 302.393,453.581 302.515,452.037C302.961,447.695 303.123,443.271 303.286,439.009C303.651,430.203 304.016,421.071 306.655,412.181C308.197,406.905 310.226,401.751 312.174,396.719C315.015,389.493 317.897,382.025 319.439,374.273C321.915,361.529 317.816,348.501 313.798,335.92C313.148,333.89 312.54,331.901 311.931,329.913C311.484,328.411 311.038,326.95 310.551,325.448C306.452,312.217 302.231,298.539 304.179,284.293C305.437,275.202 307.426,266.151 309.374,257.344C310.673,251.377 312.053,245.249 313.148,239.161C316.842,218.746 312.621,199.67 308.156,179.539C305.518,167.647 302.799,155.349 301.906,142.849L303.773,142.727C304.666,155.065 307.344,167.323 309.983,179.133C314.285,198.574 318.749,218.705 314.975,239.526C313.879,245.655 312.499,251.824 311.2,257.79C309.252,266.516 307.263,275.567 306.046,284.577C304.138,298.458 308.319,311.892 312.337,324.921C312.783,326.422 313.27,327.924 313.717,329.385C314.325,331.374 314.934,333.363 315.584,335.392C319.642,348.217 323.823,361.449 321.266,374.679C319.723,382.595 316.761,390.143 313.92,397.449C311.971,402.441 309.983,407.555 308.44,412.751C305.883,421.395 305.518,429.999 305.153,439.131C304.99,443.433 304.788,447.857 304.382,452.281C304.219,453.823 304.057,455.367 303.935,456.909C302.718,468.841 301.581,480.083 301.662,491.853L299.755,491.813Z" transform="rotate(77.479 310.901 317.29)" fill="#2B9DF5"/>
<path d="M307.073,496.498C306.91,484.12 307.316,472.026 307.682,462.894C307.844,458.834 307.803,454.654 307.722,450.23C307.56,440.448 307.398,430.342 309.995,421.332C312.024,414.23 315.637,407.816 319.086,401.566C322.049,396.29 325.093,390.812 327.123,385.008C332.237,370.478 326.92,356.394 321.765,342.756L320.994,340.686C319.979,337.967 318.884,335.288 317.707,332.407C312.511,319.581 307.113,306.31 308.696,292.632C309.833,282.688 313.364,273.069 316.773,263.775C318.559,258.864 320.426,253.79 321.887,248.798C327.813,228.383 322.293,209.997 316.408,190.556C313.039,179.395 309.549,167.828 308.412,155.814L310.279,155.652C311.416,167.463 314.865,178.949 318.194,190.029C323.876,208.902 329.761,228.383 323.673,249.366C322.212,254.399 320.345,259.513 318.518,264.465C315.15,273.678 311.659,283.175 310.563,292.916C309.062,306.107 314.338,319.135 319.452,331.757C320.629,334.639 321.725,337.358 322.739,340.078L323.51,342.148C328.787,356.068 334.225,370.478 328.908,385.698C326.798,391.622 323.713,397.184 320.71,402.54C317.301,408.67 313.729,415 311.781,421.9C309.265,430.626 309.427,440.61 309.589,450.23C309.67,454.492 309.711,458.874 309.549,463.014C309.183,472.146 308.737,484.202 308.94,496.498L307.073,496.498Z" transform="rotate(77.479 319.061 326.075)" fill="#2B9DF5"/>
<path d="M314.459,502.815C314.418,490.883 314.459,478.747 314.459,466.977L314.459,460.971C314.459,458.697 314.418,456.383 314.418,454.151C314.256,441.449 314.094,429.435 320.182,417.501C322.13,413.687 324.646,410.075 327.041,406.625C330.775,401.267 334.63,395.707 336.457,389.295C340.475,375.291 334.63,361.695 328.948,348.545L328.055,346.475C327.041,344.162 325.985,341.727 324.93,339.413C320.344,329.226 315.595,318.674 314.621,307.634C313.566,295.093 318.761,283.444 323.794,272.202C324.727,270.132 325.661,267.981 326.554,265.911C332.926,250.934 336.132,237.663 331.14,221.793C329.232,215.746 326.838,209.901 324.565,204.26C320.303,193.829 315.92,183.074 314.621,170.938L316.488,170.735C317.746,182.627 321.927,192.774 326.31,203.529C328.624,209.211 331.018,215.056 332.966,221.225C338.121,237.663 334.833,251.259 328.299,266.641C327.406,268.752 326.432,270.903 325.498,272.973C320.587,284.013 315.473,295.417 316.488,307.472C317.422,318.227 322.089,328.617 326.635,338.642C327.69,340.996 328.786,343.391 329.801,345.745L330.693,347.815C336.213,360.64 342.504,375.171 338.283,389.821C336.376,396.519 332.398,402.201 328.583,407.721C326.229,411.129 323.753,414.701 321.846,418.395C315.96,429.881 316.123,441.691 316.285,454.151C316.326,456.383 316.326,458.697 316.326,460.971L316.326,466.977C316.285,478.707 316.285,490.843 316.326,502.775L314.459,502.815Z" transform="rotate(77.479 327.015 336.775)" fill="#2B9DF5"/>
</svg>
