<svg width="38" height="36" viewBox="0 0 38 36" fill="none" xmlns="http://www.w3.org/2000/svg" xmlns:xlink="http://www.w3.org/1999/xlink">
<path d="M20.17,8.573L17.914,9.65C18.229,10.31 18.817,10.798 19.523,10.987C20.229,11.176 20.982,11.047 21.584,10.634L20.17,8.573ZM3.864,16.31L6.168,15.339L6.168,15.339L3.864,16.31ZM30.423,23.426L31.933,25.419L30.423,23.426ZM11.023,28.616L13.126,27.263L11.023,28.616ZM13.064,31.164L11.743,33.287L11.743,33.287L13.064,31.164ZM18.069,30.504L19.213,32.727L19.213,32.727L18.069,30.504ZM15.029,31.69L14.946,29.192L15.029,31.69ZM22.426,7.495C19.849,2.102 13.647,-1.066 7.505,1.865L9.658,6.377C12.883,4.838 16.313,6.301 17.914,9.65L22.426,7.495ZM7.505,1.865C1.629,4.669 -0.925,11.383 1.56,17.28L6.168,15.339C4.731,11.93 6.167,8.043 9.658,6.377L7.505,1.865ZM31.933,25.419C37.005,21.576 38.284,14.458 34.473,9.068L30.39,11.955C32.605,15.086 31.891,19.178 28.913,21.433L31.933,25.419ZM34.473,9.068C30.556,3.53 23.707,3.113 18.755,6.511L21.584,10.634C24.622,8.55 28.28,8.971 30.39,11.955L34.473,9.068ZM1.56,17.28C2.875,20.4 6.486,26.186 8.921,29.969L13.126,27.263C10.609,23.353 7.277,17.971 6.168,15.339L1.56,17.28ZM19.213,32.727C23.213,30.668 29.235,27.463 31.933,25.419L28.913,21.433C26.637,23.158 21.06,26.153 16.925,28.281L19.213,32.727ZM8.921,29.969C9.357,30.646 9.763,31.28 10.152,31.788C10.566,32.328 11.06,32.862 11.743,33.287L14.385,29.041C14.383,29.04 14.38,29.039 14.374,29.034C14.368,29.029 14.356,29.019 14.337,29C14.296,28.96 14.227,28.886 14.12,28.746C13.885,28.439 13.605,28.008 13.126,27.263L8.921,29.969ZM16.925,28.281C16.138,28.687 15.679,28.92 15.322,29.068C15.16,29.136 15.063,29.166 15.008,29.18C14.982,29.187 14.966,29.189 14.958,29.191C14.951,29.192 14.948,29.192 14.946,29.192L15.111,34.189C15.915,34.162 16.609,33.948 17.238,33.687C17.829,33.442 18.498,33.095 19.213,32.727L16.925,28.281ZM11.743,33.287C12.736,33.905 13.942,34.228 15.111,34.189L14.946,29.192C14.766,29.198 14.537,29.136 14.385,29.041L11.743,33.287Z" fill="#2B9DF5"/>
</svg>
