<svg width="68" height="68" viewBox="0 0 68 68" fill="none" xmlns="http://www.w3.org/2000/svg" xmlns:xlink="http://www.w3.org/1999/xlink">
<path d="M8.884,19.872C7.654,19.246 6.149,19.735 5.522,20.966C4.896,22.196 5.385,23.702 6.616,24.328L8.884,19.872ZM64.366,53.728C65.596,54.354 67.102,53.865 67.728,52.634C68.354,51.404 67.865,49.898 66.634,49.272L64.366,53.728ZM13,2.5L13,5L13,2.5ZM23.5,13L26,13L23.5,13ZM13,23.5L13,26L13,23.5ZM2.5,13L5,13L2.5,13ZM13,44.5L13,47L13,44.5ZM23.5,55L26,55L23.5,55ZM13,65.5L13,68L13,65.5ZM2.5,55L5,55L2.5,55ZM66.634,18.728C67.865,18.102 68.354,16.596 67.728,15.366C67.102,14.135 65.596,13.646 64.366,14.272L66.634,18.728ZM6.616,43.672C5.385,44.298 4.896,45.804 5.522,47.034C6.149,48.265 7.654,48.754 8.884,48.128L6.616,43.672ZM6.616,24.328L64.366,53.728L66.634,49.272L8.884,19.872L6.616,24.328ZM13,5C17.418,5 21,8.582 21,13L26,13C26,5.82 20.18,0 13,0L13,5ZM21,13C21,17.418 17.418,21 13,21L13,26C20.18,26 26,20.18 26,13L21,13ZM13,21C8.582,21 5,17.418 5,13L0,13C0,20.18 5.82,26 13,26L13,21ZM5,13C5,8.582 8.582,5 13,5L13,0C5.82,0 0,5.82 0,13L5,13ZM13,47C17.418,47 21,50.582 21,55L26,55C26,47.82 20.18,42 13,42L13,47ZM21,55C21,59.418 17.418,63 13,63L13,68C20.18,68 26,62.18 26,55L21,55ZM13,63C8.582,63 5,59.418 5,55L0,55C0,62.18 5.82,68 13,68L13,63ZM5,55C5,50.582 8.582,47 13,47L13,42C5.82,42 0,47.82 0,55L5,55ZM64.366,14.272L6.616,43.672L8.884,48.128L66.634,18.728L64.366,14.272Z" fill="#03254C"/>
</svg>
