<svg width="84" height="84" viewBox="0 0 84 84" fill="none" xmlns="http://www.w3.org/2000/svg" xmlns:xlink="http://www.w3.org/1999/xlink">
<path d="M21.322,76.237L22.457,74.01L21.322,76.237ZM18.263,73.178L20.49,72.043L18.263,73.178ZM65.737,73.178L63.51,72.043L65.737,73.178ZM62.678,76.237L61.543,74.01L62.678,76.237ZM62.678,7.763L61.543,9.99L62.678,7.763ZM65.737,10.822L63.51,11.957L65.737,10.822ZM21.322,7.763L22.457,9.99L21.322,7.763ZM18.263,10.822L20.49,11.957L18.263,10.822ZM28.7,9.5L55.3,9.5L55.3,4.5L28.7,4.5L28.7,9.5ZM64,18.2L64,65.8L69,65.8L69,18.2L64,18.2ZM55.3,74.5L28.7,74.5L28.7,79.5L55.3,79.5L55.3,74.5ZM20,65.8L20,18.2L15,18.2L15,65.8L20,65.8ZM28.7,74.5C26.699,74.5 25.348,74.498 24.306,74.413C23.293,74.33 22.795,74.182 22.457,74.01L20.187,78.465C21.347,79.056 22.577,79.288 23.899,79.396C25.192,79.502 26.781,79.5 28.7,79.5L28.7,74.5ZM15,65.8C15,67.719 14.998,69.308 15.104,70.601C15.212,71.923 15.444,73.153 16.035,74.313L20.49,72.043C20.319,71.705 20.17,71.207 20.087,70.194C20.002,69.152 20,67.801 20,65.8L15,65.8ZM22.457,74.01C21.61,73.578 20.922,72.89 20.49,72.043L16.035,74.313C16.946,76.1 18.4,77.554 20.187,78.465L22.457,74.01ZM64,65.8C64,67.801 63.998,69.152 63.913,70.194C63.83,71.207 63.682,71.705 63.51,72.043L67.965,74.313C68.556,73.153 68.788,71.923 68.896,70.601C69.002,69.308 69,67.719 69,65.8L64,65.8ZM55.3,79.5C57.219,79.5 58.808,79.502 60.101,79.396C61.423,79.288 62.653,79.056 63.813,78.465L61.543,74.01C61.205,74.182 60.707,74.33 59.694,74.413C58.652,74.498 57.301,74.5 55.3,74.5L55.3,79.5ZM63.51,72.043C63.078,72.89 62.39,73.578 61.543,74.01L63.813,78.465C65.6,77.554 67.054,76.1 67.965,74.313L63.51,72.043ZM55.3,9.5C57.301,9.5 58.652,9.502 59.694,9.587C60.707,9.67 61.205,9.818 61.543,9.99L63.813,5.535C62.653,4.944 61.423,4.712 60.101,4.604C58.808,4.498 57.219,4.5 55.3,4.5L55.3,9.5ZM69,18.2C69,16.281 69.002,14.692 68.896,13.399C68.788,12.077 68.556,10.847 67.965,9.687L63.51,11.957C63.682,12.295 63.83,12.793 63.913,13.806C63.998,14.848 64,16.199 64,18.2L69,18.2ZM61.543,9.99C62.39,10.422 63.078,11.11 63.51,11.957L67.965,9.687C67.054,7.9 65.6,6.446 63.813,5.535L61.543,9.99ZM28.7,4.5C26.781,4.5 25.192,4.498 23.899,4.604C22.577,4.712 21.347,4.944 20.187,5.535L22.457,9.99C22.795,9.818 23.293,9.67 24.306,9.587C25.348,9.502 26.699,9.5 28.7,9.5L28.7,4.5ZM20,18.2C20,16.199 20.002,14.848 20.087,13.806C20.17,12.793 20.319,12.295 20.49,11.957L16.035,9.687C15.444,10.847 15.212,12.077 15.104,13.399C14.998,14.692 15,16.281 15,18.2L20,18.2ZM20.187,5.535C18.4,6.446 16.946,7.9 16.035,9.687L20.49,11.957C20.922,11.11 21.61,10.422 22.457,9.99L20.187,5.535Z" fill="#03254C"/>
<path d="M42,58.75C40.619,58.75 39.5,59.869 39.5,61.25C39.5,62.631 40.619,63.75 42,63.75L42,58.75ZM42.035,63.75C43.416,63.75 44.535,62.631 44.535,61.25C44.535,59.869 43.416,58.75 42.035,58.75L42.035,63.75ZM42,63.75L42.035,63.75L42.035,58.75L42,58.75L42,63.75ZM41.25,61.25C41.25,60.836 41.586,60.5 42,60.5L42,65.5C44.347,65.5 46.25,63.597 46.25,61.25L41.25,61.25ZM42,60.5C42.414,60.5 42.75,60.836 42.75,61.25L37.75,61.25C37.75,63.597 39.653,65.5 42,65.5L42,60.5ZM42.75,61.25C42.75,61.664 42.414,62 42,62L42,57C39.653,57 37.75,58.903 37.75,61.25L42.75,61.25ZM42,62C41.586,62 41.25,61.664 41.25,61.25L46.25,61.25C46.25,58.903 44.347,57 42,57L42,62Z" fill="#2B9DF5"/>
</svg>
