<svg width="424" height="918" viewBox="0 0 424 918" fill="none" xmlns="http://www.w3.org/2000/svg" xmlns:xlink="http://www.w3.org/1999/xlink">
<path d="M-0.451,33.991C-0.451,14.776 15.126,-0.8 34.34,-0.8L388.767,-0.8C407.981,-0.8 423.559,14.776 423.559,33.991L423.559,882.008C423.559,901.222 407.981,916.8 388.767,916.8L34.34,916.8C15.126,916.8 -0.451,901.222 -0.451,882.008L-0.451,33.991Z" fill="url(#pattern_0_i_2_74;101_22)"/>
<path d="M-0.451,33.991C-0.451,14.776 15.126,-0.8 34.34,-0.8L388.767,-0.8C407.981,-0.8 423.559,14.776 423.559,33.991L423.559,882.008C423.559,901.222 407.981,916.8 388.767,916.8L34.34,916.8C15.126,916.8 -0.451,901.222 -0.451,882.008L-0.451,33.991Z" fill="url(#pattern_1_i_2_74;101_22)"/>
</svg>
