<svg width="884" height="1912" viewBox="0 0 884 1912" fill="none" xmlns="http://www.w3.org/2000/svg" xmlns:xlink="http://www.w3.org/1999/xlink">
<path d="M-0.772,72.648C-0.772,32.618 31.678,0.168 71.708,0.168L810.1,0.168C850.13,0.168 882.58,32.618 882.58,72.648L882.58,1839.352C882.58,1879.382 850.13,1911.832 810.1,1911.832L71.708,1911.832C31.678,1911.832 -0.772,1879.382 -0.772,1839.352L-0.772,72.648Z" fill="url(#pattern_0_i_2_372;101_22)"/>
<path d="M-0.772,72.648C-0.772,32.618 31.678,0.168 71.708,0.168L810.1,0.168C850.13,0.168 882.58,32.618 882.58,72.648L882.58,1839.352C882.58,1879.382 850.13,1911.832 810.1,1911.832L71.708,1911.832C31.678,1911.832 -0.772,1879.382 -0.772,1839.352L-0.772,72.648Z" fill="url(#pattern_1_i_2_372;101_22)"/>
</svg>
