<svg width="500" height="1082" viewBox="0 0 500 1082" fill="none" xmlns="http://www.w3.org/2000/svg" xmlns:xlink="http://www.w3.org/1999/xlink">
<path d="M0.074,41.906C0.074,19.29 18.408,0.955 41.025,0.955L458.216,0.955C480.834,0.955 499.168,19.29 499.168,41.906L499.168,1040.095C499.168,1062.711 480.834,1081.045 458.216,1081.045L41.025,1081.045C18.408,1081.045 0.074,1062.711 0.074,1040.095L0.074,41.906Z" fill="url(#pattern_0_i_2_75;101_22)"/>
<path d="M0.074,41.906C0.074,19.29 18.408,0.955 41.025,0.955L458.216,0.955C480.834,0.955 499.168,19.29 499.168,41.906L499.168,1040.095C499.168,1062.711 480.834,1081.045 458.216,1081.045L41.025,1081.045C18.408,1081.045 0.074,1062.711 0.074,1040.095L0.074,41.906Z" fill="url(#pattern_1_i_2_75;101_22)"/>
</svg>
