<svg width="780" height="1684" viewBox="0 0 780 1684" fill="none" xmlns="http://www.w3.org/2000/svg" xmlns:xlink="http://www.w3.org/1999/xlink">
<path d="M0.84,64.65C0.84,29.424 29.397,0.868 64.623,0.868L714.408,0.868C749.634,0.868 778.19,29.424 778.19,64.65L778.19,1619.35C778.19,1654.576 749.634,1683.132 714.408,1683.132L64.623,1683.132C29.397,1683.132 0.84,1654.576 0.84,1619.35L0.84,64.65Z" fill="url(#pattern_0_i_2_384;101_22)"/>
<path d="M0.84,64.65C0.84,29.424 29.397,0.868 64.623,0.868L714.408,0.868C749.634,0.868 778.19,29.424 778.19,64.65L778.19,1619.35C778.19,1654.576 749.634,1683.132 714.408,1683.132L64.623,1683.132C29.397,1683.132 0.84,1654.576 0.84,1619.35L0.84,64.65Z" fill="url(#pattern_1_i_2_384;101_22)"/>
</svg>
