<svg width="84" height="84" viewBox="0 0 84 84" fill="none" xmlns="http://www.w3.org/2000/svg" xmlns:xlink="http://www.w3.org/1999/xlink">
<path d="M42,56.75C43.381,56.75 44.5,55.631 44.5,54.25C44.5,52.869 43.381,51.75 42,51.75L42,56.75ZM16.936,54.853L17.662,57.245L16.936,54.853ZM4.5,73.5C4.5,74.881 5.619,76 7,76C8.381,76 9.5,74.881 9.5,73.5L4.5,73.5ZM7.603,64.186L9.995,64.912L7.603,64.186ZM26.25,56.75L42,56.75L42,51.75L26.25,51.75L26.25,56.75ZM26.25,51.75C21.547,51.75 18.642,51.723 16.21,52.46L17.662,57.245C19.205,56.777 21.184,56.75 26.25,56.75L26.25,51.75ZM9.5,73.5C9.5,68.434 9.527,66.455 9.995,64.912L5.21,63.46C4.473,65.892 4.5,68.797 4.5,73.5L9.5,73.5ZM16.21,52.46C10.937,54.06 6.81,58.187 5.21,63.46L9.995,64.912C11.11,61.236 13.986,58.36 17.662,57.245L16.21,52.46ZM48.25,26.25C48.25,33.568 42.318,39.5 35,39.5L35,44.5C45.079,44.5 53.25,36.329 53.25,26.25L48.25,26.25ZM35,39.5C27.682,39.5 21.75,33.568 21.75,26.25L16.75,26.25C16.75,36.329 24.921,44.5 35,44.5L35,39.5ZM21.75,26.25C21.75,18.932 27.682,13 35,13L35,8C24.921,8 16.75,16.171 16.75,26.25L21.75,26.25ZM35,13C42.318,13 48.25,18.932 48.25,26.25L53.25,26.25C53.25,16.171 45.079,8 35,8L35,13Z" fill="#03254C"/>
<path d="M57.768,61.232C56.791,60.256 55.209,60.256 54.232,61.232C53.256,62.209 53.256,63.791 54.232,64.768L57.768,61.232ZM63,70L61.232,71.768C62.209,72.744 63.791,72.744 64.768,71.768L63,70ZM78.768,57.768C79.744,56.791 79.744,55.209 78.768,54.232C77.791,53.256 76.209,53.256 75.232,54.232L78.768,57.768ZM54.232,64.768L61.232,71.768L64.768,68.232L57.768,61.232L54.232,64.768ZM64.768,71.768L78.768,57.768L75.232,54.232L61.232,68.232L64.768,71.768Z" fill="#2B9DF5"/>
</svg>
