<svg width="36" height="48" viewBox="0 0 36 48" fill="none" xmlns="http://www.w3.org/2000/svg" xmlns:xlink="http://www.w3.org/1999/xlink">
<path d="M21.439,11.92C24.159,11.92 26.719,12.4 28.959,13.52C31.199,14.64 32.799,16.24 34.079,18.64C35.359,21.04 35.999,23.76 35.999,27.44L35.999,47.44L25.919,47.44L25.919,29.04C25.919,26.16 25.279,24.08 23.999,22.8C22.719,21.52 20.959,20.72 18.719,20.72C17.119,20.72 15.679,21.04 14.399,21.68C13.119,22.32 12.159,23.44 11.359,24.72C10.719,26.16 10.239,27.92 10.239,30L10.239,47.44L0.159,47.44L0.159,-0.72L10.239,-0.72L10.239,22.16L7.999,19.28C9.279,16.88 11.039,15.12 13.439,13.84C15.839,12.56 18.559,11.92 21.439,11.92Z" fill="#2B9DF5"/>
</svg>
