<svg width="32" height="36" viewBox="0 0 32 36" fill="none" xmlns="http://www.w3.org/2000/svg" xmlns:xlink="http://www.w3.org/1999/xlink">
<path d="M15.359,35.92C12.319,35.92 9.439,35.6 6.719,34.8C3.999,34.16 1.759,33.2 0.159,32.08L3.519,24.88C5.119,25.84 7.039,26.64 9.279,27.28C11.519,27.92 13.599,28.24 15.679,28.24C18.079,28.24 19.679,27.92 20.639,27.44C21.599,26.96 22.079,26.16 22.079,25.04C22.079,24.24 21.759,23.6 20.959,23.12C20.159,22.64 19.199,22.32 17.919,22.16C16.639,22 15.359,21.68 13.759,21.52C12.319,21.36 10.719,21.04 9.279,20.72C7.839,20.4 6.399,19.76 5.119,19.12C3.839,18.32 2.879,17.36 2.079,16.08C1.279,14.8 0.959,13.2 0.959,11.28C0.959,9.04 1.599,7.12 2.879,5.36C4.159,3.6 6.079,2.32 8.479,1.36C10.879,0.4 13.759,-0.08 17.119,-0.08C19.519,-0.08 21.919,0.24 24.319,0.72C26.719,1.2 28.799,2 30.559,2.96L27.199,10.16C25.439,9.2 23.839,8.56 22.079,8.08C20.319,7.76 18.719,7.6 17.119,7.6C14.879,7.6 13.279,7.92 12.159,8.56C11.039,9.2 10.559,10 10.559,10.96C10.559,11.76 10.879,12.4 11.679,12.88C12.479,13.36 13.439,13.68 14.719,13.84C15.999,14.16 17.279,14.32 18.879,14.48C20.319,14.64 21.919,14.96 23.359,15.28C24.799,15.6 26.239,16.24 27.519,16.88C28.799,17.52 29.759,18.64 30.559,19.76C31.359,20.88 31.679,22.64 31.679,24.56C31.679,26.8 31.039,28.72 29.759,30.32C28.479,31.92 26.559,33.36 24.159,34.32C21.759,35.44 18.879,35.92 15.359,35.92Z" fill="#2B9DF5"/>
</svg>
