<svg width="34" height="38" viewBox="0 0 34 38" fill="none" xmlns="http://www.w3.org/2000/svg" xmlns:xlink="http://www.w3.org/1999/xlink">
<path d="M12.88,36.56C10.16,36.56 7.76,36.08 5.84,35.12C3.92,34.16 2.32,32.88 1.36,31.28C0.4,29.68 -0.24,27.92 -0.24,25.84C-0.24,23.76 0.24,22 1.36,20.4C2.32,18.8 3.92,17.68 6.16,16.72C8.4,15.76 11.28,15.44 14.8,15.44L24.08,15.44L24.08,21.36L15.92,21.36C13.52,21.36 11.92,21.68 10.96,22.48C10,23.28 9.68,24.24 9.68,25.36C9.68,26.64 10.16,27.76 11.28,28.4C12.24,29.2 13.68,29.52 15.44,29.52C17.2,29.52 18.64,29.04 19.92,28.24C21.2,27.44 22.16,26.32 22.8,24.72L24.4,29.36C23.6,31.6 22.32,33.36 20.4,34.48C18.48,35.92 15.92,36.56 12.88,36.56ZM23.6,35.92L23.6,29.04L22.96,27.6L22.96,15.44C22.96,13.2 22.32,11.6 21.04,10.32C19.76,9.04 17.68,8.56 14.96,8.56C13.04,8.56 11.28,8.88 9.52,9.36C7.76,10 6.16,10.8 4.88,11.76L1.2,4.72C3.12,3.44 5.36,2.32 8.08,1.52C10.8,0.72 13.52,0.4 16.24,0.4C21.52,0.4 25.68,1.68 28.72,4.24C31.76,6.8 33.2,10.64 33.2,16.08L33.2,36.08L23.6,36.08L23.6,35.92Z" fill="#000000"/>
</svg>
