<svg width="38" height="48" viewBox="0 0 38 48" fill="none" xmlns="http://www.w3.org/2000/svg" xmlns:xlink="http://www.w3.org/1999/xlink">
<path d="M18.4,46.24C14.72,46.24 11.2,45.76 8,44.8C4.64,43.84 1.92,42.56 0,40.96L3.52,32.96C5.44,34.4 7.84,35.52 10.4,36.32C13.12,37.28 15.84,37.6 18.56,37.6C20.64,37.6 22.24,37.44 23.52,36.96C24.8,36.48 25.76,36 26.4,35.2C27.04,34.4 27.36,33.6 27.36,32.64C27.36,31.36 26.88,30.4 25.92,29.76C24.96,29.12 23.68,28.48 22.08,28C20.48,27.52 18.72,27.04 16.96,26.72C15.04,26.24 13.12,25.76 11.36,25.12C9.6,24.48 7.68,24 6.08,23.04C4.48,22.08 3.2,20.8 2.24,19.2C1.28,17.6 0.8,15.68 0.8,13.28C0.8,10.72 1.44,8.32 2.88,6.24C4.32,4.16 6.4,2.4 9.28,1.12C12.16,-0.16 15.68,-0.8 20,-0.8C22.88,-0.8 25.6,-0.48 28.48,0.16C31.2,0.8 33.76,1.76 35.84,3.2L32.64,11.2C30.56,9.92 28.32,9.12 26.24,8.48C24.16,7.84 22.08,7.68 20,7.68C17.92,7.68 16.32,7.84 15.04,8.32C13.76,8.8 12.8,9.44 12.32,10.24C11.68,11.04 11.52,11.84 11.52,12.8C11.52,13.92 12,14.88 12.96,15.68C13.92,16.32 15.2,16.96 16.8,17.44C18.4,17.92 20.16,18.24 21.92,18.72C23.84,19.2 25.76,19.68 27.52,20.16C29.44,20.8 31.2,21.44 32.64,22.4C34.24,23.36 35.52,24.64 36.48,26.24C37.44,27.84 37.92,29.76 37.92,32.16C37.92,34.72 37.28,37.12 35.84,39.2C34.4,41.28 32.32,43.04 29.44,44.32C26.56,45.6 22.72,46.24 18.4,46.24Z" fill="#2B9DF5"/>
</svg>
