<svg width="38" height="36" viewBox="0 0 38 36" fill="none" xmlns="http://www.w3.org/2000/svg" xmlns:xlink="http://www.w3.org/1999/xlink">
<path d="M20,35.92C16,35.92 12.48,35.12 9.44,33.52C6.4,31.92 4.16,29.84 2.4,27.12C0.8,24.4 0,21.36 0,17.84C0,14.32 0.8,11.28 2.4,8.56C4,5.84 6.24,3.76 9.12,2.16C12,0.56 15.2,-0.08 18.72,-0.08C22.08,-0.08 25.28,0.72 28,2.16C30.72,3.6 32.96,5.68 34.56,8.4C36.16,11.12 36.96,14.32 36.96,18.16C36.96,18.48 36.96,18.96 36.96,19.44C36.96,19.92 36.8,20.4 36.8,20.88L8.32,20.88L8.32,14.96L31.36,14.96L27.52,16.72C27.52,14.96 27.2,13.36 26.4,11.92C25.6,10.64 24.64,9.52 23.36,8.72C22.08,7.92 20.48,7.6 18.88,7.6C17.12,7.6 15.68,7.92 14.24,8.72C12.96,9.52 11.84,10.48 11.2,11.92C10.4,13.36 10.08,14.96 10.08,16.72L10.08,18.32C10.08,20.24 10.56,21.84 11.36,23.28C12.16,24.72 13.44,25.84 14.88,26.64C16.48,27.44 18.24,27.76 20.32,27.76C22.24,27.76 23.84,27.44 25.28,26.96C26.72,26.32 28,25.52 29.12,24.4L34.56,30.32C32.96,32.08 30.88,33.52 28.48,34.48C25.92,35.44 23.04,35.92 20,35.92Z" fill="#2B9DF5"/>
</svg>
