<svg width="34" height="20" viewBox="0 0 34 20" fill="none" xmlns="http://www.w3.org/2000/svg" xmlns:xlink="http://www.w3.org/1999/xlink">
<path d="M32.414,3.914C33.195,3.133 33.195,1.867 32.414,1.086C31.633,0.305 30.367,0.305 29.586,1.086L32.414,3.914ZM16,17.5L14.586,18.914C15.367,19.695 16.633,19.695 17.414,18.914L16,17.5ZM2.414,1.086C1.633,0.305 0.367,0.305 -0.414,1.086C-1.195,1.867 -1.195,3.133 -0.414,3.914L2.414,1.086ZM29.586,1.086L14.586,16.086L17.414,18.914L32.414,3.914L29.586,1.086ZM17.414,16.086L2.414,1.086L-0.414,3.914L14.586,18.914L17.414,16.086Z" transform="rotate(-360 16 10)" fill="#000000"/>
</svg>
