<svg width="38" height="38" viewBox="0 0 38 38" fill="none" xmlns="http://www.w3.org/2000/svg" xmlns:xlink="http://www.w3.org/1999/xlink">
<path d="M20.88,36.561C16.88,36.561 13.36,35.761 10.32,34.161C7.28,32.561 5.04,30.481 3.28,27.761C1.68,25.041 0.88,22.001 0.88,18.481C0.88,14.961 1.68,11.921 3.28,9.201C4.88,6.481 7.12,4.401 10,2.801C12.88,1.201 16.08,0.561 19.6,0.561C22.96,0.561 26.16,1.361 28.88,2.801C31.6,4.241 33.84,6.321 35.44,9.041C37.04,11.761 37.84,14.961 37.84,18.801C37.84,19.121 37.84,19.601 37.84,20.081C37.84,20.561 37.68,21.041 37.68,21.521L9.2,21.521L9.2,15.601L32.24,15.601L28.4,17.361C28.4,15.601 28.08,14.001 27.28,12.561C26.48,11.281 25.52,10.161 24.24,9.361C22.96,8.561 21.36,8.081 19.6,8.081C17.84,8.081 16.4,8.401 14.96,9.201C13.68,10.001 12.56,10.961 11.92,12.401C11.12,13.841 10.8,15.441 10.8,17.201L10.8,18.801C10.8,20.721 11.28,22.321 12.08,23.761C12.88,25.201 14.16,26.321 15.6,27.121C17.2,27.921 18.96,28.241 21.04,28.241C22.96,28.241 24.56,27.921 26,27.441C27.44,26.961 28.72,26.001 29.84,24.881L35.28,30.801C33.68,32.561 31.6,34.001 29.2,34.961C26.8,36.081 24.08,36.561 20.88,36.561Z" fill="#000000"/>
</svg>
