<svg width="36" height="36" viewBox="0 0 36 36" fill="none" xmlns="http://www.w3.org/2000/svg" xmlns:xlink="http://www.w3.org/1999/xlink">
<path d="M14,35.92C11.28,35.92 8.88,35.44 6.96,34.48C5.04,33.52 3.44,32.24 2.48,30.64C1.36,29.04 0.88,27.28 0.88,25.2C0.88,23.12 1.36,21.36 2.48,19.76C3.44,18.16 5.04,17.04 7.28,16.08C9.52,15.12 12.4,14.8 15.92,14.8L25.2,14.8L25.2,20.72L17.04,20.72C14.64,20.72 13.04,21.04 12.08,21.84C11.12,22.64 10.8,23.6 10.8,24.72C10.8,26 11.28,27.12 12.4,27.76C13.36,28.56 14.8,28.88 16.56,28.88C18.32,28.88 19.76,28.4 21.04,27.6C22.32,26.8 23.28,25.68 23.92,24.08L25.52,28.72C24.72,30.96 23.44,32.72 21.52,33.84C19.44,35.44 17.04,35.92 14,35.92ZM24.56,35.44L24.56,28.56L23.92,27.12L23.92,14.96C23.92,12.72 23.28,11.12 22,9.84C20.72,8.56 18.64,8.08 15.92,8.08C14,8.08 12.24,8.4 10.48,8.88C8.72,9.52 7.12,10.32 5.84,11.28L2.16,4.24C4.08,2.96 6.32,1.84 9.04,1.04C11.76,0.24 14.48,-0.08 17.2,-0.08C22.48,-0.08 26.64,1.2 29.68,3.76C32.56,6.32 34.16,10.16 34.16,15.6L34.16,35.44L24.56,35.44Z" fill="#2B9DF5"/>
</svg>
