<svg width="46" height="54" viewBox="0 0 46 54" fill="none" xmlns="http://www.w3.org/2000/svg" xmlns:xlink="http://www.w3.org/1999/xlink">
<path d="M37.15,50.84C34.21,53.69 31,53.24 27.91,51.89C24.64,50.51 21.64,50.45 18.19,51.89C13.87,53.75 11.59,53.21 9.01,50.84C-5.63,35.75 -3.47,12.77 13.15,11.93C17.2,12.14 20.02,14.15 22.39,14.33C25.93,13.61 29.32,11.54 33.1,11.81C37.63,12.17 41.05,13.97 43.3,17.21C33.94,22.82 36.16,35.15 44.74,38.6C43.03,43.1 40.81,47.57 37.12,50.87L37.15,50.84ZM22.09,11.75C21.64,5.06 27.07,-0.46 33.31,-1C34.18,6.74 26.29,12.5 22.09,11.75Z" fill="#FFFFFF"/>
</svg>
